solid OpenSCAD_Model
  facet normal -1 -0 -0
    outer loop
      vertex -27 0 0
      vertex -27 0 10
      vertex -27 4 0
    endloop
  endfacet
  facet normal -1 0 0
    outer loop
      vertex -27 4 0
      vertex -27 0 10
      vertex -27 4 10
    endloop
  endfacet
  facet normal 0 -1 0
    outer loop
      vertex -19.4669 0 3.35943
      vertex -27 0 0
      vertex 22.8625 0 0
    endloop
  endfacet
  facet normal 0 -1 0
    outer loop
      vertex 16.4669 0 3.35943
      vertex -27 0 10
      vertex 22.8625 0 0
    endloop
  endfacet
  facet normal 0 -1 0
    outer loop
      vertex -11.5331 0 3.35943
      vertex -18.275 0 5
      vertex -18.6044 0 3.98607
    endloop
  endfacet
  facet normal 0 -1 0
    outer loop
      vertex -27 0 10
      vertex -27 0 0
      vertex -21.3956 0 3.98607
    endloop
  endfacet
  facet normal 0 -1 0
    outer loop
      vertex -11.5331 0 3.35943
      vertex -12.3956 0 3.98607
      vertex -18.275 0 5
    endloop
  endfacet
  facet normal 0 -1 0
    outer loop
      vertex -27 0 10
      vertex -21.3956 0 3.98607
      vertex -21.725 0 5
    endloop
  endfacet
  facet normal -0 -1 0
    outer loop
      vertex 16.4669 0 6.64057
      vertex 17.5331 0 6.64057
      vertex 22.8625 0 10
    endloop
  endfacet
  facet normal 0 -1 0
    outer loop
      vertex -27 0 10
      vertex -21.725 0 5
      vertex -21.3956 0 6.01393
    endloop
  endfacet
  facet normal 0 -1 0
    outer loop
      vertex -27 0 10
      vertex -21.3956 0 6.01393
      vertex -20.5331 0 6.64057
    endloop
  endfacet
  facet normal 0 -1 0
    outer loop
      vertex -27 0 10
      vertex -20.5331 0 6.64057
      vertex -19.4669 0 6.64057
    endloop
  endfacet
  facet normal 0 -1 0
    outer loop
      vertex -11.5331 0 3.35943
      vertex -18.6044 0 3.98607
      vertex 22.8625 0 0
    endloop
  endfacet
  facet normal 0 -1 0
    outer loop
      vertex -20.5331 0 3.35943
      vertex -27 0 0
      vertex -19.4669 0 3.35943
    endloop
  endfacet
  facet normal 0 -1 0
    outer loop
      vertex -21.3956 0 3.98607
      vertex -27 0 0
      vertex -20.5331 0 3.35943
    endloop
  endfacet
  facet normal 0 -1 0
    outer loop
      vertex -12.725 0 5
      vertex -19.4669 0 6.64057
      vertex -18.6044 0 6.01393
    endloop
  endfacet
  facet normal 0 -1 0
    outer loop
      vertex -12.3956 0 3.98607
      vertex -12.725 0 5
      vertex -18.6044 0 6.01393
    endloop
  endfacet
  facet normal 0 -1 0
    outer loop
      vertex -9.275 0 5
      vertex -9.60445 0 3.98607
      vertex 22.8625 0 0
    endloop
  endfacet
  facet normal 0 -1 0
    outer loop
      vertex -27 0 10
      vertex -19.4669 0 6.64057
      vertex -12.3956 0 6.01393
    endloop
  endfacet
  facet normal 0 -1 0
    outer loop
      vertex -9.60445 0 6.01393
      vertex -9.275 0 5
      vertex 22.8625 0 0
    endloop
  endfacet
  facet normal 0 -1 0
    outer loop
      vertex -27 0 10
      vertex -12.3956 0 6.01393
      vertex -11.5331 0 6.64057
    endloop
  endfacet
  facet normal 0 -1 0
    outer loop
      vertex -27 0 10
      vertex -10.4669 0 6.64057
      vertex 22.8625 0 0
    endloop
  endfacet
  facet normal 0 -1 0
    outer loop
      vertex -27 0 10
      vertex -11.5331 0 6.64057
      vertex -10.4669 0 6.64057
    endloop
  endfacet
  facet normal 0 -1 0
    outer loop
      vertex -10.4669 0 6.64057
      vertex -9.60445 0 6.01393
      vertex 22.8625 0 0
    endloop
  endfacet
  facet normal 0 -1 0
    outer loop
      vertex -18.6044 0 3.98607
      vertex -19.4669 0 3.35943
      vertex 22.8625 0 0
    endloop
  endfacet
  facet normal 0 -1 0
    outer loop
      vertex -10.4669 0 3.35943
      vertex -11.5331 0 3.35943
      vertex 22.8625 0 0
    endloop
  endfacet
  facet normal 0 -1 0
    outer loop
      vertex -12.3956 0 3.98607
      vertex -18.6044 0 6.01393
      vertex -18.275 0 5
    endloop
  endfacet
  facet normal 0 -1 0
    outer loop
      vertex 15.275 0 5
      vertex -27 0 10
      vertex 15.6044 0 3.98607
    endloop
  endfacet
  facet normal 0 -1 0
    outer loop
      vertex 17.5331 0 3.35943
      vertex 16.4669 0 3.35943
      vertex 22.8625 0 0
    endloop
  endfacet
  facet normal 0 -1 0
    outer loop
      vertex 15.6044 0 6.01393
      vertex -27 0 10
      vertex 15.275 0 5
    endloop
  endfacet
  facet normal 0 -1 0
    outer loop
      vertex 16.4669 0 6.64057
      vertex -27 0 10
      vertex 15.6044 0 6.01393
    endloop
  endfacet
  facet normal 0 -1 0
    outer loop
      vertex 22.8625 0 10
      vertex -27 0 10
      vertex 16.4669 0 6.64057
    endloop
  endfacet
  facet normal 0 -1 0
    outer loop
      vertex 22.8625 0 10
      vertex 18.3956 0 6.01393
      vertex 22.8625 0 0
    endloop
  endfacet
  facet normal 0 -1 0
    outer loop
      vertex 18.3956 0 6.01393
      vertex 18.725 0 5
      vertex 22.8625 0 0
    endloop
  endfacet
  facet normal 0 -1 0
    outer loop
      vertex 18.725 0 5
      vertex 18.3956 0 3.98607
      vertex 22.8625 0 0
    endloop
  endfacet
  facet normal 0 -1 0
    outer loop
      vertex 18.3956 0 3.98607
      vertex 17.5331 0 3.35943
      vertex 22.8625 0 0
    endloop
  endfacet
  facet normal 0 -1 0
    outer loop
      vertex 15.6044 0 3.98607
      vertex -27 0 10
      vertex 16.4669 0 3.35943
    endloop
  endfacet
  facet normal -0 -1 0
    outer loop
      vertex 17.5331 0 6.64057
      vertex 18.3956 0 6.01393
      vertex 22.8625 0 10
    endloop
  endfacet
  facet normal 0 -1 0
    outer loop
      vertex -9.60445 0 3.98607
      vertex -10.4669 0 3.35943
      vertex 22.8625 0 0
    endloop
  endfacet
  facet normal 0 -1 -0
    outer loop
      vertex -12.725 0 5
      vertex -12.3956 0 6.01393
      vertex -19.4669 0 6.64057
    endloop
  endfacet
  facet normal -0 -0 -1
    outer loop
      vertex -27 0 0
      vertex -27 4 0
      vertex 22.8625 0 0
    endloop
  endfacet
  facet normal 0 0 -1
    outer loop
      vertex 22.8625 0 0
      vertex -27 4 0
      vertex 0.914385 4 0
    endloop
  endfacet
  facet normal 0 0 -1
    outer loop
      vertex 5.26875 3.73602 0
      vertex 0.914385 4 0
      vertex 0.360346 5.08736 0
    endloop
  endfacet
  facet normal 0 0 -1
    outer loop
      vertex 3.42754 5.93029 0
      vertex 0.360346 5.08736 0
      vertex 0 7.3625 0
    endloop
  endfacet
  facet normal 0 0 -1
    outer loop
      vertex 3.175 7.3625 0
      vertex 0 7.3625 0
      vertex 0.360346 9.63764 0
    endloop
  endfacet
  facet normal 0 0 -1
    outer loop
      vertex 4.15469 10.0542 0
      vertex 0.360346 9.63764 0
      vertex 1.40611 11.6901 0
    endloop
  endfacet
  facet normal 0 0 -1
    outer loop
      vertex 5.26875 10.989 0
      vertex 1.40611 11.6901 0
      vertex 3.03493 13.3189 0
    endloop
  endfacet
  facet normal 0 0 -1
    outer loop
      vertex 8.08965 11.4864 0
      vertex 3.03493 13.3189 0
      vertex 5.08736 14.3647 0
    endloop
  endfacet
  facet normal 0 0 -1
    outer loop
      vertex 9.45625 10.989 0
      vertex 5.08736 14.3647 0
      vertex 7.3625 14.725 0
    endloop
  endfacet
  facet normal 0 0 -1
    outer loop
      vertex 22.8625 10.675 0
      vertex 7.3625 14.725 0
      vertex 22.8625 14.725 0
    endloop
  endfacet
  facet normal -0 -0 -1
    outer loop
      vertex 8.08965 11.4864 0
      vertex 5.08736 14.3647 0
      vertex 9.45625 10.989 0
    endloop
  endfacet
  facet normal 0 0 -1
    outer loop
      vertex 9.83044 10.675 0
      vertex 9.45625 10.989 0
      vertex 7.3625 14.725 0
    endloop
  endfacet
  facet normal -0 -0 -1
    outer loop
      vertex 6.63535 11.4864 0
      vertex 3.03493 13.3189 0
      vertex 8.08965 11.4864 0
    endloop
  endfacet
  facet normal 0 -0 -1
    outer loop
      vertex 5.26875 10.989 0
      vertex 3.03493 13.3189 0
      vertex 6.63535 11.4864 0
    endloop
  endfacet
  facet normal 0 -0 -1
    outer loop
      vertex 4.15469 10.0542 0
      vertex 1.40611 11.6901 0
      vertex 5.26875 10.989 0
    endloop
  endfacet
  facet normal 0 -0 -1
    outer loop
      vertex 3.42754 8.79471 0
      vertex 0.360346 9.63764 0
      vertex 4.15469 10.0542 0
    endloop
  endfacet
  facet normal 0 -0 -1
    outer loop
      vertex 3.175 7.3625 0
      vertex 0.360346 9.63764 0
      vertex 3.42754 8.79471 0
    endloop
  endfacet
  facet normal 0 0 -1
    outer loop
      vertex 3.42754 5.93029 0
      vertex 0 7.3625 0
      vertex 3.175 7.3625 0
    endloop
  endfacet
  facet normal 0 0 -1
    outer loop
      vertex 4.15469 4.67083 0
      vertex 0.360346 5.08736 0
      vertex 3.42754 5.93029 0
    endloop
  endfacet
  facet normal 0 0 -1
    outer loop
      vertex 5.26875 3.73602 0
      vertex 0.360346 5.08736 0
      vertex 4.15469 4.67083 0
    endloop
  endfacet
  facet normal 0 0 -1
    outer loop
      vertex 6.63535 3.23862 0
      vertex 0.914385 4 0
      vertex 5.26875 3.73602 0
    endloop
  endfacet
  facet normal 0 0 -1
    outer loop
      vertex 8.08965 3.23862 0
      vertex 22.8625 0 0
      vertex 6.63535 3.23862 0
    endloop
  endfacet
  facet normal 0 0 -1
    outer loop
      vertex 22.8625 0 0
      vertex 0.914385 4 0
      vertex 6.63535 3.23862 0
    endloop
  endfacet
  facet normal 0 0 -1
    outer loop
      vertex 9.45625 3.73602 0
      vertex 22.8625 0 0
      vertex 8.08965 3.23862 0
    endloop
  endfacet
  facet normal 0 0 -1
    outer loop
      vertex 9.83044 4.05 0
      vertex 22.8625 0 0
      vertex 9.45625 3.73602 0
    endloop
  endfacet
  facet normal 0 0 -1
    outer loop
      vertex 22.8625 4.05 0
      vertex 22.8625 0 0
      vertex 9.83044 4.05 0
    endloop
  endfacet
  facet normal -0 -0 -1
    outer loop
      vertex 9.83044 10.675 0
      vertex 7.3625 14.725 0
      vertex 22.8625 10.675 0
    endloop
  endfacet
  facet normal 0 1 0
    outer loop
      vertex -10.4669 4 6.64057
      vertex -27 4 10
      vertex 0.914385 4 10
    endloop
  endfacet
  facet normal 0 1 0
    outer loop
      vertex -27 4 0
      vertex -27 4 10
      vertex -21.725 4 5
    endloop
  endfacet
  facet normal 0 1 0
    outer loop
      vertex -27 4 0
      vertex -21.725 4 5
      vertex -21.3956 4 3.98607
    endloop
  endfacet
  facet normal 0 1 0
    outer loop
      vertex -27 4 0
      vertex -21.3956 4 3.98607
      vertex -20.5331 4 3.35943
    endloop
  endfacet
  facet normal 0 1 0
    outer loop
      vertex -27 4 0
      vertex -20.5331 4 3.35943
      vertex 0.914385 4 0
    endloop
  endfacet
  facet normal 0 1 0
    outer loop
      vertex -20.5331 4 3.35943
      vertex -19.4669 4 3.35943
      vertex 0.914385 4 0
    endloop
  endfacet
  facet normal 0 1 -0
    outer loop
      vertex -18.275 4 5
      vertex 0.914385 4 0
      vertex -18.6044 4 3.98607
    endloop
  endfacet
  facet normal 0 1 0
    outer loop
      vertex -12.3956 4 3.98607
      vertex -18.6044 4 6.01393
      vertex -19.4669 4 6.64057
    endloop
  endfacet
  facet normal 0 1 0
    outer loop
      vertex -20.5331 4 6.64057
      vertex -27 4 10
      vertex -19.4669 4 6.64057
    endloop
  endfacet
  facet normal 0 1 0
    outer loop
      vertex -21.3956 4 6.01393
      vertex -27 4 10
      vertex -20.5331 4 6.64057
    endloop
  endfacet
  facet normal 0 1 -0
    outer loop
      vertex -9.60445 4 3.98607
      vertex 0.914385 4 0
      vertex -10.4669 4 3.35943
    endloop
  endfacet
  facet normal 0 1 0
    outer loop
      vertex -12.3956 4 3.98607
      vertex -19.4669 4 6.64057
      vertex -27 4 10
    endloop
  endfacet
  facet normal 0 1 0
    outer loop
      vertex -21.725 4 5
      vertex -27 4 10
      vertex -21.3956 4 6.01393
    endloop
  endfacet
  facet normal 0 1 0
    outer loop
      vertex -18.275 4 5
      vertex -18.6044 4 6.01393
      vertex -12.3956 4 3.98607
    endloop
  endfacet
  facet normal 0 1 0
    outer loop
      vertex -18.275 4 5
      vertex -12.3956 4 3.98607
      vertex -11.5331 4 3.35943
    endloop
  endfacet
  facet normal 0 1 0
    outer loop
      vertex -18.275 4 5
      vertex -11.5331 4 3.35943
      vertex 0.914385 4 0
    endloop
  endfacet
  facet normal 0 1 0
    outer loop
      vertex -11.5331 4 3.35943
      vertex -10.4669 4 3.35943
      vertex 0.914385 4 0
    endloop
  endfacet
  facet normal 0 1 0
    outer loop
      vertex -10.4669 4 6.64057
      vertex 0.914385 4 10
      vertex -9.60445 4 6.01393
    endloop
  endfacet
  facet normal 0 1 0
    outer loop
      vertex 0.914385 4 0
      vertex -9.60445 4 3.98607
      vertex 0.914385 4 10
    endloop
  endfacet
  facet normal 0 1 0
    outer loop
      vertex -9.60445 4 3.98607
      vertex -9.275 4 5
      vertex 0.914385 4 10
    endloop
  endfacet
  facet normal 0 1 0
    outer loop
      vertex -9.275 4 5
      vertex -9.60445 4 6.01393
      vertex 0.914385 4 10
    endloop
  endfacet
  facet normal 0 1 0
    outer loop
      vertex -11.5331 4 6.64057
      vertex -27 4 10
      vertex -10.4669 4 6.64057
    endloop
  endfacet
  facet normal 0 1 0
    outer loop
      vertex -12.3956 4 6.01393
      vertex -27 4 10
      vertex -11.5331 4 6.64057
    endloop
  endfacet
  facet normal 0 1 0
    outer loop
      vertex -12.725 4 5
      vertex -27 4 10
      vertex -12.3956 4 6.01393
    endloop
  endfacet
  facet normal 0 1 -0
    outer loop
      vertex -18.6044 4 3.98607
      vertex 0.914385 4 0
      vertex -19.4669 4 3.35943
    endloop
  endfacet
  facet normal 0 1 0
    outer loop
      vertex -12.3956 4 3.98607
      vertex -27 4 10
      vertex -12.725 4 5
    endloop
  endfacet
  facet normal 0 -0 1
    outer loop
      vertex -27 4 10
      vertex -27 0 10
      vertex 22.8625 0 10
    endloop
  endfacet
  facet normal 0 0 1
    outer loop
      vertex 5.26875 3.73602 10
      vertex 0.914385 4 10
      vertex -27 4 10
    endloop
  endfacet
  facet normal -0 -0 1
    outer loop
      vertex 6.63535 3.23862 10
      vertex -27 4 10
      vertex 22.8625 0 10
    endloop
  endfacet
  facet normal 0 0 1
    outer loop
      vertex 22.8625 4.05 10
      vertex 9.45625 3.73602 10
      vertex 22.8625 0 10
    endloop
  endfacet
  facet normal 0 -0 1
    outer loop
      vertex 9.45625 3.73602 10
      vertex 8.08965 3.23862 10
      vertex 22.8625 0 10
    endloop
  endfacet
  facet normal 0 -0 1
    outer loop
      vertex 8.08965 3.23862 10
      vertex 6.63535 3.23862 10
      vertex 22.8625 0 10
    endloop
  endfacet
  facet normal 0 0 1
    outer loop
      vertex 0.360346 5.08736 10
      vertex 0.914385 4 10
      vertex 4.15469 4.67083 10
    endloop
  endfacet
  facet normal 0 0 1
    outer loop
      vertex 0 7.3625 10
      vertex 3.42754 5.93029 10
      vertex 3.175 7.3625 10
    endloop
  endfacet
  facet normal 0 0 1
    outer loop
      vertex 0 7.3625 10
      vertex 0.360346 5.08736 10
      vertex 3.42754 5.93029 10
    endloop
  endfacet
  facet normal 0 0 1
    outer loop
      vertex 0.360346 9.63764 10
      vertex 3.42754 8.79471 10
      vertex 4.15469 10.0542 10
    endloop
  endfacet
  facet normal 0 -0 1
    outer loop
      vertex 0.360346 9.63764 10
      vertex 0 7.3625 10
      vertex 3.42754 8.79471 10
    endloop
  endfacet
  facet normal 0 0 1
    outer loop
      vertex 22.8625 14.725 10
      vertex 6.63535 11.4864 10
      vertex 8.08965 11.4864 10
    endloop
  endfacet
  facet normal 0 0 1
    outer loop
      vertex 22.8625 10.675 10
      vertex 8.08965 11.4864 10
      vertex 9.45625 10.989 10
    endloop
  endfacet
  facet normal 0 -0 1
    outer loop
      vertex 5.08736 14.3647 10
      vertex 3.03493 13.3189 10
      vertex 7.3625 14.725 10
    endloop
  endfacet
  facet normal 0 0 1
    outer loop
      vertex 22.8625 14.725 10
      vertex 8.08965 11.4864 10
      vertex 22.8625 10.675 10
    endloop
  endfacet
  facet normal 0 -0 1
    outer loop
      vertex 7.3625 14.725 10
      vertex 6.63535 11.4864 10
      vertex 22.8625 14.725 10
    endloop
  endfacet
  facet normal 0 0 1
    outer loop
      vertex 1.40611 11.6901 10
      vertex 5.26875 10.989 10
      vertex 6.63535 11.4864 10
    endloop
  endfacet
  facet normal 0 0 1
    outer loop
      vertex 7.3625 14.725 10
      vertex 3.03493 13.3189 10
      vertex 6.63535 11.4864 10
    endloop
  endfacet
  facet normal 0 -0 1
    outer loop
      vertex 3.03493 13.3189 10
      vertex 1.40611 11.6901 10
      vertex 6.63535 11.4864 10
    endloop
  endfacet
  facet normal 0 0 1
    outer loop
      vertex 5.26875 10.989 10
      vertex 0.360346 9.63764 10
      vertex 4.15469 10.0542 10
    endloop
  endfacet
  facet normal 0 0 1
    outer loop
      vertex 3.42754 8.79471 10
      vertex 0 7.3625 10
      vertex 3.175 7.3625 10
    endloop
  endfacet
  facet normal 0 -0 1
    outer loop
      vertex 3.42754 5.93029 10
      vertex 0.360346 5.08736 10
      vertex 4.15469 4.67083 10
    endloop
  endfacet
  facet normal 0 0 1
    outer loop
      vertex 6.63535 3.23862 10
      vertex 5.26875 3.73602 10
      vertex -27 4 10
    endloop
  endfacet
  facet normal 0 0 1
    outer loop
      vertex 9.83044 10.675 10
      vertex 22.8625 10.675 10
      vertex 9.45625 10.989 10
    endloop
  endfacet
  facet normal 0 -0 1
    outer loop
      vertex 1.40611 11.6901 10
      vertex 0.360346 9.63764 10
      vertex 5.26875 10.989 10
    endloop
  endfacet
  facet normal 0 -0 1
    outer loop
      vertex 9.83044 4.05 10
      vertex 9.45625 3.73602 10
      vertex 22.8625 4.05 10
    endloop
  endfacet
  facet normal 0 0 1
    outer loop
      vertex 5.26875 3.73602 10
      vertex 4.15469 4.67083 10
      vertex 0.914385 4 10
    endloop
  endfacet
  facet normal 1 0 -0
    outer loop
      vertex 22.8625 0 10
      vertex 22.8625 0 0
      vertex 22.8625 4.05 0
    endloop
  endfacet
  facet normal 1 0 0
    outer loop
      vertex 22.8625 4.05 10
      vertex 22.8625 0 10
      vertex 22.8625 4.05 0
    endloop
  endfacet
  facet normal 0.951056 6.86156e-17 0.309017
    outer loop
      vertex -21.3956 0 3.98607
      vertex -21.3956 4 3.98607
      vertex -21.725 4 5
    endloop
  endfacet
  facet normal 0.951056 6.86156e-17 0.309017
    outer loop
      vertex -21.725 0 5
      vertex -21.3956 0 3.98607
      vertex -21.725 4 5
    endloop
  endfacet
  facet normal 0.587785 1.79638e-16 0.809017
    outer loop
      vertex -20.5331 0 3.35943
      vertex -20.5331 4 3.35943
      vertex -21.3956 4 3.98607
    endloop
  endfacet
  facet normal 0.587785 1.79638e-16 0.809017
    outer loop
      vertex -21.3956 0 3.98607
      vertex -20.5331 0 3.35943
      vertex -21.3956 4 3.98607
    endloop
  endfacet
  facet normal 0 2.22045e-16 1
    outer loop
      vertex -19.4669 0 3.35943
      vertex -19.4669 4 3.35943
      vertex -20.5331 4 3.35943
    endloop
  endfacet
  facet normal 0 2.22045e-16 1
    outer loop
      vertex -20.5331 0 3.35943
      vertex -19.4669 0 3.35943
      vertex -20.5331 4 3.35943
    endloop
  endfacet
  facet normal -0.587785 1.79638e-16 0.809017
    outer loop
      vertex -18.6044 0 3.98607
      vertex -18.6044 4 3.98607
      vertex -19.4669 4 3.35943
    endloop
  endfacet
  facet normal -0.587785 1.79638e-16 0.809017
    outer loop
      vertex -19.4669 0 3.35943
      vertex -18.6044 0 3.98607
      vertex -19.4669 4 3.35943
    endloop
  endfacet
  facet normal -0.951056 6.86156e-17 0.309017
    outer loop
      vertex -18.275 4 5
      vertex -18.6044 4 3.98607
      vertex -18.275 0 5
    endloop
  endfacet
  facet normal -0.951056 6.50861e-17 0.309017
    outer loop
      vertex -18.275 0 5
      vertex -18.6044 4 3.98607
      vertex -18.6044 0 3.98607
    endloop
  endfacet
  facet normal -0.951056 -6.86156e-17 -0.309017
    outer loop
      vertex -18.275 4 5
      vertex -18.275 0 5
      vertex -18.6044 4 6.01393
    endloop
  endfacet
  facet normal -0.951056 -6.86156e-17 -0.309017
    outer loop
      vertex -18.6044 4 6.01393
      vertex -18.275 0 5
      vertex -18.6044 0 6.01393
    endloop
  endfacet
  facet normal -0.587785 -1.79638e-16 -0.809017
    outer loop
      vertex -18.6044 4 6.01393
      vertex -18.6044 0 6.01393
      vertex -19.4669 4 6.64057
    endloop
  endfacet
  facet normal -0.587785 -1.79638e-16 -0.809017
    outer loop
      vertex -19.4669 4 6.64057
      vertex -18.6044 0 6.01393
      vertex -19.4669 0 6.64057
    endloop
  endfacet
  facet normal 0 -2.22045e-16 -1
    outer loop
      vertex -19.4669 4 6.64057
      vertex -19.4669 0 6.64057
      vertex -20.5331 4 6.64057
    endloop
  endfacet
  facet normal 0 -2.22045e-16 -1
    outer loop
      vertex -20.5331 4 6.64057
      vertex -19.4669 0 6.64057
      vertex -20.5331 0 6.64057
    endloop
  endfacet
  facet normal 0.587785 -1.79638e-16 -0.809017
    outer loop
      vertex -20.5331 4 6.64057
      vertex -20.5331 0 6.64057
      vertex -21.3956 4 6.01393
    endloop
  endfacet
  facet normal 0.587785 -1.79638e-16 -0.809017
    outer loop
      vertex -21.3956 4 6.01393
      vertex -20.5331 0 6.64057
      vertex -21.3956 0 6.01393
    endloop
  endfacet
  facet normal 0.951056 -6.50861e-17 -0.309017
    outer loop
      vertex -21.725 4 5
      vertex -21.3956 4 6.01393
      vertex -21.3956 0 6.01393
    endloop
  endfacet
  facet normal 0.951056 -6.86156e-17 -0.309017
    outer loop
      vertex -21.725 0 5
      vertex -21.725 4 5
      vertex -21.3956 0 6.01393
    endloop
  endfacet
  facet normal 0.951056 6.86156e-17 0.309017
    outer loop
      vertex -12.3956 0 3.98607
      vertex -12.3956 4 3.98607
      vertex -12.725 4 5
    endloop
  endfacet
  facet normal 0.951056 6.86156e-17 0.309017
    outer loop
      vertex -12.725 0 5
      vertex -12.3956 0 3.98607
      vertex -12.725 4 5
    endloop
  endfacet
  facet normal 0.587785 1.79638e-16 0.809017
    outer loop
      vertex -11.5331 0 3.35943
      vertex -11.5331 4 3.35943
      vertex -12.3956 4 3.98607
    endloop
  endfacet
  facet normal 0.587785 1.79638e-16 0.809017
    outer loop
      vertex -12.3956 0 3.98607
      vertex -11.5331 0 3.35943
      vertex -12.3956 4 3.98607
    endloop
  endfacet
  facet normal 0 2.22045e-16 1
    outer loop
      vertex -10.4669 0 3.35943
      vertex -10.4669 4 3.35943
      vertex -11.5331 4 3.35943
    endloop
  endfacet
  facet normal 0 2.22045e-16 1
    outer loop
      vertex -11.5331 0 3.35943
      vertex -10.4669 0 3.35943
      vertex -11.5331 4 3.35943
    endloop
  endfacet
  facet normal -0.587785 1.79638e-16 0.809017
    outer loop
      vertex -9.60445 0 3.98607
      vertex -9.60445 4 3.98607
      vertex -10.4669 4 3.35943
    endloop
  endfacet
  facet normal -0.587785 1.79638e-16 0.809017
    outer loop
      vertex -10.4669 0 3.35943
      vertex -9.60445 0 3.98607
      vertex -10.4669 4 3.35943
    endloop
  endfacet
  facet normal -0.951056 6.86156e-17 0.309017
    outer loop
      vertex -9.275 4 5
      vertex -9.60445 4 3.98607
      vertex -9.275 0 5
    endloop
  endfacet
  facet normal -0.951056 6.50861e-17 0.309017
    outer loop
      vertex -9.275 0 5
      vertex -9.60445 4 3.98607
      vertex -9.60445 0 3.98607
    endloop
  endfacet
  facet normal -0.951056 -6.86156e-17 -0.309017
    outer loop
      vertex -9.275 4 5
      vertex -9.275 0 5
      vertex -9.60445 4 6.01393
    endloop
  endfacet
  facet normal -0.951056 -6.86156e-17 -0.309017
    outer loop
      vertex -9.60445 4 6.01393
      vertex -9.275 0 5
      vertex -9.60445 0 6.01393
    endloop
  endfacet
  facet normal -0.587785 -1.79638e-16 -0.809017
    outer loop
      vertex -9.60445 4 6.01393
      vertex -9.60445 0 6.01393
      vertex -10.4669 4 6.64057
    endloop
  endfacet
  facet normal -0.587785 -1.79638e-16 -0.809017
    outer loop
      vertex -10.4669 4 6.64057
      vertex -9.60445 0 6.01393
      vertex -10.4669 0 6.64057
    endloop
  endfacet
  facet normal 0 -2.22045e-16 -1
    outer loop
      vertex -10.4669 4 6.64057
      vertex -10.4669 0 6.64057
      vertex -11.5331 4 6.64057
    endloop
  endfacet
  facet normal 0 -2.22045e-16 -1
    outer loop
      vertex -11.5331 4 6.64057
      vertex -10.4669 0 6.64057
      vertex -11.5331 0 6.64057
    endloop
  endfacet
  facet normal 0.587785 -1.79638e-16 -0.809017
    outer loop
      vertex -11.5331 4 6.64057
      vertex -11.5331 0 6.64057
      vertex -12.3956 4 6.01393
    endloop
  endfacet
  facet normal 0.587785 -1.79638e-16 -0.809017
    outer loop
      vertex -12.3956 4 6.01393
      vertex -11.5331 0 6.64057
      vertex -12.3956 0 6.01393
    endloop
  endfacet
  facet normal 0.951056 -6.50861e-17 -0.309017
    outer loop
      vertex -12.725 4 5
      vertex -12.3956 4 6.01393
      vertex -12.3956 0 6.01393
    endloop
  endfacet
  facet normal 0.951056 -6.86156e-17 -0.309017
    outer loop
      vertex -12.725 0 5
      vertex -12.725 4 5
      vertex -12.3956 0 6.01393
    endloop
  endfacet
  facet normal 0.587785 1.7742e-16 0.809017
    outer loop
      vertex 16.4669 0 3.35943
      vertex 16.4669 4.05 3.35943
      vertex 15.6044 4.05 3.98607
    endloop
  endfacet
  facet normal 0.587785 1.7742e-16 0.809017
    outer loop
      vertex 15.6044 0 3.98607
      vertex 16.4669 0 3.35943
      vertex 15.6044 4.05 3.98607
    endloop
  endfacet
  facet normal 0.951056 6.77685e-17 0.309017
    outer loop
      vertex 15.6044 0 3.98607
      vertex 15.6044 4.05 3.98607
      vertex 15.275 4.05 5
    endloop
  endfacet
  facet normal 0.951056 6.77685e-17 0.309017
    outer loop
      vertex 15.275 0 5
      vertex 15.6044 0 3.98607
      vertex 15.275 4.05 5
    endloop
  endfacet
  facet normal 0 2.19303e-16 1
    outer loop
      vertex 17.5331 0 3.35943
      vertex 17.5331 4.05 3.35943
      vertex 16.4669 4.05 3.35943
    endloop
  endfacet
  facet normal 0 2.19303e-16 1
    outer loop
      vertex 16.4669 0 3.35943
      vertex 17.5331 0 3.35943
      vertex 16.4669 4.05 3.35943
    endloop
  endfacet
  facet normal -0.587785 1.7742e-16 0.809017
    outer loop
      vertex 18.3956 0 3.98607
      vertex 18.3956 4.05 3.98607
      vertex 17.5331 4.05 3.35943
    endloop
  endfacet
  facet normal -0.587785 1.7742e-16 0.809017
    outer loop
      vertex 17.5331 0 3.35943
      vertex 18.3956 0 3.98607
      vertex 17.5331 4.05 3.35943
    endloop
  endfacet
  facet normal -0.951056 6.77685e-17 0.309017
    outer loop
      vertex 18.725 4.05 5
      vertex 18.3956 4.05 3.98607
      vertex 18.725 0 5
    endloop
  endfacet
  facet normal -0.951056 5.27198e-17 0.309017
    outer loop
      vertex 18.725 0 5
      vertex 18.3956 4.05 3.98607
      vertex 18.3956 0 3.98607
    endloop
  endfacet
  facet normal -0.951056 -6.77685e-17 -0.309017
    outer loop
      vertex 18.725 4.05 5
      vertex 18.725 0 5
      vertex 18.3956 4.05 6.01393
    endloop
  endfacet
  facet normal -0.951056 -1.35537e-16 -0.309017
    outer loop
      vertex 18.3956 4.05 6.01393
      vertex 18.725 0 5
      vertex 18.3956 0 6.01393
    endloop
  endfacet
  facet normal -0.587785 -3.5484e-16 -0.809017
    outer loop
      vertex 18.3956 4.05 6.01393
      vertex 18.3956 0 6.01393
      vertex 17.5331 4.05 6.64057
    endloop
  endfacet
  facet normal -0.587785 -1.7742e-16 -0.809017
    outer loop
      vertex 17.5331 4.05 6.64057
      vertex 18.3956 0 6.01393
      vertex 17.5331 0 6.64057
    endloop
  endfacet
  facet normal 0 -2.19303e-16 -1
    outer loop
      vertex 17.5331 4.05 6.64057
      vertex 17.5331 0 6.64057
      vertex 16.4669 4.05 6.64057
    endloop
  endfacet
  facet normal 0 -2.19303e-16 -1
    outer loop
      vertex 16.4669 4.05 6.64057
      vertex 17.5331 0 6.64057
      vertex 16.4669 0 6.64057
    endloop
  endfacet
  facet normal 0.587785 -1.7742e-16 -0.809017
    outer loop
      vertex 16.4669 4.05 6.64057
      vertex 16.4669 0 6.64057
      vertex 15.6044 4.05 6.01393
    endloop
  endfacet
  facet normal 0.587785 -3.5484e-16 -0.809017
    outer loop
      vertex 15.6044 4.05 6.01393
      vertex 16.4669 0 6.64057
      vertex 15.6044 0 6.01393
    endloop
  endfacet
  facet normal 0.951056 -1.1862e-16 -0.309017
    outer loop
      vertex 15.275 4.05 5
      vertex 15.6044 4.05 6.01393
      vertex 15.6044 0 6.01393
    endloop
  endfacet
  facet normal 0.951056 -6.77685e-17 -0.309017
    outer loop
      vertex 15.275 0 5
      vertex 15.275 4.05 5
      vertex 15.6044 0 6.01393
    endloop
  endfacet
  facet normal 0 1 0
    outer loop
      vertex 16.4669 4.05 6.64057
      vertex 9.83044 4.05 10
      vertex 17.5331 4.05 6.64057
    endloop
  endfacet
  facet normal 0 1 -0
    outer loop
      vertex 16.4669 4.05 3.35943
      vertex 22.8625 4.05 0
      vertex 9.83044 4.05 0
    endloop
  endfacet
  facet normal 0 1 -0
    outer loop
      vertex 18.3956 4.05 3.98607
      vertex 22.8625 4.05 0
      vertex 17.5331 4.05 3.35943
    endloop
  endfacet
  facet normal 0 1 -0
    outer loop
      vertex 9.83044 4.05 10
      vertex 15.6044 4.05 3.98607
      vertex 9.83044 4.05 0
    endloop
  endfacet
  facet normal 0 1 -0
    outer loop
      vertex 15.6044 4.05 3.98607
      vertex 16.4669 4.05 3.35943
      vertex 9.83044 4.05 0
    endloop
  endfacet
  facet normal 0 1 0
    outer loop
      vertex 22.8625 4.05 10
      vertex 22.8625 4.05 0
      vertex 18.3956 4.05 3.98607
    endloop
  endfacet
  facet normal 0 1 0
    outer loop
      vertex 22.8625 4.05 10
      vertex 18.3956 4.05 3.98607
      vertex 18.725 4.05 5
    endloop
  endfacet
  facet normal 0 1 0
    outer loop
      vertex 22.8625 4.05 10
      vertex 18.725 4.05 5
      vertex 18.3956 4.05 6.01393
    endloop
  endfacet
  facet normal 0 1 0
    outer loop
      vertex 22.8625 4.05 10
      vertex 18.3956 4.05 6.01393
      vertex 17.5331 4.05 6.64057
    endloop
  endfacet
  facet normal 0 1 0
    outer loop
      vertex 22.8625 4.05 10
      vertex 17.5331 4.05 6.64057
      vertex 9.83044 4.05 10
    endloop
  endfacet
  facet normal 0 1 0
    outer loop
      vertex 15.6044 4.05 6.01393
      vertex 9.83044 4.05 10
      vertex 16.4669 4.05 6.64057
    endloop
  endfacet
  facet normal 0 1 0
    outer loop
      vertex 15.275 4.05 5
      vertex 9.83044 4.05 10
      vertex 15.6044 4.05 6.01393
    endloop
  endfacet
  facet normal 0 1 0
    outer loop
      vertex 9.83044 4.05 10
      vertex 15.275 4.05 5
      vertex 15.6044 4.05 3.98607
    endloop
  endfacet
  facet normal 0 1 -0
    outer loop
      vertex 17.5331 4.05 3.35943
      vertex 22.8625 4.05 0
      vertex 16.4669 4.05 3.35943
    endloop
  endfacet
  facet normal -0.642788 0.766045 0
    outer loop
      vertex 9.83044 4.05 10
      vertex 9.83044 4.05 0
      vertex 9.45625 3.73602 10
    endloop
  endfacet
  facet normal -0.642788 0.766045 0
    outer loop
      vertex 9.45625 3.73602 10
      vertex 9.83044 4.05 0
      vertex 9.45625 3.73602 0
    endloop
  endfacet
  facet normal -0.34202 0.939693 0
    outer loop
      vertex 9.45625 3.73602 10
      vertex 9.45625 3.73602 0
      vertex 8.08965 3.23862 10
    endloop
  endfacet
  facet normal -0.34202 0.939693 0
    outer loop
      vertex 8.08965 3.23862 10
      vertex 9.45625 3.73602 0
      vertex 8.08965 3.23862 0
    endloop
  endfacet
  facet normal 0 1 0
    outer loop
      vertex 8.08965 3.23862 10
      vertex 8.08965 3.23862 0
      vertex 6.63535 3.23862 10
    endloop
  endfacet
  facet normal 0 1 -0
    outer loop
      vertex 6.63535 3.23862 10
      vertex 8.08965 3.23862 0
      vertex 6.63535 3.23862 0
    endloop
  endfacet
  facet normal 0.34202 0.939693 -0
    outer loop
      vertex 6.63535 3.23862 10
      vertex 6.63535 3.23862 0
      vertex 5.26875 3.73602 10
    endloop
  endfacet
  facet normal 0.34202 0.939693 -0
    outer loop
      vertex 5.26875 3.73602 10
      vertex 6.63535 3.23862 0
      vertex 5.26875 3.73602 0
    endloop
  endfacet
  facet normal 0.642788 0.766045 -0
    outer loop
      vertex 5.26875 3.73602 10
      vertex 5.26875 3.73602 0
      vertex 4.15469 4.67083 10
    endloop
  endfacet
  facet normal 0.642788 0.766045 -0
    outer loop
      vertex 4.15469 4.67083 10
      vertex 5.26875 3.73602 0
      vertex 4.15469 4.67083 0
    endloop
  endfacet
  facet normal 0.866025 0.5 0
    outer loop
      vertex 3.42754 5.93029 10
      vertex 4.15469 4.67083 10
      vertex 4.15469 4.67083 0
    endloop
  endfacet
  facet normal 0.866025 0.5 0
    outer loop
      vertex 3.42754 5.93029 0
      vertex 3.42754 5.93029 10
      vertex 4.15469 4.67083 0
    endloop
  endfacet
  facet normal 0.984808 0.173648 0
    outer loop
      vertex 3.175 7.3625 10
      vertex 3.42754 5.93029 10
      vertex 3.42754 5.93029 0
    endloop
  endfacet
  facet normal 0.984808 0.173648 0
    outer loop
      vertex 3.175 7.3625 0
      vertex 3.175 7.3625 10
      vertex 3.42754 5.93029 0
    endloop
  endfacet
  facet normal 0.984808 -0.173648 0
    outer loop
      vertex 3.42754 8.79471 0
      vertex 3.42754 8.79471 10
      vertex 3.175 7.3625 10
    endloop
  endfacet
  facet normal 0.984808 -0.173648 0
    outer loop
      vertex 3.175 7.3625 0
      vertex 3.42754 8.79471 0
      vertex 3.175 7.3625 10
    endloop
  endfacet
  facet normal 0.866025 -0.5 0
    outer loop
      vertex 4.15469 10.0542 0
      vertex 4.15469 10.0542 10
      vertex 3.42754 8.79471 10
    endloop
  endfacet
  facet normal 0.866025 -0.5 0
    outer loop
      vertex 3.42754 8.79471 0
      vertex 4.15469 10.0542 0
      vertex 3.42754 8.79471 10
    endloop
  endfacet
  facet normal 0.642788 -0.766045 0
    outer loop
      vertex 5.26875 10.989 0
      vertex 5.26875 10.989 10
      vertex 4.15469 10.0542 10
    endloop
  endfacet
  facet normal 0.642788 -0.766045 0
    outer loop
      vertex 4.15469 10.0542 0
      vertex 5.26875 10.989 0
      vertex 4.15469 10.0542 10
    endloop
  endfacet
  facet normal 0.34202 -0.939693 0
    outer loop
      vertex 6.63535 11.4864 0
      vertex 6.63535 11.4864 10
      vertex 5.26875 10.989 10
    endloop
  endfacet
  facet normal 0.34202 -0.939693 0
    outer loop
      vertex 5.26875 10.989 0
      vertex 6.63535 11.4864 0
      vertex 5.26875 10.989 10
    endloop
  endfacet
  facet normal 0 -1 0
    outer loop
      vertex 8.08965 11.4864 0
      vertex 8.08965 11.4864 10
      vertex 6.63535 11.4864 10
    endloop
  endfacet
  facet normal -0 -1 -0
    outer loop
      vertex 6.63535 11.4864 0
      vertex 8.08965 11.4864 0
      vertex 6.63535 11.4864 10
    endloop
  endfacet
  facet normal -0.34202 -0.939693 -0
    outer loop
      vertex 9.45625 10.989 0
      vertex 9.45625 10.989 10
      vertex 8.08965 11.4864 10
    endloop
  endfacet
  facet normal -0.34202 -0.939693 -0
    outer loop
      vertex 8.08965 11.4864 0
      vertex 9.45625 10.989 0
      vertex 8.08965 11.4864 10
    endloop
  endfacet
  facet normal -0.642788 -0.766045 -0
    outer loop
      vertex 9.83044 10.675 0
      vertex 9.83044 10.675 10
      vertex 9.45625 10.989 10
    endloop
  endfacet
  facet normal -0.642788 -0.766045 -0
    outer loop
      vertex 9.45625 10.989 0
      vertex 9.83044 10.675 0
      vertex 9.45625 10.989 10
    endloop
  endfacet
  facet normal 0 -1 -0
    outer loop
      vertex 16.4669 10.675 6.64057
      vertex 22.8625 10.675 10
      vertex 9.83044 10.675 10
    endloop
  endfacet
  facet normal -0 -1 0
    outer loop
      vertex 16.4669 10.675 6.64057
      vertex 17.5331 10.675 6.64057
      vertex 22.8625 10.675 10
    endloop
  endfacet
  facet normal 0 -1 -0
    outer loop
      vertex 9.83044 10.675 0
      vertex 15.275 10.675 5
      vertex 9.83044 10.675 10
    endloop
  endfacet
  facet normal 0 -1 -0
    outer loop
      vertex 15.6044 10.675 6.01393
      vertex 16.4669 10.675 6.64057
      vertex 9.83044 10.675 10
    endloop
  endfacet
  facet normal 0 -1 0
    outer loop
      vertex 18.3956 10.675 6.01393
      vertex 18.725 10.675 5
      vertex 22.8625 10.675 0
    endloop
  endfacet
  facet normal 0 -1 -0
    outer loop
      vertex 18.3956 10.675 6.01393
      vertex 22.8625 10.675 10
      vertex 17.5331 10.675 6.64057
    endloop
  endfacet
  facet normal 0 -1 0
    outer loop
      vertex 22.8625 10.675 0
      vertex 22.8625 10.675 10
      vertex 18.3956 10.675 6.01393
    endloop
  endfacet
  facet normal 0 -1 0
    outer loop
      vertex 22.8625 10.675 0
      vertex 18.725 10.675 5
      vertex 18.3956 10.675 3.98607
    endloop
  endfacet
  facet normal -0 -1 0
    outer loop
      vertex 9.83044 10.675 0
      vertex 22.8625 10.675 0
      vertex 17.5331 10.675 3.35943
    endloop
  endfacet
  facet normal 0 -1 0
    outer loop
      vertex 9.83044 10.675 0
      vertex 17.5331 10.675 3.35943
      vertex 16.4669 10.675 3.35943
    endloop
  endfacet
  facet normal 0 -1 0
    outer loop
      vertex 9.83044 10.675 0
      vertex 15.6044 10.675 3.98607
      vertex 15.275 10.675 5
    endloop
  endfacet
  facet normal 0 -1 0
    outer loop
      vertex 9.83044 10.675 0
      vertex 16.4669 10.675 3.35943
      vertex 15.6044 10.675 3.98607
    endloop
  endfacet
  facet normal 0 -1 -0
    outer loop
      vertex 15.275 10.675 5
      vertex 15.6044 10.675 6.01393
      vertex 9.83044 10.675 10
    endloop
  endfacet
  facet normal 0 -1 0
    outer loop
      vertex 18.3956 10.675 3.98607
      vertex 17.5331 10.675 3.35943
      vertex 22.8625 10.675 0
    endloop
  endfacet
  facet normal 1 0 -0
    outer loop
      vertex 22.8625 10.675 10
      vertex 22.8625 10.675 0
      vertex 22.8625 14.725 0
    endloop
  endfacet
  facet normal 1 0 0
    outer loop
      vertex 22.8625 14.725 10
      vertex 22.8625 10.675 10
      vertex 22.8625 14.725 0
    endloop
  endfacet
  facet normal 0 1 -0
    outer loop
      vertex 22.75 14.725 5
      vertex 22.8625 14.725 0
      vertex 19.875 14.725 0.020354
    endloop
  endfacet
  facet normal 0 1 0
    outer loop
      vertex 19.875 14.725 9.97965
      vertex 7.3625 14.725 10
      vertex 22.8625 14.725 10
    endloop
  endfacet
  facet normal 0 1 0
    outer loop
      vertex 7.3625 14.725 0
      vertex 7.3625 14.725 10
      vertex 11.25 14.725 5
    endloop
  endfacet
  facet normal 0 1 0
    outer loop
      vertex 7.3625 14.725 0
      vertex 11.25 14.725 5
      vertex 14.125 14.725 0.020354
    endloop
  endfacet
  facet normal 0 1 0
    outer loop
      vertex 7.3625 14.725 0
      vertex 14.125 14.725 0.020354
      vertex 22.8625 14.725 0
    endloop
  endfacet
  facet normal 0 1 0
    outer loop
      vertex 14.125 14.725 0.020354
      vertex 19.875 14.725 0.020354
      vertex 22.8625 14.725 0
    endloop
  endfacet
  facet normal 0 1 0
    outer loop
      vertex 22.8625 14.725 0
      vertex 22.75 14.725 5
      vertex 22.8625 14.725 10
    endloop
  endfacet
  facet normal 0 1 0
    outer loop
      vertex 14.125 14.725 9.97965
      vertex 7.3625 14.725 10
      vertex 19.875 14.725 9.97965
    endloop
  endfacet
  facet normal 0 1 0
    outer loop
      vertex 22.75 14.725 5
      vertex 19.875 14.725 9.97965
      vertex 22.8625 14.725 10
    endloop
  endfacet
  facet normal 0 1 0
    outer loop
      vertex 11.25 14.725 5
      vertex 7.3625 14.725 10
      vertex 14.125 14.725 9.97965
    endloop
  endfacet
  facet normal -0.156434 0.987688 0
    outer loop
      vertex 5.08736 14.3647 0
      vertex 5.08736 14.3647 10
      vertex 7.3625 14.725 0
    endloop
  endfacet
  facet normal -0.156434 0.987688 0
    outer loop
      vertex 7.3625 14.725 0
      vertex 5.08736 14.3647 10
      vertex 7.3625 14.725 10
    endloop
  endfacet
  facet normal -0.453991 0.891006 0
    outer loop
      vertex 3.03493 13.3189 0
      vertex 3.03493 13.3189 10
      vertex 5.08736 14.3647 0
    endloop
  endfacet
  facet normal -0.453991 0.891006 0
    outer loop
      vertex 5.08736 14.3647 0
      vertex 3.03493 13.3189 10
      vertex 5.08736 14.3647 10
    endloop
  endfacet
  facet normal -0.707107 0.707107 0
    outer loop
      vertex 1.40611 11.6901 0
      vertex 1.40611 11.6901 10
      vertex 3.03493 13.3189 0
    endloop
  endfacet
  facet normal -0.707107 0.707107 0
    outer loop
      vertex 3.03493 13.3189 0
      vertex 1.40611 11.6901 10
      vertex 3.03493 13.3189 10
    endloop
  endfacet
  facet normal -0.891006 0.453991 0
    outer loop
      vertex 0.360346 9.63764 0
      vertex 0.360346 9.63764 10
      vertex 1.40611 11.6901 0
    endloop
  endfacet
  facet normal -0.891006 0.453991 0
    outer loop
      vertex 1.40611 11.6901 0
      vertex 0.360346 9.63764 10
      vertex 1.40611 11.6901 10
    endloop
  endfacet
  facet normal -0.987688 0.156434 0
    outer loop
      vertex 0 7.3625 0
      vertex 0 7.3625 10
      vertex 0.360346 9.63764 0
    endloop
  endfacet
  facet normal -0.987688 0.156434 0
    outer loop
      vertex 0.360346 9.63764 0
      vertex 0 7.3625 10
      vertex 0.360346 9.63764 10
    endloop
  endfacet
  facet normal -0.987688 -0.156434 -0
    outer loop
      vertex 0 7.3625 0
      vertex 0.360346 5.08736 0
      vertex 0 7.3625 10
    endloop
  endfacet
  facet normal -0.987688 -0.156434 0
    outer loop
      vertex 0 7.3625 10
      vertex 0.360346 5.08736 0
      vertex 0.360346 5.08736 10
    endloop
  endfacet
  facet normal -0.891006 -0.453991 -0
    outer loop
      vertex 0.360346 5.08736 0
      vertex 0.914385 4 0
      vertex 0.360346 5.08736 10
    endloop
  endfacet
  facet normal -0.891006 -0.453991 0
    outer loop
      vertex 0.360346 5.08736 10
      vertex 0.914385 4 0
      vertex 0.914385 4 10
    endloop
  endfacet
  facet normal 0.951056 -6.22386e-17 -0.309017
    outer loop
      vertex 15.275 14.5 5
      vertex 15.6044 14.5 6.01393
      vertex 15.6044 10.675 6.01393
    endloop
  endfacet
  facet normal 0.951056 -7.17549e-17 -0.309017
    outer loop
      vertex 15.275 10.675 5
      vertex 15.275 14.5 5
      vertex 15.6044 10.675 6.01393
    endloop
  endfacet
  facet normal 0.951056 7.17549e-17 0.309017
    outer loop
      vertex 15.6044 10.675 3.98607
      vertex 15.6044 14.5 3.98607
      vertex 15.275 14.5 5
    endloop
  endfacet
  facet normal 0.951056 7.17549e-17 0.309017
    outer loop
      vertex 15.275 10.675 5
      vertex 15.6044 10.675 3.98607
      vertex 15.275 14.5 5
    endloop
  endfacet
  facet normal 0.587785 1.87857e-16 0.809017
    outer loop
      vertex 16.4669 10.675 3.35943
      vertex 16.4669 14.5 3.35943
      vertex 15.6044 14.5 3.98607
    endloop
  endfacet
  facet normal 0.587785 1.87857e-16 0.809017
    outer loop
      vertex 15.6044 10.675 3.98607
      vertex 16.4669 10.675 3.35943
      vertex 15.6044 14.5 3.98607
    endloop
  endfacet
  facet normal 0 2.32204e-16 1
    outer loop
      vertex 17.5331 10.675 3.35943
      vertex 17.5331 14.5 3.35943
      vertex 16.4669 14.5 3.35943
    endloop
  endfacet
  facet normal 0 2.32204e-16 1
    outer loop
      vertex 16.4669 10.675 3.35943
      vertex 17.5331 10.675 3.35943
      vertex 16.4669 14.5 3.35943
    endloop
  endfacet
  facet normal -0.587785 1.87857e-16 0.809017
    outer loop
      vertex 18.3956 10.675 3.98607
      vertex 18.3956 14.5 3.98607
      vertex 17.5331 14.5 3.35943
    endloop
  endfacet
  facet normal -0.587785 1.87857e-16 0.809017
    outer loop
      vertex 17.5331 10.675 3.35943
      vertex 18.3956 10.675 3.98607
      vertex 17.5331 14.5 3.35943
    endloop
  endfacet
  facet normal -0.951056 7.17549e-17 0.309017
    outer loop
      vertex 18.725 14.5 5
      vertex 18.3956 14.5 3.98607
      vertex 18.725 10.675 5
    endloop
  endfacet
  facet normal -0.951056 6.22386e-17 0.309017
    outer loop
      vertex 18.725 10.675 5
      vertex 18.3956 14.5 3.98607
      vertex 18.3956 10.675 3.98607
    endloop
  endfacet
  facet normal -0.951056 -7.17549e-17 -0.309017
    outer loop
      vertex 18.725 14.5 5
      vertex 18.725 10.675 5
      vertex 18.3956 14.5 6.01393
    endloop
  endfacet
  facet normal -0.951056 -7.17549e-17 -0.309017
    outer loop
      vertex 18.3956 14.5 6.01393
      vertex 18.725 10.675 5
      vertex 18.3956 10.675 6.01393
    endloop
  endfacet
  facet normal -0.587785 -1.87857e-16 -0.809017
    outer loop
      vertex 18.3956 14.5 6.01393
      vertex 18.3956 10.675 6.01393
      vertex 17.5331 14.5 6.64057
    endloop
  endfacet
  facet normal -0.587785 -1.87857e-16 -0.809017
    outer loop
      vertex 17.5331 14.5 6.64057
      vertex 18.3956 10.675 6.01393
      vertex 17.5331 10.675 6.64057
    endloop
  endfacet
  facet normal 0 -2.32204e-16 -1
    outer loop
      vertex 17.5331 14.5 6.64057
      vertex 17.5331 10.675 6.64057
      vertex 16.4669 14.5 6.64057
    endloop
  endfacet
  facet normal 0 -2.32204e-16 -1
    outer loop
      vertex 16.4669 14.5 6.64057
      vertex 17.5331 10.675 6.64057
      vertex 16.4669 10.675 6.64057
    endloop
  endfacet
  facet normal 0.587785 -1.87857e-16 -0.809017
    outer loop
      vertex 16.4669 14.5 6.64057
      vertex 16.4669 10.675 6.64057
      vertex 15.6044 14.5 6.01393
    endloop
  endfacet
  facet normal 0.587785 -1.87857e-16 -0.809017
    outer loop
      vertex 15.6044 14.5 6.01393
      vertex 16.4669 10.675 6.64057
      vertex 15.6044 10.675 6.01393
    endloop
  endfacet
  facet normal -0.866025 0 0.5
    outer loop
      vertex 11.25 14.725 5
      vertex 14.125 14.725 9.97965
      vertex 11.25 17.5 5
    endloop
  endfacet
  facet normal -0.866025 0 0.5
    outer loop
      vertex 11.25 17.5 5
      vertex 14.125 14.725 9.97965
      vertex 14.125 17.5 9.97965
    endloop
  endfacet
  facet normal -0.866025 -0 -0.5
    outer loop
      vertex 11.25 14.725 5
      vertex 11.25 17.5 5
      vertex 14.125 14.725 0.020354
    endloop
  endfacet
  facet normal -0.866025 -1.10647e-16 -0.5
    outer loop
      vertex 14.125 14.725 0.020354
      vertex 11.25 17.5 5
      vertex 14.125 17.5 0.020354
    endloop
  endfacet
  facet normal 0 -0 1
    outer loop
      vertex 14.125 17.5 9.97965
      vertex 14.125 14.725 9.97965
      vertex 19.875 14.725 9.97965
    endloop
  endfacet
  facet normal 0 0 1
    outer loop
      vertex 19.875 17.5 9.97965
      vertex 14.125 17.5 9.97965
      vertex 19.875 14.725 9.97965
    endloop
  endfacet
  facet normal 0.866025 -0 0.5
    outer loop
      vertex 19.875 17.5 9.97965
      vertex 19.875 14.725 9.97965
      vertex 22.75 14.725 5
    endloop
  endfacet
  facet normal 0.866025 -0 0.5
    outer loop
      vertex 22.75 17.5 5
      vertex 19.875 17.5 9.97965
      vertex 22.75 14.725 5
    endloop
  endfacet
  facet normal 0.866025 -1.72535e-16 -0.5
    outer loop
      vertex 22.75 14.725 5
      vertex 19.875 14.725 0.020354
      vertex 19.875 17.5 0.020354
    endloop
  endfacet
  facet normal 0.866025 0 -0.5
    outer loop
      vertex 22.75 17.5 5
      vertex 22.75 14.725 5
      vertex 19.875 17.5 0.020354
    endloop
  endfacet
  facet normal -0 -2.21294e-16 -1
    outer loop
      vertex 14.125 14.725 0.020354
      vertex 14.125 17.5 0.020354
      vertex 19.875 14.725 0.020354
    endloop
  endfacet
  facet normal 0 -2.21294e-16 -1
    outer loop
      vertex 19.875 14.725 0.020354
      vertex 14.125 17.5 0.020354
      vertex 19.875 17.5 0.020354
    endloop
  endfacet
  facet normal 0 1 -0
    outer loop
      vertex 18.775 14.5 8.07439
      vertex 20.55 14.5 5
      vertex 15.225 14.5 8.07439
    endloop
  endfacet
  facet normal -7.58748e-16 1 -1.39728e-16
    outer loop
      vertex 18.3956 14.5 3.98607
      vertex 20.55 14.5 5
      vertex 18.775 14.5 1.92561
    endloop
  endfacet
  facet normal 0 1 -0
    outer loop
      vertex 16.4669 14.5 3.35943
      vertex 18.775 14.5 1.92561
      vertex 15.225 14.5 1.92561
    endloop
  endfacet
  facet normal 5.00382e-16 1 -2.88896e-16
    outer loop
      vertex 15.225 14.5 8.07439
      vertex 15.225 14.5 1.92561
      vertex 13.45 14.5 5
    endloop
  endfacet
  facet normal 0 1 -0
    outer loop
      vertex 18.3956 14.5 3.98607
      vertex 18.775 14.5 1.92561
      vertex 17.5331 14.5 3.35943
    endloop
  endfacet
  facet normal 0 1 -0
    outer loop
      vertex 15.275 14.5 5
      vertex 15.6044 14.5 3.98607
      vertex 15.225 14.5 1.92561
    endloop
  endfacet
  facet normal 0 1 -0
    outer loop
      vertex 15.6044 14.5 3.98607
      vertex 16.4669 14.5 3.35943
      vertex 15.225 14.5 1.92561
    endloop
  endfacet
  facet normal -9.73346e-16 1 3.1626e-16
    outer loop
      vertex 18.725 14.5 5
      vertex 20.55 14.5 5
      vertex 18.3956 14.5 3.98607
    endloop
  endfacet
  facet normal 0 1 0
    outer loop
      vertex 16.4669 14.5 6.64057
      vertex 15.225 14.5 8.07439
      vertex 17.5331 14.5 6.64057
    endloop
  endfacet
  facet normal -9.73346e-16 1 -2.06821e-15
    outer loop
      vertex 18.3956 14.5 6.01393
      vertex 20.55 14.5 5
      vertex 18.725 14.5 5
    endloop
  endfacet
  facet normal 0 1 0
    outer loop
      vertex 17.5331 14.5 6.64057
      vertex 20.55 14.5 5
      vertex 18.3956 14.5 6.01393
    endloop
  endfacet
  facet normal 0 1 0
    outer loop
      vertex 15.225 14.5 8.07439
      vertex 20.55 14.5 5
      vertex 17.5331 14.5 6.64057
    endloop
  endfacet
  facet normal 0 1 0
    outer loop
      vertex 15.6044 14.5 6.01393
      vertex 15.225 14.5 8.07439
      vertex 16.4669 14.5 6.64057
    endloop
  endfacet
  facet normal -3.44144e-15 1 -6.33761e-16
    outer loop
      vertex 15.275 14.5 5
      vertex 15.225 14.5 8.07439
      vertex 15.6044 14.5 6.01393
    endloop
  endfacet
  facet normal 1.77636e-14 1 -2.88896e-16
    outer loop
      vertex 15.225 14.5 8.07439
      vertex 15.275 14.5 5
      vertex 15.225 14.5 1.92561
    endloop
  endfacet
  facet normal 0 1 -0
    outer loop
      vertex 17.5331 14.5 3.35943
      vertex 18.775 14.5 1.92561
      vertex 16.4669 14.5 3.35943
    endloop
  endfacet
  facet normal 1.00076e-15 1 -5.77792e-16
    outer loop
      vertex 15.225 17.5 1.92561
      vertex 14.125 17.5 0.020354
      vertex 13.45 17.5 5
    endloop
  endfacet
  facet normal 0 1 0
    outer loop
      vertex 15.225 17.5 8.07439
      vertex 14.125 17.5 9.97965
      vertex 19.875 17.5 9.97965
    endloop
  endfacet
  facet normal 0 1 0
    outer loop
      vertex 20.55 17.5 5
      vertex 19.875 17.5 9.97965
      vertex 22.75 17.5 5
    endloop
  endfacet
  facet normal -6.17863e-16 1 -3.56724e-16
    outer loop
      vertex 18.775 17.5 1.92561
      vertex 22.75 17.5 5
      vertex 19.875 17.5 0.020354
    endloop
  endfacet
  facet normal 0 1 0
    outer loop
      vertex 11.25 17.5 5
      vertex 14.125 17.5 9.97965
      vertex 13.45 17.5 5
    endloop
  endfacet
  facet normal 0 1 -7.13447e-16
    outer loop
      vertex 11.25 17.5 5
      vertex 13.45 17.5 5
      vertex 14.125 17.5 0.020354
    endloop
  endfacet
  facet normal 0 1 -1.15558e-15
    outer loop
      vertex 20.55 17.5 5
      vertex 22.75 17.5 5
      vertex 18.775 17.5 1.92561
    endloop
  endfacet
  facet normal 0 1 0
    outer loop
      vertex 14.125 17.5 0.020354
      vertex 18.775 17.5 1.92561
      vertex 19.875 17.5 0.020354
    endloop
  endfacet
  facet normal 0 1 0
    outer loop
      vertex 18.775 17.5 8.07439
      vertex 19.875 17.5 9.97965
      vertex 20.55 17.5 5
    endloop
  endfacet
  facet normal 0 1 0
    outer loop
      vertex 13.45 17.5 5
      vertex 14.125 17.5 9.97965
      vertex 15.225 17.5 8.07439
    endloop
  endfacet
  facet normal 0 1 0
    outer loop
      vertex 18.775 17.5 1.92561
      vertex 14.125 17.5 0.020354
      vertex 15.225 17.5 1.92561
    endloop
  endfacet
  facet normal 0 1 0
    outer loop
      vertex 15.225 17.5 8.07439
      vertex 19.875 17.5 9.97965
      vertex 18.775 17.5 8.07439
    endloop
  endfacet
  facet normal 0 0 -1
    outer loop
      vertex 18.775 17.5 8.07439
      vertex 18.775 14.5 8.07439
      vertex 15.225 17.5 8.07439
    endloop
  endfacet
  facet normal 0 0 -1
    outer loop
      vertex 15.225 17.5 8.07439
      vertex 18.775 14.5 8.07439
      vertex 15.225 14.5 8.07439
    endloop
  endfacet
  facet normal 0.866025 0 -0.5
    outer loop
      vertex 13.45 17.5 5
      vertex 15.225 17.5 8.07439
      vertex 15.225 14.5 8.07439
    endloop
  endfacet
  facet normal 0.866025 -1.4803e-16 -0.5
    outer loop
      vertex 13.45 14.5 5
      vertex 13.45 17.5 5
      vertex 15.225 14.5 8.07439
    endloop
  endfacet
  facet normal 0.866025 1.4803e-16 0.5
    outer loop
      vertex 15.225 14.5 1.92561
      vertex 15.225 17.5 1.92561
      vertex 13.45 17.5 5
    endloop
  endfacet
  facet normal 0.866025 1.4803e-16 0.5
    outer loop
      vertex 13.45 14.5 5
      vertex 15.225 14.5 1.92561
      vertex 13.45 17.5 5
    endloop
  endfacet
  facet normal 0 2.96059e-16 1
    outer loop
      vertex 18.775 14.5 1.92561
      vertex 18.775 17.5 1.92561
      vertex 15.225 17.5 1.92561
    endloop
  endfacet
  facet normal 0 2.96059e-16 1
    outer loop
      vertex 15.225 14.5 1.92561
      vertex 18.775 14.5 1.92561
      vertex 15.225 17.5 1.92561
    endloop
  endfacet
  facet normal -0.866025 1.4803e-16 0.5
    outer loop
      vertex 20.55 17.5 5
      vertex 18.775 17.5 1.92561
      vertex 20.55 14.5 5
    endloop
  endfacet
  facet normal -0.866025 1.97065e-16 0.5
    outer loop
      vertex 20.55 14.5 5
      vertex 18.775 17.5 1.92561
      vertex 18.775 14.5 1.92561
    endloop
  endfacet
  facet normal -0.866025 -1.4803e-16 -0.5
    outer loop
      vertex 20.55 17.5 5
      vertex 20.55 14.5 5
      vertex 18.775 17.5 8.07439
    endloop
  endfacet
  facet normal -0.866025 0 -0.5
    outer loop
      vertex 18.775 17.5 8.07439
      vertex 20.55 14.5 5
      vertex 18.775 14.5 8.07439
    endloop
  endfacet
endsolid OpenSCAD_Model
