solid OpenSCAD_Model
  facet normal 0.866045 0.499966 0.000000
    outer loop
      vertex 52.014000 88.570000 0.000000
      vertex 52.014000 88.570000 12.975000
      vertex 58.000000 78.201000 12.975000
    endloop
  endfacet
  facet normal 0.866045 0.499966 0.000000
    outer loop
      vertex 58.000000 78.201000 0.000000
      vertex 52.014000 88.570000 0.000000
      vertex 58.000000 78.201000 12.975000
    endloop
  endfacet
  facet normal 0.000000 -0.000000 -1.000000
    outer loop
      vertex 27.787498 77.266322 0.000000
      vertex 19.890000 80.413000 0.000000
      vertex 39.723000 91.863000 0.000000
    endloop
  endfacet
  facet normal 0.000000 -0.000000 -1.000000
    outer loop
      vertex 45.269708 83.057909 0.000000
      vertex 39.723000 91.863000 0.000000
      vertex 52.014000 88.570000 0.000000
    endloop
  endfacet
  facet normal -0.000000 0.000000 -1.000000
    outer loop
      vertex 51.132909 80.629292 0.000000
      vertex 52.014000 88.570000 0.000000
      vertex 58.000000 78.201000 0.000000
    endloop
  endfacet
  facet normal 0.000000 0.000000 -1.000000
    outer loop
      vertex 37.261000 56.097000 0.000000
      vertex 58.000000 78.201000 0.000000
      vertex 54.595000 66.104000 0.000000
    endloop
  endfacet
  facet normal 0.000000 0.000000 -1.000000
    outer loop
      vertex 10.500000 20.199000 0.000000
      vertex 15.500000 6.000000 0.000000
      vertex 10.500000 6.000000 0.000000
    endloop
  endfacet
  facet normal 0.000000 0.000000 -1.000000
    outer loop
      vertex 20.500000 19.000000 0.000000
      vertex 27.000000 2.000000 0.000000
      vertex 20.500000 6.000000 0.000000
    endloop
  endfacet
  facet normal -0.000000 0.000000 -1.000000
    outer loop
      vertex 21.871909 29.966292 0.000000
      vertex 32.801000 48.471000 0.000000
      vertex 32.801000 28.180000 0.000000
    endloop
  endfacet
  facet normal -0.000000 0.000000 -1.000000
    outer loop
      vertex 19.443292 24.103091 0.000000
      vertex 32.801000 28.180000 0.000000
      vertex 25.500000 20.879000 0.000000
    endloop
  endfacet
  facet normal -0.000000 0.000000 -1.000000
    outer loop
      vertex 20.500000 19.000000 0.000000
      vertex 25.500000 20.879000 0.000000
      vertex 25.500000 6.000000 0.000000
    endloop
  endfacet
  facet normal 0.000000 0.000000 -1.000000
    outer loop
      vertex 25.500000 6.000000 0.000000
      vertex 27.000000 6.000000 0.000000
      vertex 27.000000 2.000000 0.000000
    endloop
  endfacet
  facet normal 0.000000 0.000000 -1.000000
    outer loop
      vertex 9.000000 6.000000 0.000000
      vertex 27.000000 2.000000 0.000000
      vertex 9.000000 2.000000 0.000000
    endloop
  endfacet
  facet normal 0.000000 0.000000 -1.000000
    outer loop
      vertex 10.500000 6.000000 0.000000
      vertex 27.000000 2.000000 0.000000
      vertex 9.000000 6.000000 0.000000
    endloop
  endfacet
  facet normal 0.000000 0.000000 -1.000000
    outer loop
      vertex 15.500000 6.000000 0.000000
      vertex 27.000000 2.000000 0.000000
      vertex 10.500000 6.000000 0.000000
    endloop
  endfacet
  facet normal -0.000000 0.000000 -1.000000
    outer loop
      vertex 51.132909 77.194708 0.000000
      vertex 58.000000 78.201000 0.000000
      vertex 48.704292 74.766091 0.000000
    endloop
  endfacet
  facet normal -0.000000 0.000000 -1.000000
    outer loop
      vertex 27.787498 77.266322 0.000000
      vertex 42.841091 80.629292 0.000000
      vertex 42.841091 77.194708 0.000000
    endloop
  endfacet
  facet normal 0.000000 0.000000 -1.000000
    outer loop
      vertex 36.710653 61.810964 0.000000
      vertex 48.704292 74.766091 0.000000
      vertex 58.000000 78.201000 0.000000
    endloop
  endfacet
  facet normal 0.000000 0.000000 -1.000000
    outer loop
      vertex 51.132909 80.629292 0.000000
      vertex 58.000000 78.201000 0.000000
      vertex 51.132909 77.194708 0.000000
    endloop
  endfacet
  facet normal -0.000000 0.000000 -1.000000
    outer loop
      vertex 48.704292 83.057909 0.000000
      vertex 52.014000 88.570000 0.000000
      vertex 51.132909 80.629292 0.000000
    endloop
  endfacet
  facet normal -0.000000 0.000000 -1.000000
    outer loop
      vertex 45.269708 83.057909 0.000000
      vertex 52.014000 88.570000 0.000000
      vertex 48.704292 83.057909 0.000000
    endloop
  endfacet
  facet normal 0.000000 -0.000000 -1.000000
    outer loop
      vertex 42.841091 80.629292 0.000000
      vertex 39.723000 91.863000 0.000000
      vertex 45.269708 83.057909 0.000000
    endloop
  endfacet
  facet normal 0.000000 0.000000 -1.000000
    outer loop
      vertex 27.880600 46.005355 0.000000
      vertex 2.649000 28.050000 0.000000
      vertex 9.789400 46.005355 0.000000
    endloop
  endfacet
  facet normal 0.000000 0.000000 -1.000000
    outer loop
      vertex 20.500000 19.000000 0.000000
      vertex 25.500000 6.000000 0.000000
      vertex 27.000000 2.000000 0.000000
    endloop
  endfacet
  facet normal 0.000000 0.000000 -1.000000
    outer loop
      vertex 2.649000 28.050000 0.000000
      vertex 27.880600 46.005355 0.000000
      vertex 32.801000 48.471000 0.000000
    endloop
  endfacet
  facet normal 0.000000 0.000000 -1.000000
    outer loop
      vertex 27.787498 77.266322 0.000000
      vertex 42.841091 77.194708 0.000000
      vertex 45.269708 74.766091 0.000000
    endloop
  endfacet
  facet normal 0.000000 0.000000 -1.000000
    outer loop
      vertex 27.787498 77.266322 0.000000
      vertex 45.269708 74.766091 0.000000
      vertex 36.710653 61.810964 0.000000
    endloop
  endfacet
  facet normal 0.000000 0.000000 -1.000000
    outer loop
      vertex 45.269708 74.766091 0.000000
      vertex 48.704292 74.766091 0.000000
      vertex 36.710653 61.810964 0.000000
    endloop
  endfacet
  facet normal 0.000000 -0.000000 -1.000000
    outer loop
      vertex 20.134000 72.847800 0.000000
      vertex 19.890000 80.413000 0.000000
      vertex 27.787498 77.266322 0.000000
    endloop
  endfacet
  facet normal 0.000000 0.000000 -1.000000
    outer loop
      vertex 9.789400 54.930600 0.000000
      vertex 19.890000 80.413000 0.000000
      vertex 20.134000 72.847800 0.000000
    endloop
  endfacet
  facet normal 0.000000 -0.000000 -1.000000
    outer loop
      vertex 13.580091 29.966292 0.000000
      vertex 2.649000 28.050000 0.000000
      vertex 16.008708 32.394909 0.000000
    endloop
  endfacet
  facet normal 0.000000 0.000000 -1.000000
    outer loop
      vertex 2.649000 50.551000 0.000000
      vertex 19.890000 80.413000 0.000000
      vertex 9.789400 54.930600 0.000000
    endloop
  endfacet
  facet normal -0.000000 0.000000 -1.000000
    outer loop
      vertex 2.649000 50.551000 0.000000
      vertex 9.789400 54.930600 0.000000
      vertex 2.649000 28.050000 0.000000
    endloop
  endfacet
  facet normal 0.000000 0.000000 -1.000000
    outer loop
      vertex 19.443292 24.103091 0.000000
      vertex 25.500000 20.879000 0.000000
      vertex 16.008708 24.103091 0.000000
    endloop
  endfacet
  facet normal 0.000000 0.000000 -1.000000
    outer loop
      vertex 2.649000 28.050000 0.000000
      vertex 13.580091 26.531708 0.000000
      vertex 16.008708 24.103091 0.000000
    endloop
  endfacet
  facet normal 0.000000 0.000000 -1.000000
    outer loop
      vertex 2.649000 28.050000 0.000000
      vertex 16.008708 24.103091 0.000000
      vertex 25.500000 20.879000 0.000000
    endloop
  endfacet
  facet normal -0.000000 0.000000 -1.000000
    outer loop
      vertex 21.871909 26.531708 0.000000
      vertex 32.801000 28.180000 0.000000
      vertex 19.443292 24.103091 0.000000
    endloop
  endfacet
  facet normal 0.000000 0.000000 -1.000000
    outer loop
      vertex 21.871909 29.966292 0.000000
      vertex 32.801000 28.180000 0.000000
      vertex 21.871909 26.531708 0.000000
    endloop
  endfacet
  facet normal -0.000000 0.000000 -1.000000
    outer loop
      vertex 19.443292 32.394909 0.000000
      vertex 32.801000 48.471000 0.000000
      vertex 21.871909 29.966292 0.000000
    endloop
  endfacet
  facet normal -0.000000 0.000000 -1.000000
    outer loop
      vertex 16.008708 32.394909 0.000000
      vertex 32.801000 48.471000 0.000000
      vertex 19.443292 32.394909 0.000000
    endloop
  endfacet
  facet normal 0.000000 0.000000 -1.000000
    outer loop
      vertex 2.649000 28.050000 0.000000
      vertex 32.801000 48.471000 0.000000
      vertex 16.008708 32.394909 0.000000
    endloop
  endfacet
  facet normal 0.000000 0.000000 -1.000000
    outer loop
      vertex 15.500000 6.000000 0.000000
      vertex 10.500000 20.199000 0.000000
      vertex 15.500000 19.000000 0.000000
    endloop
  endfacet
  facet normal -0.000000 -0.000000 -1.000000
    outer loop
      vertex 10.500000 20.199000 0.000000
      vertex 2.649000 28.050000 0.000000
      vertex 15.500000 19.000000 0.000000
    endloop
  endfacet
  facet normal 0.000000 0.000000 -1.000000
    outer loop
      vertex 20.500000 6.000000 0.000000
      vertex 27.000000 2.000000 0.000000
      vertex 15.500000 6.000000 0.000000
    endloop
  endfacet
  facet normal 0.000000 0.000000 -1.000000
    outer loop
      vertex 9.789400 46.005355 0.000000
      vertex 2.649000 28.050000 0.000000
      vertex 9.789400 54.930600 0.000000
    endloop
  endfacet
  facet normal 0.000000 0.000000 -1.000000
    outer loop
      vertex 13.580091 26.531708 0.000000
      vertex 2.649000 28.050000 0.000000
      vertex 13.580091 29.966292 0.000000
    endloop
  endfacet
  facet normal 0.000000 0.000000 -1.000000
    outer loop
      vertex 2.649000 28.050000 0.000000
      vertex 25.500000 20.879000 0.000000
      vertex 20.500000 19.000000 0.000000
    endloop
  endfacet
  facet normal 0.000000 0.000000 -1.000000
    outer loop
      vertex 2.649000 28.050000 0.000000
      vertex 20.500000 19.000000 0.000000
      vertex 15.500000 19.000000 0.000000
    endloop
  endfacet
  facet normal -0.000000 0.000000 -1.000000
    outer loop
      vertex 27.880600 53.682600 0.000000
      vertex 37.261000 56.097000 0.000000
      vertex 27.880600 46.005355 0.000000
    endloop
  endfacet
  facet normal 0.000000 -0.000000 -1.000000
    outer loop
      vertex 32.801000 48.471000 0.000000
      vertex 27.880600 46.005355 0.000000
      vertex 37.261000 56.097000 0.000000
    endloop
  endfacet
  facet normal 0.000000 0.000000 -1.000000
    outer loop
      vertex 27.787498 77.266322 0.000000
      vertex 39.723000 91.863000 0.000000
      vertex 42.841091 80.629292 0.000000
    endloop
  endfacet
  facet normal 0.000000 0.000000 -1.000000
    outer loop
      vertex 27.880600 53.682600 0.000000
      vertex 36.710653 61.810964 0.000000
      vertex 58.000000 78.201000 0.000000
    endloop
  endfacet
  facet normal 0.000000 0.000000 -1.000000
    outer loop
      vertex 27.880600 53.682600 0.000000
      vertex 58.000000 78.201000 0.000000
      vertex 37.261000 56.097000 0.000000
    endloop
  endfacet
  facet normal 0.000000 0.000000 -1.000000
    outer loop
      vertex 36.710653 61.810964 0.000000
      vertex 27.880600 53.682600 0.000000
      vertex 30.556600 58.258200 0.000000
    endloop
  endfacet
  facet normal 0.962595 -0.270946 0.000000
    outer loop
      vertex 54.595000 66.104000 0.000000
      vertex 58.000000 78.201000 0.000000
      vertex 58.000000 78.201000 12.975000
    endloop
  endfacet
  facet normal 0.962595 -0.270946 0.000000
    outer loop
      vertex 54.595000 66.104000 12.975000
      vertex 54.595000 66.104000 0.000000
      vertex 58.000000 78.201000 12.975000
    endloop
  endfacet
  facet normal 0.258792 0.965933 -0.000000
    outer loop
      vertex 39.723000 91.863000 12.975000
      vertex 52.014000 88.570000 12.975000
      vertex 39.723000 91.863000 0.000000
    endloop
  endfacet
  facet normal 0.258792 0.965933 0.000000
    outer loop
      vertex 39.723000 91.863000 0.000000
      vertex 52.014000 88.570000 12.975000
      vertex 52.014000 88.570000 0.000000
    endloop
  endfacet
  facet normal -0.000000 0.000000 1.000000
    outer loop
      vertex 15.500000 6.000000 12.975000
      vertex 10.500000 20.199000 12.975000
      vertex 10.500000 6.000000 12.975000
    endloop
  endfacet
  facet normal 0.000000 0.000000 1.000000
    outer loop
      vertex 16.008708 32.394909 12.975000
      vertex 19.443292 32.394909 12.975000
      vertex 32.801000 48.471000 12.975000
    endloop
  endfacet
  facet normal 0.000000 -0.000000 1.000000
    outer loop
      vertex 9.000000 6.000000 12.975000
      vertex 9.000000 2.000000 12.975000
      vertex 10.500000 6.000000 12.975000
    endloop
  endfacet
  facet normal 0.000000 0.000000 1.000000
    outer loop
      vertex 15.500000 6.000000 12.975000
      vertex 15.500000 19.000000 12.975000
      vertex 10.500000 20.199000 12.975000
    endloop
  endfacet
  facet normal 0.000000 0.000000 1.000000
    outer loop
      vertex 9.000000 2.000000 12.975000
      vertex 27.000000 2.000000 12.975000
      vertex 10.500000 6.000000 12.975000
    endloop
  endfacet
  facet normal 0.000000 -0.000000 1.000000
    outer loop
      vertex 20.500000 19.000000 12.975000
      vertex 20.500000 6.000000 12.975000
      vertex 27.000000 2.000000 12.975000
    endloop
  endfacet
  facet normal 0.000000 0.000000 1.000000
    outer loop
      vertex 27.000000 2.000000 12.975000
      vertex 27.000000 6.000000 12.975000
      vertex 25.500000 6.000000 12.975000
    endloop
  endfacet
  facet normal 0.000000 0.000000 1.000000
    outer loop
      vertex 15.500000 19.000000 12.975000
      vertex 25.500000 20.879000 12.975000
      vertex 2.649000 28.050000 12.975000
    endloop
  endfacet
  facet normal -0.000000 0.000000 1.000000
    outer loop
      vertex 16.008708 32.394909 12.975000
      vertex 32.801000 48.471000 12.975000
      vertex 2.649000 28.050000 12.975000
    endloop
  endfacet
  facet normal -0.000000 0.000000 1.000000
    outer loop
      vertex 54.595000 66.104000 12.975000
      vertex 58.000000 78.201000 12.975000
      vertex 37.261000 56.097000 12.975000
    endloop
  endfacet
  facet normal -0.000000 0.000000 1.000000
    outer loop
      vertex 9.789400 46.005354 12.975000
      vertex 9.789400 54.930600 12.975000
      vertex 2.649000 28.050000 12.975000
    endloop
  endfacet
  facet normal 0.000000 0.000000 1.000000
    outer loop
      vertex 9.789400 54.930600 12.975000
      vertex 20.134000 72.847800 12.975000
      vertex 19.890000 80.413000 12.975000
    endloop
  endfacet
  facet normal 0.000000 0.000000 1.000000
    outer loop
      vertex 9.789400 54.930600 12.975000
      vertex 2.649000 50.551000 12.975000
      vertex 2.649000 28.050000 12.975000
    endloop
  endfacet
  facet normal 0.000000 0.000000 1.000000
    outer loop
      vertex 27.787497 77.266322 12.975000
      vertex 42.841091 80.629292 12.975000
      vertex 39.723000 91.863000 12.975000
    endloop
  endfacet
  facet normal -0.000000 0.000000 1.000000
    outer loop
      vertex 45.269708 83.057909 12.975000
      vertex 39.723000 91.863000 12.975000
      vertex 42.841091 80.629292 12.975000
    endloop
  endfacet
  facet normal -0.000000 0.000000 1.000000
    outer loop
      vertex 52.014000 88.570000 12.975000
      vertex 39.723000 91.863000 12.975000
      vertex 45.269708 83.057909 12.975000
    endloop
  endfacet
  facet normal 0.000000 0.000000 1.000000
    outer loop
      vertex 58.000000 78.201000 12.975000
      vertex 52.014000 88.570000 12.975000
      vertex 48.704292 83.057909 12.975000
    endloop
  endfacet
  facet normal 0.000000 0.000000 1.000000
    outer loop
      vertex 58.000000 78.201000 12.975000
      vertex 48.704292 83.057909 12.975000
      vertex 51.132909 80.629292 12.975000
    endloop
  endfacet
  facet normal 0.000000 0.000000 1.000000
    outer loop
      vertex 27.787497 77.266322 12.975000
      vertex 36.710652 61.810963 12.975000
      vertex 45.269708 74.766091 12.975000
    endloop
  endfacet
  facet normal 0.000000 -0.000000 1.000000
    outer loop
      vertex 45.269708 74.766091 12.975000
      vertex 36.710652 61.810963 12.975000
      vertex 48.704292 74.766091 12.975000
    endloop
  endfacet
  facet normal 0.000000 0.000000 1.000000
    outer loop
      vertex 27.787497 77.266322 12.975000
      vertex 42.841091 77.194708 12.975000
      vertex 42.841091 80.629292 12.975000
    endloop
  endfacet
  facet normal 0.000000 0.000000 1.000000
    outer loop
      vertex 36.710652 61.810963 12.975000
      vertex 30.556600 58.258200 12.975000
      vertex 27.880600 53.682600 12.975000
    endloop
  endfacet
  facet normal 0.000000 0.000000 1.000000
    outer loop
      vertex 19.890000 80.413000 12.975000
      vertex 2.649000 50.551000 12.975000
      vertex 9.789400 54.930600 12.975000
    endloop
  endfacet
  facet normal 0.000000 0.000000 1.000000
    outer loop
      vertex 39.723000 91.863000 12.975000
      vertex 19.890000 80.413000 12.975000
      vertex 20.134000 72.847800 12.975000
    endloop
  endfacet
  facet normal 0.000000 0.000000 1.000000
    outer loop
      vertex 39.723000 91.863000 12.975000
      vertex 20.134000 72.847800 12.975000
      vertex 27.787497 77.266322 12.975000
    endloop
  endfacet
  facet normal 0.000000 0.000000 1.000000
    outer loop
      vertex 58.000000 78.201000 12.975000
      vertex 51.132909 77.194708 12.975000
      vertex 36.710652 61.810963 12.975000
    endloop
  endfacet
  facet normal 0.000000 0.000000 1.000000
    outer loop
      vertex 27.787497 77.266322 12.975000
      vertex 45.269708 74.766091 12.975000
      vertex 42.841091 77.194708 12.975000
    endloop
  endfacet
  facet normal 0.000000 0.000000 1.000000
    outer loop
      vertex 10.500000 20.199000 12.975000
      vertex 15.500000 19.000000 12.975000
      vertex 2.649000 28.050000 12.975000
    endloop
  endfacet
  facet normal 0.000000 -0.000000 1.000000
    outer loop
      vertex 48.704292 74.766091 12.975000
      vertex 36.710652 61.810963 12.975000
      vertex 51.132909 77.194708 12.975000
    endloop
  endfacet
  facet normal 0.000000 -0.000000 1.000000
    outer loop
      vertex 21.871909 29.966292 12.975000
      vertex 21.871909 26.531708 12.975000
      vertex 32.801000 28.180000 12.975000
    endloop
  endfacet
  facet normal 0.000000 0.000000 1.000000
    outer loop
      vertex 32.801000 48.471000 12.975000
      vertex 27.880600 46.005354 12.975000
      vertex 2.649000 28.050000 12.975000
    endloop
  endfacet
  facet normal -0.000000 0.000000 1.000000
    outer loop
      vertex 32.801000 48.471000 12.975000
      vertex 37.261000 56.097000 12.975000
      vertex 27.880600 46.005354 12.975000
    endloop
  endfacet
  facet normal 0.000000 0.000000 1.000000
    outer loop
      vertex 16.008708 24.103091 12.975000
      vertex 13.580091 26.531708 12.975000
      vertex 2.649000 28.050000 12.975000
    endloop
  endfacet
  facet normal -0.000000 0.000000 1.000000
    outer loop
      vertex 13.580091 29.966292 12.975000
      vertex 16.008708 32.394909 12.975000
      vertex 2.649000 28.050000 12.975000
    endloop
  endfacet
  facet normal 0.000000 0.000000 1.000000
    outer loop
      vertex 32.801000 28.180000 12.975000
      vertex 32.801000 48.471000 12.975000
      vertex 19.443292 32.394909 12.975000
    endloop
  endfacet
  facet normal 0.000000 0.000000 1.000000
    outer loop
      vertex 32.801000 28.180000 12.975000
      vertex 19.443292 32.394909 12.975000
      vertex 21.871909 29.966292 12.975000
    endloop
  endfacet
  facet normal 0.000000 0.000000 1.000000
    outer loop
      vertex 25.500000 20.879000 12.975000
      vertex 32.801000 28.180000 12.975000
      vertex 21.871909 26.531708 12.975000
    endloop
  endfacet
  facet normal 0.000000 0.000000 1.000000
    outer loop
      vertex 25.500000 20.879000 12.975000
      vertex 21.871909 26.531708 12.975000
      vertex 19.443292 24.103091 12.975000
    endloop
  endfacet
  facet normal 0.000000 0.000000 1.000000
    outer loop
      vertex 25.500000 20.879000 12.975000
      vertex 16.008708 24.103091 12.975000
      vertex 2.649000 28.050000 12.975000
    endloop
  endfacet
  facet normal 0.000000 0.000000 1.000000
    outer loop
      vertex 27.000000 2.000000 12.975000
      vertex 15.500000 6.000000 12.975000
      vertex 10.500000 6.000000 12.975000
    endloop
  endfacet
  facet normal 0.000000 0.000000 1.000000
    outer loop
      vertex 45.269708 83.057909 12.975000
      vertex 48.704292 83.057909 12.975000
      vertex 52.014000 88.570000 12.975000
    endloop
  endfacet
  facet normal -0.000000 0.000000 1.000000
    outer loop
      vertex 20.500000 19.000000 12.975000
      vertex 25.500000 20.879000 12.975000
      vertex 15.500000 19.000000 12.975000
    endloop
  endfacet
  facet normal 0.000000 -0.000000 1.000000
    outer loop
      vertex 51.132909 80.629292 12.975000
      vertex 51.132909 77.194708 12.975000
      vertex 58.000000 78.201000 12.975000
    endloop
  endfacet
  facet normal 0.000000 0.000000 1.000000
    outer loop
      vertex 27.000000 2.000000 12.975000
      vertex 20.500000 6.000000 12.975000
      vertex 15.500000 6.000000 12.975000
    endloop
  endfacet
  facet normal 0.000000 0.000000 1.000000
    outer loop
      vertex 20.500000 19.000000 12.975000
      vertex 27.000000 2.000000 12.975000
      vertex 25.500000 6.000000 12.975000
    endloop
  endfacet
  facet normal 0.000000 0.000000 1.000000
    outer loop
      vertex 25.500000 6.000000 12.975000
      vertex 25.500000 20.879000 12.975000
      vertex 20.500000 19.000000 12.975000
    endloop
  endfacet
  facet normal 0.000000 -0.000000 1.000000
    outer loop
      vertex 27.880600 53.682600 12.975000
      vertex 27.880600 46.005354 12.975000
      vertex 37.261000 56.097000 12.975000
    endloop
  endfacet
  facet normal 0.000000 0.000000 1.000000
    outer loop
      vertex 27.880600 53.682600 12.975000
      vertex 58.000000 78.201000 12.975000
      vertex 36.710652 61.810963 12.975000
    endloop
  endfacet
  facet normal 0.000000 0.000000 1.000000
    outer loop
      vertex 27.880600 53.682600 12.975000
      vertex 37.261000 56.097000 12.975000
      vertex 58.000000 78.201000 12.975000
    endloop
  endfacet
  facet normal 0.000000 0.000000 1.000000
    outer loop
      vertex 13.580091 26.531708 12.975000
      vertex 13.580091 29.966292 12.975000
      vertex 2.649000 28.050000 12.975000
    endloop
  endfacet
  facet normal 0.000000 -0.000000 1.000000
    outer loop
      vertex 19.443292 24.103091 12.975000
      vertex 16.008708 24.103091 12.975000
      vertex 25.500000 20.879000 12.975000
    endloop
  endfacet
  facet normal 0.000000 0.000000 1.000000
    outer loop
      vertex 27.880600 46.005354 12.975000
      vertex 9.789400 46.005354 12.975000
      vertex 2.649000 28.050000 12.975000
    endloop
  endfacet
  facet normal -0.707107 -0.707107 0.000000
    outer loop
      vertex 2.649000 28.050000 0.000000
      vertex 10.500000 20.199000 0.000000
      vertex 10.500000 20.199000 12.975000
    endloop
  endfacet
  facet normal -0.707107 -0.707107 0.000000
    outer loop
      vertex 2.649000 28.050000 12.975000
      vertex 2.649000 28.050000 0.000000
      vertex 10.500000 20.199000 12.975000
    endloop
  endfacet
  facet normal -1.000000 -0.000000 0.000000
    outer loop
      vertex 2.649000 43.173141 3.314358
      vertex 2.649000 50.551000 12.975000
      vertex 2.649000 50.551000 0.000000
    endloop
  endfacet
  facet normal -1.000000 0.000000 0.000000
    outer loop
      vertex 2.649000 28.050000 12.975000
      vertex 2.649000 35.512500 6.487500
      vertex 2.649000 28.050000 0.000000
    endloop
  endfacet
  facet normal -1.000000 0.000000 0.000000
    outer loop
      vertex 2.649000 43.173141 3.314358
      vertex 2.649000 50.551000 0.000000
      vertex 2.649000 40.000000 2.000000
    endloop
  endfacet
  facet normal -1.000000 0.000000 0.000000
    outer loop
      vertex 2.649000 28.050000 0.000000
      vertex 2.649000 36.826858 3.314359
      vertex 2.649000 40.000000 2.000000
    endloop
  endfacet
  facet normal -1.000000 -0.000000 0.000000
    outer loop
      vertex 2.649000 28.050000 0.000000
      vertex 2.649000 40.000000 2.000000
      vertex 2.649000 50.551000 0.000000
    endloop
  endfacet
  facet normal -1.000000 -0.000000 0.000000
    outer loop
      vertex 2.649000 44.487500 6.487500
      vertex 2.649000 50.551000 12.975000
      vertex 2.649000 43.173141 3.314358
    endloop
  endfacet
  facet normal -1.000000 -0.000000 0.000000
    outer loop
      vertex 2.649000 43.173142 9.660641
      vertex 2.649000 50.551000 12.975000
      vertex 2.649000 44.487500 6.487500
    endloop
  endfacet
  facet normal -1.000000 0.000000 0.000000
    outer loop
      vertex 2.649000 28.050000 12.975000
      vertex 2.649000 50.551000 12.975000
      vertex 2.649000 40.000000 10.975000
    endloop
  endfacet
  facet normal -1.000000 0.000000 0.000000
    outer loop
      vertex 2.649000 28.050000 12.975000
      vertex 2.649000 40.000000 10.975000
      vertex 2.649000 36.826859 9.660642
    endloop
  endfacet
  facet normal -1.000000 0.000000 0.000000
    outer loop
      vertex 2.649000 28.050000 12.975000
      vertex 2.649000 36.826859 9.660642
      vertex 2.649000 35.512500 6.487500
    endloop
  endfacet
  facet normal -1.000000 0.000000 0.000000
    outer loop
      vertex 2.649000 36.826858 3.314359
      vertex 2.649000 28.050000 0.000000
      vertex 2.649000 35.512500 6.487500
    endloop
  endfacet
  facet normal -1.000000 -0.000000 0.000000
    outer loop
      vertex 2.649000 40.000000 10.975000
      vertex 2.649000 50.551000 12.975000
      vertex 2.649000 43.173142 9.660641
    endloop
  endfacet
  facet normal -1.000000 0.000000 0.000000
    outer loop
      vertex 10.500000 6.000000 12.975000
      vertex 10.500000 20.199000 12.975000
      vertex 10.500000 6.000000 0.000000
    endloop
  endfacet
  facet normal -1.000000 -0.000000 0.000000
    outer loop
      vertex 10.500000 6.000000 0.000000
      vertex 10.500000 20.199000 12.975000
      vertex 10.500000 20.199000 0.000000
    endloop
  endfacet
  facet normal 0.000000 1.000000 -0.000000
    outer loop
      vertex 9.000000 6.000000 12.975000
      vertex 10.500000 6.000000 12.975000
      vertex 9.000000 6.000000 0.000000
    endloop
  endfacet
  facet normal 0.000000 1.000000 0.000000
    outer loop
      vertex 9.000000 6.000000 0.000000
      vertex 10.500000 6.000000 12.975000
      vertex 10.500000 6.000000 0.000000
    endloop
  endfacet
  facet normal -1.000000 0.000000 0.000000
    outer loop
      vertex 9.000000 2.000000 12.975000
      vertex 9.000000 6.000000 12.975000
      vertex 9.000000 2.000000 0.000000
    endloop
  endfacet
  facet normal -1.000000 -0.000000 0.000000
    outer loop
      vertex 9.000000 2.000000 0.000000
      vertex 9.000000 6.000000 12.975000
      vertex 9.000000 6.000000 0.000000
    endloop
  endfacet
  facet normal -0.000000 -1.000000 0.000000
    outer loop
      vertex 9.000000 2.000000 0.000000
      vertex 27.000000 2.000000 0.000000
      vertex 27.000000 2.000000 12.975000
    endloop
  endfacet
  facet normal 0.000000 -1.000000 0.000000
    outer loop
      vertex 9.000000 2.000000 12.975000
      vertex 9.000000 2.000000 0.000000
      vertex 27.000000 2.000000 12.975000
    endloop
  endfacet
  facet normal 1.000000 0.000000 0.000000
    outer loop
      vertex 27.000000 2.000000 0.000000
      vertex 27.000000 6.000000 0.000000
      vertex 27.000000 6.000000 12.975000
    endloop
  endfacet
  facet normal 1.000000 0.000000 -0.000000
    outer loop
      vertex 27.000000 2.000000 12.975000
      vertex 27.000000 2.000000 0.000000
      vertex 27.000000 6.000000 12.975000
    endloop
  endfacet
  facet normal 0.000000 1.000000 -0.000000
    outer loop
      vertex 25.500000 6.000000 12.975000
      vertex 27.000000 6.000000 12.975000
      vertex 25.500000 6.000000 0.000000
    endloop
  endfacet
  facet normal 0.000000 1.000000 0.000000
    outer loop
      vertex 25.500000 6.000000 0.000000
      vertex 27.000000 6.000000 12.975000
      vertex 27.000000 6.000000 0.000000
    endloop
  endfacet
  facet normal 1.000000 0.000000 0.000000
    outer loop
      vertex 25.500000 6.000000 0.000000
      vertex 25.500000 20.879000 0.000000
      vertex 25.500000 20.879000 12.975000
    endloop
  endfacet
  facet normal 1.000000 0.000000 -0.000000
    outer loop
      vertex 25.500000 6.000000 12.975000
      vertex 25.500000 6.000000 0.000000
      vertex 25.500000 20.879000 12.975000
    endloop
  endfacet
  facet normal 0.707107 -0.707107 0.000000
    outer loop
      vertex 25.500000 20.879000 0.000000
      vertex 32.801000 28.180000 0.000000
      vertex 32.801000 28.180000 12.975000
    endloop
  endfacet
  facet normal 0.707107 -0.707107 0.000000
    outer loop
      vertex 25.500000 20.879000 12.975000
      vertex 25.500000 20.879000 0.000000
      vertex 32.801000 28.180000 12.975000
    endloop
  endfacet
  facet normal 1.000000 0.000000 0.000000
    outer loop
      vertex 32.801000 44.487500 6.487500
      vertex 32.801000 48.471000 0.000000
      vertex 32.801000 48.471000 12.975000
    endloop
  endfacet
  facet normal 1.000000 -0.000000 0.000000
    outer loop
      vertex 32.801000 40.000000 2.000000
      vertex 32.801000 36.826858 3.314359
      vertex 32.801000 28.180000 0.000000
    endloop
  endfacet
  facet normal 1.000000 0.000000 -0.000000
    outer loop
      vertex 32.801000 28.180000 12.975000
      vertex 32.801000 28.180000 0.000000
      vertex 32.801000 35.512500 6.487500
    endloop
  endfacet
  facet normal 1.000000 0.000000 0.000000
    outer loop
      vertex 32.801000 28.180000 12.975000
      vertex 32.801000 35.512500 6.487500
      vertex 32.801000 36.826859 9.660642
    endloop
  endfacet
  facet normal 1.000000 0.000000 0.000000
    outer loop
      vertex 32.801000 28.180000 12.975000
      vertex 32.801000 40.000000 10.975000
      vertex 32.801000 48.471000 12.975000
    endloop
  endfacet
  facet normal 1.000000 0.000000 0.000000
    outer loop
      vertex 32.801000 28.180000 12.975000
      vertex 32.801000 36.826859 9.660642
      vertex 32.801000 40.000000 10.975000
    endloop
  endfacet
  facet normal 1.000000 0.000000 0.000000
    outer loop
      vertex 32.801000 40.000000 10.975000
      vertex 32.801000 43.173142 9.660641
      vertex 32.801000 48.471000 12.975000
    endloop
  endfacet
  facet normal 1.000000 0.000000 0.000000
    outer loop
      vertex 32.801000 43.173141 3.314358
      vertex 32.801000 48.471000 0.000000
      vertex 32.801000 44.487500 6.487500
    endloop
  endfacet
  facet normal 1.000000 0.000000 0.000000
    outer loop
      vertex 32.801000 40.000000 2.000000
      vertex 32.801000 48.471000 0.000000
      vertex 32.801000 43.173141 3.314358
    endloop
  endfacet
  facet normal 1.000000 0.000000 0.000000
    outer loop
      vertex 32.801000 28.180000 0.000000
      vertex 32.801000 48.471000 0.000000
      vertex 32.801000 40.000000 2.000000
    endloop
  endfacet
  facet normal 1.000000 0.000000 0.000000
    outer loop
      vertex 32.801000 43.173142 9.660641
      vertex 32.801000 44.487500 6.487500
      vertex 32.801000 48.471000 12.975000
    endloop
  endfacet
  facet normal 1.000000 -0.000000 0.000000
    outer loop
      vertex 32.801000 36.826858 3.314359
      vertex 32.801000 35.512500 6.487500
      vertex 32.801000 28.180000 0.000000
    endloop
  endfacet
  facet normal 0.863212 -0.504842 0.000000
    outer loop
      vertex 32.801000 48.471000 0.000000
      vertex 37.261000 56.097000 0.000000
      vertex 37.261000 56.097000 12.975000
    endloop
  endfacet
  facet normal 0.863212 -0.504842 0.000000
    outer loop
      vertex 32.801000 48.471000 12.975000
      vertex 32.801000 48.471000 0.000000
      vertex 37.261000 56.097000 12.975000
    endloop
  endfacet
  facet normal 0.499970 -0.866042 0.000000
    outer loop
      vertex 48.130882 62.372234 6.487500
      vertex 54.595000 66.104000 0.000000
      vertex 54.595000 66.104000 12.975000
    endloop
  endfacet
  facet normal 0.499970 -0.866042 0.000000
    outer loop
      vertex 37.261000 56.097000 12.975000
      vertex 37.261000 56.097000 0.000000
      vertex 40.358151 57.885000 6.487500
    endloop
  endfacet
  facet normal 0.499970 -0.866042 -0.000000
    outer loop
      vertex 37.261000 56.097000 12.975000
      vertex 40.358151 57.885000 6.487500
      vertex 41.496441 58.542140 9.660642
    endloop
  endfacet
  facet normal 0.499970 -0.866042 0.000000
    outer loop
      vertex 37.261000 56.097000 12.975000
      vertex 44.244516 60.128617 10.975000
      vertex 54.595000 66.104000 12.975000
    endloop
  endfacet
  facet normal 0.499970 -0.866042 0.000000
    outer loop
      vertex 37.261000 56.097000 12.975000
      vertex 41.496441 58.542140 9.660642
      vertex 44.244516 60.128617 10.975000
    endloop
  endfacet
  facet normal 0.499970 -0.866042 0.000000
    outer loop
      vertex 46.992592 61.715094 3.314358
      vertex 54.595000 66.104000 0.000000
      vertex 48.130882 62.372234 6.487500
    endloop
  endfacet
  facet normal 0.499970 -0.866042 -0.000000
    outer loop
      vertex 44.244517 60.128617 2.000000
      vertex 54.595000 66.104000 0.000000
      vertex 46.992592 61.715094 3.314358
    endloop
  endfacet
  facet normal 0.499970 -0.866042 -0.000000
    outer loop
      vertex 37.261000 56.097000 0.000000
      vertex 54.595000 66.104000 0.000000
      vertex 44.244517 60.128617 2.000000
    endloop
  endfacet
  facet normal 0.499970 -0.866042 -0.000000
    outer loop
      vertex 44.244517 60.128617 2.000000
      vertex 41.496441 58.542140 3.314359
      vertex 37.261000 56.097000 0.000000
    endloop
  endfacet
  facet normal 0.499970 -0.866042 0.000000
    outer loop
      vertex 40.358151 57.885000 6.487500
      vertex 37.261000 56.097000 0.000000
      vertex 41.496441 58.542140 3.314359
    endloop
  endfacet
  facet normal 0.499970 -0.866042 0.000000
    outer loop
      vertex 44.244516 60.128617 10.975000
      vertex 46.992592 61.715094 9.660641
      vertex 54.595000 66.104000 12.975000
    endloop
  endfacet
  facet normal 0.499970 -0.866042 -0.000000
    outer loop
      vertex 46.992592 61.715094 9.660641
      vertex 48.130882 62.372234 6.487500
      vertex 54.595000 66.104000 12.975000
    endloop
  endfacet
  facet normal -0.499981 0.866037 0.000000
    outer loop
      vertex 32.120670 87.474018 3.314358
      vertex 39.723000 91.863000 12.975000
      vertex 39.723000 91.863000 0.000000
    endloop
  endfacet
  facet normal -0.499981 0.866037 0.000000
    outer loop
      vertex 26.624557 84.300999 9.660642
      vertex 19.890000 80.413000 12.975000
      vertex 29.372613 85.887508 10.975000
    endloop
  endfacet
  facet normal -0.499981 0.866037 0.000000
    outer loop
      vertex 19.890000 80.413000 12.975000
      vertex 25.486275 83.643845 6.487500
      vertex 19.890000 80.413000 0.000000
    endloop
  endfacet
  facet normal -0.499981 0.866037 0.000000
    outer loop
      vertex 32.120670 87.474018 3.314358
      vertex 39.723000 91.863000 0.000000
      vertex 29.372614 85.887509 2.000000
    endloop
  endfacet
  facet normal -0.499981 0.866037 -0.000000
    outer loop
      vertex 19.890000 80.413000 0.000000
      vertex 26.624557 84.300999 3.314359
      vertex 29.372614 85.887509 2.000000
    endloop
  endfacet
  facet normal -0.499981 0.866037 0.000000
    outer loop
      vertex 19.890000 80.413000 0.000000
      vertex 29.372614 85.887509 2.000000
      vertex 39.723000 91.863000 0.000000
    endloop
  endfacet
  facet normal -0.499981 0.866037 -0.000000
    outer loop
      vertex 33.258952 88.131172 6.487500
      vertex 39.723000 91.863000 12.975000
      vertex 32.120670 87.474018 3.314358
    endloop
  endfacet
  facet normal -0.499981 0.866037 -0.000000
    outer loop
      vertex 32.120670 87.474018 9.660641
      vertex 39.723000 91.863000 12.975000
      vertex 33.258952 88.131172 6.487500
    endloop
  endfacet
  facet normal -0.499981 0.866037 0.000000
    outer loop
      vertex 29.372613 85.887508 10.975000
      vertex 39.723000 91.863000 12.975000
      vertex 32.120670 87.474018 9.660641
    endloop
  endfacet
  facet normal -0.499981 0.866037 -0.000000
    outer loop
      vertex 19.890000 80.413000 12.975000
      vertex 39.723000 91.863000 12.975000
      vertex 29.372613 85.887508 10.975000
    endloop
  endfacet
  facet normal -0.499981 0.866037 -0.000000
    outer loop
      vertex 19.890000 80.413000 12.975000
      vertex 26.624557 84.300999 9.660642
      vertex 25.486275 83.643845 6.487500
    endloop
  endfacet
  facet normal -0.499981 0.866037 0.000000
    outer loop
      vertex 26.624557 84.300999 3.314359
      vertex 19.890000 80.413000 0.000000
      vertex 25.486275 83.643845 6.487500
    endloop
  endfacet
  facet normal -0.866023 0.500004 0.000000
    outer loop
      vertex 2.649000 50.551000 12.975000
      vertex 19.890000 80.413000 12.975000
      vertex 2.649000 50.551000 0.000000
    endloop
  endfacet
  facet normal -0.866023 0.500004 0.000000
    outer loop
      vertex 2.649000 50.551000 0.000000
      vertex 19.890000 80.413000 12.975000
      vertex 19.890000 80.413000 0.000000
    endloop
  endfacet
  facet normal 1.000000 0.000000 0.000000
    outer loop
      vertex 42.841091 77.194708 0.000000
      vertex 42.841091 80.629292 0.000000
      vertex 42.841091 80.629292 12.975000
    endloop
  endfacet
  facet normal 1.000000 0.000000 -0.000000
    outer loop
      vertex 42.841091 77.194708 12.975000
      vertex 42.841091 77.194708 0.000000
      vertex 42.841091 80.629292 12.975000
    endloop
  endfacet
  facet normal 0.707107 0.707107 -0.000000
    outer loop
      vertex 42.841091 77.194708 12.975000
      vertex 45.269708 74.766091 12.975000
      vertex 42.841091 77.194708 0.000000
    endloop
  endfacet
  facet normal 0.707107 0.707107 0.000000
    outer loop
      vertex 42.841091 77.194708 0.000000
      vertex 45.269708 74.766091 12.975000
      vertex 45.269708 74.766091 0.000000
    endloop
  endfacet
  facet normal 0.707107 -0.707107 0.000000
    outer loop
      vertex 42.841091 80.629292 0.000000
      vertex 45.269708 83.057909 0.000000
      vertex 45.269708 83.057909 12.975000
    endloop
  endfacet
  facet normal 0.707107 -0.707107 0.000000
    outer loop
      vertex 42.841091 80.629292 12.975000
      vertex 42.841091 80.629292 0.000000
      vertex 45.269708 83.057909 12.975000
    endloop
  endfacet
  facet normal -0.000000 -1.000000 0.000000
    outer loop
      vertex 45.269708 83.057909 0.000000
      vertex 48.704292 83.057909 0.000000
      vertex 48.704292 83.057909 12.975000
    endloop
  endfacet
  facet normal 0.000000 -1.000000 0.000000
    outer loop
      vertex 45.269708 83.057909 12.975000
      vertex 45.269708 83.057909 0.000000
      vertex 48.704292 83.057909 12.975000
    endloop
  endfacet
  facet normal -0.707107 -0.707107 0.000000
    outer loop
      vertex 48.704292 83.057909 0.000000
      vertex 51.132909 80.629292 0.000000
      vertex 51.132909 80.629292 12.975000
    endloop
  endfacet
  facet normal -0.707107 -0.707107 0.000000
    outer loop
      vertex 48.704292 83.057909 12.975000
      vertex 48.704292 83.057909 0.000000
      vertex 51.132909 80.629292 12.975000
    endloop
  endfacet
  facet normal -1.000000 0.000000 0.000000
    outer loop
      vertex 51.132909 77.194708 12.975000
      vertex 51.132909 80.629292 12.975000
      vertex 51.132909 77.194708 0.000000
    endloop
  endfacet
  facet normal -1.000000 -0.000000 0.000000
    outer loop
      vertex 51.132909 77.194708 0.000000
      vertex 51.132909 80.629292 12.975000
      vertex 51.132909 80.629292 0.000000
    endloop
  endfacet
  facet normal -0.707107 0.707107 0.000000
    outer loop
      vertex 48.704292 74.766091 12.975000
      vertex 51.132909 77.194708 12.975000
      vertex 48.704292 74.766091 0.000000
    endloop
  endfacet
  facet normal -0.707107 0.707107 0.000000
    outer loop
      vertex 48.704292 74.766091 0.000000
      vertex 51.132909 77.194708 12.975000
      vertex 51.132909 77.194708 0.000000
    endloop
  endfacet
  facet normal 0.000000 1.000000 -0.000000
    outer loop
      vertex 45.269708 74.766091 12.975000
      vertex 48.704292 74.766091 12.975000
      vertex 45.269708 74.766091 0.000000
    endloop
  endfacet
  facet normal 0.000000 1.000000 0.000000
    outer loop
      vertex 45.269708 74.766091 0.000000
      vertex 48.704292 74.766091 12.975000
      vertex 48.704292 74.766091 0.000000
    endloop
  endfacet
  facet normal 0.000000 0.382683 -0.923880
    outer loop
      vertex 9.789400 46.346283 0.141217
      vertex 27.880600 46.346283 0.141217
      vertex 9.789400 46.005355 0.000000
    endloop
  endfacet
  facet normal 0.000000 0.382683 -0.923880
    outer loop
      vertex 9.789400 46.005355 0.000000
      vertex 27.880600 46.346283 0.141217
      vertex 27.880600 46.005355 0.000000
    endloop
  endfacet
  facet normal 1.000000 0.000000 0.000000
    outer loop
      vertex 9.789400 54.930600 0.000000
      vertex 9.789400 46.346283 12.833783
      vertex 9.789400 48.974999 6.487500
    endloop
  endfacet
  facet normal 1.000000 0.000000 0.000000
    outer loop
      vertex 9.789400 46.346283 0.141217
      vertex 9.789400 54.930600 0.000000
      vertex 9.789400 48.974999 6.487500
    endloop
  endfacet
  facet normal 1.000000 0.000000 0.000000
    outer loop
      vertex 9.789400 46.005354 12.975000
      vertex 9.789400 46.346283 12.833783
      vertex 9.789400 54.930600 12.975000
    endloop
  endfacet
  facet normal 1.000000 0.000000 0.000000
    outer loop
      vertex 9.789400 46.005355 0.000000
      vertex 9.789400 54.930600 0.000000
      vertex 9.789400 46.346283 0.141217
    endloop
  endfacet
  facet normal 1.000000 0.000000 0.000000
    outer loop
      vertex 9.789400 54.930600 0.000000
      vertex 9.789400 54.930600 12.975000
      vertex 9.789400 46.346283 12.833783
    endloop
  endfacet
  facet normal 0.866023 -0.500004 0.000000
    outer loop
      vertex 9.789400 54.930600 0.000000
      vertex 20.134000 72.847800 0.000000
      vertex 20.134000 72.847800 12.975000
    endloop
  endfacet
  facet normal 0.866023 -0.500004 0.000000
    outer loop
      vertex 9.789400 54.930600 12.975000
      vertex 9.789400 54.930600 0.000000
      vertex 20.134000 72.847800 12.975000
    endloop
  endfacet
  facet normal 0.499981 -0.866037 0.000000
    outer loop
      vertex 27.492241 77.095864 12.833783
      vertex 20.134000 72.847800 12.975000
      vertex 20.134000 72.847800 0.000000
    endloop
  endfacet
  facet normal 0.499981 -0.866037 0.000000
    outer loop
      vertex 20.134000 72.847800 0.000000
      vertex 27.787498 77.266322 0.000000
      vertex 27.492241 77.095864 0.141217
    endloop
  endfacet
  facet normal 0.499981 -0.866037 0.000000
    outer loop
      vertex 25.215676 75.781557 6.487500
      vertex 20.134000 72.847800 0.000000
      vertex 27.492241 77.095864 0.141217
    endloop
  endfacet
  facet normal 0.499981 -0.866037 -0.000000
    outer loop
      vertex 25.215676 75.781557 6.487500
      vertex 27.492241 77.095864 12.833783
      vertex 20.134000 72.847800 0.000000
    endloop
  endfacet
  facet normal 0.499981 -0.866037 -0.000000
    outer loop
      vertex 27.787497 77.266322 12.975000
      vertex 20.134000 72.847800 12.975000
      vertex 27.492241 77.095864 12.833783
    endloop
  endfacet
  facet normal -0.331414 -0.191342 -0.923880
    outer loop
      vertex 27.787498 77.266322 0.000000
      vertex 36.710653 61.810964 0.000000
      vertex 27.492241 77.095864 0.141217
    endloop
  endfacet
  facet normal -0.331414 -0.191342 -0.923880
    outer loop
      vertex 27.492241 77.095864 0.141217
      vertex 36.710653 61.810964 0.000000
      vertex 36.415394 61.640509 0.141217
    endloop
  endfacet
  facet normal -0.499970 0.866042 0.000000
    outer loop
      vertex 30.556600 58.258200 12.975000
      vertex 36.415394 61.640510 12.833783
      vertex 30.556600 58.258200 0.000000
    endloop
  endfacet
  facet normal -0.499970 0.866042 0.000000
    outer loop
      vertex 30.556600 58.258200 12.975000
      vertex 36.710652 61.810963 12.975000
      vertex 36.415394 61.640510 12.833783
    endloop
  endfacet
  facet normal -0.499970 0.866042 -0.000000
    outer loop
      vertex 30.556600 58.258200 0.000000
      vertex 34.138814 60.326229 6.487500
      vertex 36.415394 61.640509 0.141217
    endloop
  endfacet
  facet normal -0.499970 0.866042 0.000000
    outer loop
      vertex 36.415394 61.640509 0.141217
      vertex 36.710653 61.810964 0.000000
      vertex 30.556600 58.258200 0.000000
    endloop
  endfacet
  facet normal -0.499970 0.866042 0.000000
    outer loop
      vertex 34.138814 60.326229 6.487500
      vertex 30.556600 58.258200 0.000000
      vertex 36.415394 61.640510 12.833783
    endloop
  endfacet
  facet normal -0.863212 0.504842 0.000000
    outer loop
      vertex 27.880600 53.682600 12.975000
      vertex 30.556600 58.258200 12.975000
      vertex 27.880600 53.682600 0.000000
    endloop
  endfacet
  facet normal -0.863212 0.504842 0.000000
    outer loop
      vertex 27.880600 53.682600 0.000000
      vertex 30.556600 58.258200 12.975000
      vertex 30.556600 58.258200 0.000000
    endloop
  endfacet
  facet normal -1.000000 0.000000 0.000000
    outer loop
      vertex 27.880600 46.346283 0.141217
      vertex 27.880600 53.682600 0.000000
      vertex 27.880600 46.005355 0.000000
    endloop
  endfacet
  facet normal -1.000000 0.000000 0.000000
    outer loop
      vertex 27.880600 48.974999 6.487500
      vertex 27.880600 53.682600 0.000000
      vertex 27.880600 46.346283 0.141217
    endloop
  endfacet
  facet normal -1.000000 0.000000 0.000000
    outer loop
      vertex 27.880600 53.682600 12.975000
      vertex 27.880600 53.682600 0.000000
      vertex 27.880600 46.346283 12.833783
    endloop
  endfacet
  facet normal -1.000000 0.000000 0.000000
    outer loop
      vertex 27.880600 53.682600 12.975000
      vertex 27.880600 46.346283 12.833783
      vertex 27.880600 46.005354 12.975000
    endloop
  endfacet
  facet normal -1.000000 0.000000 0.000000
    outer loop
      vertex 27.880600 46.346283 12.833783
      vertex 27.880600 53.682600 0.000000
      vertex 27.880600 48.974999 6.487500
    endloop
  endfacet
  facet normal 0.707107 0.707107 -0.000000
    outer loop
      vertex 13.580091 26.531708 12.975000
      vertex 16.008708 24.103091 12.975000
      vertex 13.580091 26.531708 0.000000
    endloop
  endfacet
  facet normal 0.707107 0.707107 0.000000
    outer loop
      vertex 13.580091 26.531708 0.000000
      vertex 16.008708 24.103091 12.975000
      vertex 16.008708 24.103091 0.000000
    endloop
  endfacet
  facet normal 1.000000 0.000000 0.000000
    outer loop
      vertex 13.580091 26.531708 0.000000
      vertex 13.580091 29.966292 0.000000
      vertex 13.580091 29.966292 12.975000
    endloop
  endfacet
  facet normal 1.000000 0.000000 -0.000000
    outer loop
      vertex 13.580091 26.531708 12.975000
      vertex 13.580091 26.531708 0.000000
      vertex 13.580091 29.966292 12.975000
    endloop
  endfacet
  facet normal 0.707107 -0.707107 0.000000
    outer loop
      vertex 13.580091 29.966292 0.000000
      vertex 16.008708 32.394909 0.000000
      vertex 16.008708 32.394909 12.975000
    endloop
  endfacet
  facet normal 0.707107 -0.707107 0.000000
    outer loop
      vertex 13.580091 29.966292 12.975000
      vertex 13.580091 29.966292 0.000000
      vertex 16.008708 32.394909 12.975000
    endloop
  endfacet
  facet normal -0.000000 -1.000000 0.000000
    outer loop
      vertex 16.008708 32.394909 0.000000
      vertex 19.443292 32.394909 0.000000
      vertex 19.443292 32.394909 12.975000
    endloop
  endfacet
  facet normal 0.000000 -1.000000 0.000000
    outer loop
      vertex 16.008708 32.394909 12.975000
      vertex 16.008708 32.394909 0.000000
      vertex 19.443292 32.394909 12.975000
    endloop
  endfacet
  facet normal -0.707107 -0.707107 0.000000
    outer loop
      vertex 19.443292 32.394909 0.000000
      vertex 21.871909 29.966292 0.000000
      vertex 21.871909 29.966292 12.975000
    endloop
  endfacet
  facet normal -0.707107 -0.707107 0.000000
    outer loop
      vertex 19.443292 32.394909 12.975000
      vertex 19.443292 32.394909 0.000000
      vertex 21.871909 29.966292 12.975000
    endloop
  endfacet
  facet normal -1.000000 0.000000 0.000000
    outer loop
      vertex 21.871909 26.531708 12.975000
      vertex 21.871909 29.966292 12.975000
      vertex 21.871909 26.531708 0.000000
    endloop
  endfacet
  facet normal -1.000000 -0.000000 0.000000
    outer loop
      vertex 21.871909 26.531708 0.000000
      vertex 21.871909 29.966292 12.975000
      vertex 21.871909 29.966292 0.000000
    endloop
  endfacet
  facet normal -0.707107 0.707107 0.000000
    outer loop
      vertex 19.443292 24.103091 12.975000
      vertex 21.871909 26.531708 12.975000
      vertex 19.443292 24.103091 0.000000
    endloop
  endfacet
  facet normal -0.707107 0.707107 0.000000
    outer loop
      vertex 19.443292 24.103091 0.000000
      vertex 21.871909 26.531708 12.975000
      vertex 21.871909 26.531708 0.000000
    endloop
  endfacet
  facet normal 0.000000 1.000000 -0.000000
    outer loop
      vertex 16.008708 24.103091 12.975000
      vertex 19.443292 24.103091 12.975000
      vertex 16.008708 24.103091 0.000000
    endloop
  endfacet
  facet normal 0.000000 1.000000 0.000000
    outer loop
      vertex 16.008708 24.103091 0.000000
      vertex 19.443292 24.103091 12.975000
      vertex 19.443292 24.103091 0.000000
    endloop
  endfacet
  facet normal 0.000000 1.000000 -0.000000
    outer loop
      vertex 15.500000 6.000000 12.975000
      vertex 20.500000 6.000000 12.975000
      vertex 15.500000 6.000000 0.000000
    endloop
  endfacet
  facet normal 0.000000 1.000000 0.000000
    outer loop
      vertex 15.500000 6.000000 0.000000
      vertex 20.500000 6.000000 12.975000
      vertex 20.500000 6.000000 0.000000
    endloop
  endfacet
  facet normal 1.000000 0.000000 0.000000
    outer loop
      vertex 15.500000 6.000000 0.000000
      vertex 15.500000 19.000000 0.000000
      vertex 15.500000 19.000000 12.975000
    endloop
  endfacet
  facet normal 1.000000 0.000000 -0.000000
    outer loop
      vertex 15.500000 6.000000 12.975000
      vertex 15.500000 6.000000 0.000000
      vertex 15.500000 19.000000 12.975000
    endloop
  endfacet
  facet normal -0.000000 -1.000000 0.000000
    outer loop
      vertex 15.500000 19.000000 0.000000
      vertex 20.500000 19.000000 0.000000
      vertex 20.500000 19.000000 12.975000
    endloop
  endfacet
  facet normal 0.000000 -1.000000 0.000000
    outer loop
      vertex 15.500000 19.000000 12.975000
      vertex 15.500000 19.000000 0.000000
      vertex 20.500000 19.000000 12.975000
    endloop
  endfacet
  facet normal -1.000000 0.000000 0.000000
    outer loop
      vertex 20.500000 6.000000 12.975000
      vertex 20.500000 19.000000 12.975000
      vertex 20.500000 6.000000 0.000000
    endloop
  endfacet
  facet normal -1.000000 -0.000000 0.000000
    outer loop
      vertex 20.500000 6.000000 0.000000
      vertex 20.500000 19.000000 12.975000
      vertex 20.500000 19.000000 0.000000
    endloop
  endfacet
  facet normal -0.000000 0.382683 0.923880
    outer loop
      vertex 9.789400 46.005354 12.975000
      vertex 27.880600 46.005354 12.975000
      vertex 27.880600 46.346283 12.833783
    endloop
  endfacet
  facet normal 0.000000 0.382683 0.923880
    outer loop
      vertex 9.789400 46.346283 12.833783
      vertex 9.789400 46.005354 12.975000
      vertex 27.880600 46.346283 12.833783
    endloop
  endfacet
  facet normal -0.331414 -0.191342 0.923880
    outer loop
      vertex 27.492241 77.095864 12.833783
      vertex 36.415394 61.640510 12.833783
      vertex 36.710652 61.810963 12.975000
    endloop
  endfacet
  facet normal -0.331414 -0.191342 0.923880
    outer loop
      vertex 27.787497 77.266322 12.975000
      vertex 27.492241 77.095864 12.833783
      vertex 36.710652 61.810963 12.975000
    endloop
  endfacet
  facet normal -0.000000 0.923880 0.382683
    outer loop
      vertex 32.801000 35.512500 6.487500
      vertex 32.801000 36.826858 3.314359
      vertex 2.649000 35.512500 6.487500
    endloop
  endfacet
  facet normal -0.000000 0.923880 0.382683
    outer loop
      vertex 2.649000 35.512500 6.487500
      vertex 32.801000 36.826858 3.314359
      vertex 2.649000 36.826858 3.314359
    endloop
  endfacet
  facet normal 0.000000 0.923880 -0.382683
    outer loop
      vertex 2.649000 36.826859 9.660642
      vertex 32.801000 36.826859 9.660642
      vertex 2.649000 35.512500 6.487500
    endloop
  endfacet
  facet normal 0.000000 0.923880 -0.382683
    outer loop
      vertex 2.649000 35.512500 6.487500
      vertex 32.801000 36.826859 9.660642
      vertex 32.801000 35.512500 6.487500
    endloop
  endfacet
  facet normal 0.000000 0.382683 -0.923880
    outer loop
      vertex 2.649000 40.000000 10.975000
      vertex 32.801000 40.000000 10.975000
      vertex 2.649000 36.826859 9.660642
    endloop
  endfacet
  facet normal 0.000000 0.382683 -0.923880
    outer loop
      vertex 2.649000 36.826859 9.660642
      vertex 32.801000 40.000000 10.975000
      vertex 32.801000 36.826859 9.660642
    endloop
  endfacet
  facet normal 0.000000 -0.382683 -0.923880
    outer loop
      vertex 2.649000 43.173142 9.660641
      vertex 32.801000 43.173142 9.660641
      vertex 2.649000 40.000000 10.975000
    endloop
  endfacet
  facet normal 0.000000 -0.382683 -0.923880
    outer loop
      vertex 2.649000 40.000000 10.975000
      vertex 32.801000 43.173142 9.660641
      vertex 32.801000 40.000000 10.975000
    endloop
  endfacet
  facet normal 0.000000 -0.923880 -0.382683
    outer loop
      vertex 2.649000 43.173142 9.660641
      vertex 2.649000 44.487500 6.487500
      vertex 32.801000 44.487500 6.487500
    endloop
  endfacet
  facet normal 0.000000 -0.923880 -0.382683
    outer loop
      vertex 32.801000 43.173142 9.660641
      vertex 2.649000 43.173142 9.660641
      vertex 32.801000 44.487500 6.487500
    endloop
  endfacet
  facet normal -0.000000 -0.923880 0.382683
    outer loop
      vertex 2.649000 43.173141 3.314358
      vertex 32.801000 43.173141 3.314358
      vertex 32.801000 44.487500 6.487500
    endloop
  endfacet
  facet normal -0.000000 -0.923880 0.382683
    outer loop
      vertex 2.649000 44.487500 6.487500
      vertex 2.649000 43.173141 3.314358
      vertex 32.801000 44.487500 6.487500
    endloop
  endfacet
  facet normal -0.000000 -0.382683 0.923880
    outer loop
      vertex 2.649000 40.000000 2.000000
      vertex 32.801000 40.000000 2.000000
      vertex 32.801000 43.173141 3.314358
    endloop
  endfacet
  facet normal -0.000000 -0.382683 0.923880
    outer loop
      vertex 2.649000 43.173141 3.314358
      vertex 2.649000 40.000000 2.000000
      vertex 32.801000 43.173141 3.314358
    endloop
  endfacet
  facet normal -0.000000 0.382683 0.923880
    outer loop
      vertex 2.649000 36.826858 3.314359
      vertex 32.801000 36.826858 3.314359
      vertex 32.801000 40.000000 2.000000
    endloop
  endfacet
  facet normal -0.000000 0.382683 0.923880
    outer loop
      vertex 2.649000 40.000000 2.000000
      vertex 2.649000 36.826858 3.314359
      vertex 32.801000 40.000000 2.000000
    endloop
  endfacet
  facet normal 0.800103 0.461940 0.382683
    outer loop
      vertex 25.486275 83.643845 6.487500
      vertex 40.358151 57.885000 6.487500
      vertex 41.496441 58.542140 3.314359
    endloop
  endfacet
  facet normal 0.800103 0.461940 0.382683
    outer loop
      vertex 26.624557 84.300999 3.314359
      vertex 25.486275 83.643845 6.487500
      vertex 41.496441 58.542140 3.314359
    endloop
  endfacet
  facet normal 0.800103 0.461940 -0.382683
    outer loop
      vertex 25.486275 83.643845 6.487500
      vertex 26.624557 84.300999 9.660642
      vertex 41.496441 58.542140 9.660642
    endloop
  endfacet
  facet normal 0.800103 0.461940 -0.382683
    outer loop
      vertex 40.358151 57.885000 6.487500
      vertex 25.486275 83.643845 6.487500
      vertex 41.496441 58.542140 9.660642
    endloop
  endfacet
  facet normal 0.331414 0.191342 0.923880
    outer loop
      vertex 26.624557 84.300999 3.314359
      vertex 41.496441 58.542140 3.314359
      vertex 44.244517 60.128617 2.000000
    endloop
  endfacet
  facet normal 0.331414 0.191342 0.923880
    outer loop
      vertex 29.372614 85.887509 2.000000
      vertex 26.624557 84.300999 3.314359
      vertex 44.244517 60.128617 2.000000
    endloop
  endfacet
  facet normal -0.331414 -0.191342 0.923880
    outer loop
      vertex 29.372614 85.887509 2.000000
      vertex 44.244517 60.128617 2.000000
      vertex 46.992592 61.715094 3.314358
    endloop
  endfacet
  facet normal -0.331414 -0.191342 0.923880
    outer loop
      vertex 32.120670 87.474018 3.314358
      vertex 29.372614 85.887509 2.000000
      vertex 46.992592 61.715094 3.314358
    endloop
  endfacet
  facet normal -0.800103 -0.461940 0.382683
    outer loop
      vertex 46.992592 61.715094 3.314358
      vertex 48.130882 62.372234 6.487500
      vertex 32.120670 87.474018 3.314358
    endloop
  endfacet
  facet normal -0.800103 -0.461940 0.382683
    outer loop
      vertex 32.120670 87.474018 3.314358
      vertex 48.130882 62.372234 6.487500
      vertex 33.258952 88.131172 6.487500
    endloop
  endfacet
  facet normal -0.800103 -0.461940 -0.382683
    outer loop
      vertex 33.258952 88.131172 6.487500
      vertex 48.130882 62.372234 6.487500
      vertex 32.120670 87.474018 9.660641
    endloop
  endfacet
  facet normal -0.800103 -0.461940 -0.382683
    outer loop
      vertex 32.120670 87.474018 9.660641
      vertex 48.130882 62.372234 6.487500
      vertex 46.992592 61.715094 9.660641
    endloop
  endfacet
  facet normal -0.331414 -0.191342 -0.923880
    outer loop
      vertex 32.120670 87.474018 9.660641
      vertex 46.992592 61.715094 9.660641
      vertex 29.372613 85.887508 10.975000
    endloop
  endfacet
  facet normal -0.331414 -0.191342 -0.923880
    outer loop
      vertex 29.372613 85.887508 10.975000
      vertex 46.992592 61.715094 9.660641
      vertex 44.244516 60.128617 10.975000
    endloop
  endfacet
  facet normal 0.331414 0.191342 -0.923880
    outer loop
      vertex 29.372613 85.887508 10.975000
      vertex 44.244516 60.128617 10.975000
      vertex 26.624557 84.300999 9.660642
    endloop
  endfacet
  facet normal 0.331414 0.191342 -0.923880
    outer loop
      vertex 26.624557 84.300999 9.660642
      vertex 44.244516 60.128617 10.975000
      vertex 41.496441 58.542140 9.660642
    endloop
  endfacet
  facet normal 0.000000 0.923880 -0.382683
    outer loop
      vertex 9.789400 48.974999 6.487500
      vertex 27.880600 48.974999 6.487500
      vertex 9.789400 46.346283 0.141217
    endloop
  endfacet
  facet normal 0.000000 0.923880 -0.382683
    outer loop
      vertex 9.789400 46.346283 0.141217
      vertex 27.880600 48.974999 6.487500
      vertex 27.880600 46.346283 0.141217
    endloop
  endfacet
  facet normal -0.000000 0.923880 0.382683
    outer loop
      vertex 27.880600 46.346283 12.833783
      vertex 27.880600 48.974999 6.487500
      vertex 9.789400 46.346283 12.833783
    endloop
  endfacet
  facet normal -0.000000 0.923880 0.382683
    outer loop
      vertex 9.789400 46.346283 12.833783
      vertex 27.880600 48.974999 6.487500
      vertex 9.789400 48.974999 6.487500
    endloop
  endfacet
  facet normal -0.800103 -0.461940 0.382683
    outer loop
      vertex 34.138814 60.326229 6.487500
      vertex 36.415394 61.640510 12.833783
      vertex 25.215676 75.781557 6.487500
    endloop
  endfacet
  facet normal -0.800103 -0.461940 0.382683
    outer loop
      vertex 25.215676 75.781557 6.487500
      vertex 36.415394 61.640510 12.833783
      vertex 27.492241 77.095864 12.833783
    endloop
  endfacet
  facet normal -0.800103 -0.461940 -0.382683
    outer loop
      vertex 27.492241 77.095864 0.141217
      vertex 36.415394 61.640509 0.141217
      vertex 25.215676 75.781557 6.487500
    endloop
  endfacet
  facet normal -0.800103 -0.461940 -0.382683
    outer loop
      vertex 25.215676 75.781557 6.487500
      vertex 36.415394 61.640509 0.141217
      vertex 34.138814 60.326229 6.487500
    endloop
  endfacet
endsolid OpenSCAD_Model
