solid OpenSCAD_Model
  facet normal 0.866045 0.499966 0.000000
    outer loop
      vertex 52.014000 88.570000 0.000000
      vertex 52.014000 88.570000 12.625000
      vertex 58.000000 78.201000 12.625000
    endloop
  endfacet
  facet normal 0.866045 0.499966 0.000000
    outer loop
      vertex 58.000000 78.201000 0.000000
      vertex 52.014000 88.570000 0.000000
      vertex 58.000000 78.201000 12.625000
    endloop
  endfacet
  facet normal 0.000000 -0.000000 -1.000000
    outer loop
      vertex 28.153387 77.477558 0.000000
      vertex 19.890000 80.413000 0.000000
      vertex 39.723000 91.863000 0.000000
    endloop
  endfacet
  facet normal 0.000000 -0.000000 -1.000000
    outer loop
      vertex 45.336678 82.896230 0.000000
      vertex 39.723000 91.863000 0.000000
      vertex 52.014000 88.570000 0.000000
    endloop
  endfacet
  facet normal -0.000000 0.000000 -1.000000
    outer loop
      vertex 50.971230 80.562322 0.000000
      vertex 52.014000 88.570000 0.000000
      vertex 58.000000 78.201000 0.000000
    endloop
  endfacet
  facet normal 0.000000 0.000000 -1.000000
    outer loop
      vertex 37.261000 56.097000 0.000000
      vertex 58.000000 78.201000 0.000000
      vertex 54.595000 66.104000 0.000000
    endloop
  endfacet
  facet normal 0.000000 0.000000 -1.000000
    outer loop
      vertex 10.500000 20.199000 0.000000
      vertex 15.500000 6.000000 0.000000
      vertex 10.500000 6.000000 0.000000
    endloop
  endfacet
  facet normal 0.000000 0.000000 -1.000000
    outer loop
      vertex 20.500000 19.000000 0.000000
      vertex 27.000000 2.000000 0.000000
      vertex 20.500000 6.000000 0.000000
    endloop
  endfacet
  facet normal -0.000000 0.000000 -1.000000
    outer loop
      vertex 21.710230 29.899322 0.000000
      vertex 32.801000 48.471000 0.000000
      vertex 32.801000 28.180000 0.000000
    endloop
  endfacet
  facet normal -0.000000 0.000000 -1.000000
    outer loop
      vertex 19.376322 24.264770 0.000000
      vertex 32.801000 28.180000 0.000000
      vertex 25.500000 20.879000 0.000000
    endloop
  endfacet
  facet normal -0.000000 0.000000 -1.000000
    outer loop
      vertex 20.500000 19.000000 0.000000
      vertex 25.500000 20.879000 0.000000
      vertex 25.500000 6.000000 0.000000
    endloop
  endfacet
  facet normal 0.000000 0.000000 -1.000000
    outer loop
      vertex 25.500000 6.000000 0.000000
      vertex 27.000000 6.000000 0.000000
      vertex 27.000000 2.000000 0.000000
    endloop
  endfacet
  facet normal 0.000000 0.000000 -1.000000
    outer loop
      vertex 9.000000 6.000000 0.000000
      vertex 27.000000 2.000000 0.000000
      vertex 9.000000 2.000000 0.000000
    endloop
  endfacet
  facet normal 0.000000 0.000000 -1.000000
    outer loop
      vertex 10.500000 6.000000 0.000000
      vertex 27.000000 2.000000 0.000000
      vertex 9.000000 6.000000 0.000000
    endloop
  endfacet
  facet normal 0.000000 0.000000 -1.000000
    outer loop
      vertex 15.500000 6.000000 0.000000
      vertex 27.000000 2.000000 0.000000
      vertex 10.500000 6.000000 0.000000
    endloop
  endfacet
  facet normal -0.000000 0.000000 -1.000000
    outer loop
      vertex 50.971230 77.261678 0.000000
      vertex 58.000000 78.201000 0.000000
      vertex 48.637322 74.927770 0.000000
    endloop
  endfacet
  facet normal 0.000000 0.000000 -1.000000
    outer loop
      vertex 37.076545 62.022195 0.000000
      vertex 48.637322 74.927770 0.000000
      vertex 58.000000 78.201000 0.000000
    endloop
  endfacet
  facet normal 0.000000 0.000000 -1.000000
    outer loop
      vertex 50.971230 80.562322 0.000000
      vertex 58.000000 78.201000 0.000000
      vertex 50.971230 77.261678 0.000000
    endloop
  endfacet
  facet normal -0.000000 0.000000 -1.000000
    outer loop
      vertex 48.637322 82.896230 0.000000
      vertex 52.014000 88.570000 0.000000
      vertex 50.971230 80.562322 0.000000
    endloop
  endfacet
  facet normal -0.000000 0.000000 -1.000000
    outer loop
      vertex 45.336678 82.896230 0.000000
      vertex 52.014000 88.570000 0.000000
      vertex 48.637322 82.896230 0.000000
    endloop
  endfacet
  facet normal 0.000000 -0.000000 -1.000000
    outer loop
      vertex 43.002770 80.562322 0.000000
      vertex 39.723000 91.863000 0.000000
      vertex 45.336678 82.896230 0.000000
    endloop
  endfacet
  facet normal 0.000000 0.000000 -1.000000
    outer loop
      vertex 27.880600 45.582866 0.000000
      vertex 2.649000 28.050000 0.000000
      vertex 9.789400 45.582866 0.000000
    endloop
  endfacet
  facet normal 0.000000 0.000000 -1.000000
    outer loop
      vertex 20.500000 19.000000 0.000000
      vertex 25.500000 6.000000 0.000000
      vertex 27.000000 2.000000 0.000000
    endloop
  endfacet
  facet normal 0.000000 0.000000 -1.000000
    outer loop
      vertex 2.649000 28.050000 0.000000
      vertex 27.880600 45.582866 0.000000
      vertex 32.801000 48.471000 0.000000
    endloop
  endfacet
  facet normal 0.000000 0.000000 -1.000000
    outer loop
      vertex 45.336678 74.927770 0.000000
      vertex 48.637322 74.927770 0.000000
      vertex 37.076545 62.022195 0.000000
    endloop
  endfacet
  facet normal 0.000000 0.000000 -1.000000
    outer loop
      vertex 28.153387 77.477558 0.000000
      vertex 43.002770 77.261678 0.000000
      vertex 45.336678 74.927770 0.000000
    endloop
  endfacet
  facet normal 0.000000 0.000000 -1.000000
    outer loop
      vertex 28.153387 77.477558 0.000000
      vertex 45.336678 74.927770 0.000000
      vertex 37.076545 62.022195 0.000000
    endloop
  endfacet
  facet normal 0.000000 0.000000 -1.000000
    outer loop
      vertex 28.153387 77.477558 0.000000
      vertex 39.723000 91.863000 0.000000
      vertex 43.002770 80.562322 0.000000
    endloop
  endfacet
  facet normal 0.000000 0.000000 -1.000000
    outer loop
      vertex 27.880600 53.682600 0.000000
      vertex 37.076545 62.022195 0.000000
      vertex 58.000000 78.201000 0.000000
    endloop
  endfacet
  facet normal 0.000000 -0.000000 -1.000000
    outer loop
      vertex 20.134000 72.847800 0.000000
      vertex 19.890000 80.413000 0.000000
      vertex 28.153387 77.477558 0.000000
    endloop
  endfacet
  facet normal 0.000000 0.000000 -1.000000
    outer loop
      vertex 9.789400 54.930600 0.000000
      vertex 19.890000 80.413000 0.000000
      vertex 20.134000 72.847800 0.000000
    endloop
  endfacet
  facet normal 0.000000 -0.000000 -1.000000
    outer loop
      vertex 13.741770 29.899322 0.000000
      vertex 2.649000 28.050000 0.000000
      vertex 16.075678 32.233230 0.000000
    endloop
  endfacet
  facet normal 0.000000 0.000000 -1.000000
    outer loop
      vertex 2.649000 50.551000 0.000000
      vertex 19.890000 80.413000 0.000000
      vertex 9.789400 54.930600 0.000000
    endloop
  endfacet
  facet normal -0.000000 0.000000 -1.000000
    outer loop
      vertex 2.649000 50.551000 0.000000
      vertex 9.789400 54.930600 0.000000
      vertex 2.649000 28.050000 0.000000
    endloop
  endfacet
  facet normal 0.000000 0.000000 -1.000000
    outer loop
      vertex 19.376322 24.264770 0.000000
      vertex 25.500000 20.879000 0.000000
      vertex 16.075678 24.264770 0.000000
    endloop
  endfacet
  facet normal 0.000000 0.000000 -1.000000
    outer loop
      vertex 2.649000 28.050000 0.000000
      vertex 13.741770 26.598678 0.000000
      vertex 16.075678 24.264770 0.000000
    endloop
  endfacet
  facet normal 0.000000 0.000000 -1.000000
    outer loop
      vertex 2.649000 28.050000 0.000000
      vertex 16.075678 24.264770 0.000000
      vertex 25.500000 20.879000 0.000000
    endloop
  endfacet
  facet normal -0.000000 0.000000 -1.000000
    outer loop
      vertex 21.710230 26.598678 0.000000
      vertex 32.801000 28.180000 0.000000
      vertex 19.376322 24.264770 0.000000
    endloop
  endfacet
  facet normal 0.000000 0.000000 -1.000000
    outer loop
      vertex 21.710230 29.899322 0.000000
      vertex 32.801000 28.180000 0.000000
      vertex 21.710230 26.598678 0.000000
    endloop
  endfacet
  facet normal -0.000000 0.000000 -1.000000
    outer loop
      vertex 19.376322 32.233230 0.000000
      vertex 32.801000 48.471000 0.000000
      vertex 21.710230 29.899322 0.000000
    endloop
  endfacet
  facet normal -0.000000 0.000000 -1.000000
    outer loop
      vertex 16.075678 32.233230 0.000000
      vertex 32.801000 48.471000 0.000000
      vertex 19.376322 32.233230 0.000000
    endloop
  endfacet
  facet normal 0.000000 0.000000 -1.000000
    outer loop
      vertex 2.649000 28.050000 0.000000
      vertex 32.801000 48.471000 0.000000
      vertex 16.075678 32.233230 0.000000
    endloop
  endfacet
  facet normal 0.000000 0.000000 -1.000000
    outer loop
      vertex 15.500000 6.000000 0.000000
      vertex 10.500000 20.199000 0.000000
      vertex 15.500000 19.000000 0.000000
    endloop
  endfacet
  facet normal -0.000000 -0.000000 -1.000000
    outer loop
      vertex 10.500000 20.199000 0.000000
      vertex 2.649000 28.050000 0.000000
      vertex 15.500000 19.000000 0.000000
    endloop
  endfacet
  facet normal 0.000000 0.000000 -1.000000
    outer loop
      vertex 20.500000 6.000000 0.000000
      vertex 27.000000 2.000000 0.000000
      vertex 15.500000 6.000000 0.000000
    endloop
  endfacet
  facet normal 0.000000 0.000000 -1.000000
    outer loop
      vertex 9.789400 45.582866 0.000000
      vertex 2.649000 28.050000 0.000000
      vertex 9.789400 54.930600 0.000000
    endloop
  endfacet
  facet normal 0.000000 0.000000 -1.000000
    outer loop
      vertex 13.741770 26.598678 0.000000
      vertex 2.649000 28.050000 0.000000
      vertex 13.741770 29.899322 0.000000
    endloop
  endfacet
  facet normal 0.000000 0.000000 -1.000000
    outer loop
      vertex 2.649000 28.050000 0.000000
      vertex 25.500000 20.879000 0.000000
      vertex 20.500000 19.000000 0.000000
    endloop
  endfacet
  facet normal 0.000000 0.000000 -1.000000
    outer loop
      vertex 2.649000 28.050000 0.000000
      vertex 20.500000 19.000000 0.000000
      vertex 15.500000 19.000000 0.000000
    endloop
  endfacet
  facet normal -0.000000 0.000000 -1.000000
    outer loop
      vertex 27.880600 53.682600 0.000000
      vertex 37.261000 56.097000 0.000000
      vertex 27.880600 45.582866 0.000000
    endloop
  endfacet
  facet normal 0.000000 -0.000000 -1.000000
    outer loop
      vertex 32.801000 48.471000 0.000000
      vertex 27.880600 45.582866 0.000000
      vertex 37.261000 56.097000 0.000000
    endloop
  endfacet
  facet normal -0.000000 0.000000 -1.000000
    outer loop
      vertex 28.153387 77.477558 0.000000
      vertex 43.002770 80.562322 0.000000
      vertex 43.002770 77.261678 0.000000
    endloop
  endfacet
  facet normal 0.000000 0.000000 -1.000000
    outer loop
      vertex 27.880600 53.682600 0.000000
      vertex 58.000000 78.201000 0.000000
      vertex 37.261000 56.097000 0.000000
    endloop
  endfacet
  facet normal 0.000000 0.000000 -1.000000
    outer loop
      vertex 37.076545 62.022195 0.000000
      vertex 27.880600 53.682600 0.000000
      vertex 30.556600 58.258200 0.000000
    endloop
  endfacet
  facet normal 0.962595 -0.270946 0.000000
    outer loop
      vertex 54.595000 66.104000 0.000000
      vertex 58.000000 78.201000 0.000000
      vertex 58.000000 78.201000 12.625000
    endloop
  endfacet
  facet normal 0.962595 -0.270946 0.000000
    outer loop
      vertex 54.595000 66.104000 12.625000
      vertex 54.595000 66.104000 0.000000
      vertex 58.000000 78.201000 12.625000
    endloop
  endfacet
  facet normal 0.258792 0.965933 -0.000000
    outer loop
      vertex 39.723000 91.863000 12.625000
      vertex 52.014000 88.570000 12.625000
      vertex 39.723000 91.863000 0.000000
    endloop
  endfacet
  facet normal 0.258792 0.965933 0.000000
    outer loop
      vertex 39.723000 91.863000 0.000000
      vertex 52.014000 88.570000 12.625000
      vertex 52.014000 88.570000 0.000000
    endloop
  endfacet
  facet normal -0.000000 0.000000 1.000000
    outer loop
      vertex 15.500000 6.000000 12.625000
      vertex 10.500000 20.199000 12.625000
      vertex 10.500000 6.000000 12.625000
    endloop
  endfacet
  facet normal 0.000000 0.000000 1.000000
    outer loop
      vertex 16.075678 32.233230 12.625000
      vertex 19.376322 32.233230 12.625000
      vertex 32.801000 48.471000 12.625000
    endloop
  endfacet
  facet normal 0.000000 -0.000000 1.000000
    outer loop
      vertex 9.000000 6.000000 12.625000
      vertex 9.000000 2.000000 12.625000
      vertex 10.500000 6.000000 12.625000
    endloop
  endfacet
  facet normal 0.000000 0.000000 1.000000
    outer loop
      vertex 15.500000 6.000000 12.625000
      vertex 15.500000 19.000000 12.625000
      vertex 10.500000 20.199000 12.625000
    endloop
  endfacet
  facet normal 0.000000 0.000000 1.000000
    outer loop
      vertex 9.000000 2.000000 12.625000
      vertex 27.000000 2.000000 12.625000
      vertex 10.500000 6.000000 12.625000
    endloop
  endfacet
  facet normal 0.000000 -0.000000 1.000000
    outer loop
      vertex 27.880600 53.682600 12.625000
      vertex 27.880600 45.582866 12.625000
      vertex 37.261000 56.097000 12.625000
    endloop
  endfacet
  facet normal 0.000000 -0.000000 1.000000
    outer loop
      vertex 20.500000 19.000000 12.625000
      vertex 20.500000 6.000000 12.625000
      vertex 27.000000 2.000000 12.625000
    endloop
  endfacet
  facet normal 0.000000 0.000000 1.000000
    outer loop
      vertex 27.000000 2.000000 12.625000
      vertex 27.000000 6.000000 12.625000
      vertex 25.500000 6.000000 12.625000
    endloop
  endfacet
  facet normal 0.000000 0.000000 1.000000
    outer loop
      vertex 15.500000 19.000000 12.625000
      vertex 25.500000 20.879000 12.625000
      vertex 2.649000 28.050000 12.625000
    endloop
  endfacet
  facet normal -0.000000 0.000000 1.000000
    outer loop
      vertex 16.075678 32.233230 12.625000
      vertex 32.801000 48.471000 12.625000
      vertex 2.649000 28.050000 12.625000
    endloop
  endfacet
  facet normal -0.000000 0.000000 1.000000
    outer loop
      vertex 54.595000 66.104000 12.625000
      vertex 58.000000 78.201000 12.625000
      vertex 37.261000 56.097000 12.625000
    endloop
  endfacet
  facet normal -0.000000 0.000000 1.000000
    outer loop
      vertex 9.789400 45.582866 12.625000
      vertex 9.789400 54.930600 12.625000
      vertex 2.649000 28.050000 12.625000
    endloop
  endfacet
  facet normal 0.000000 0.000000 1.000000
    outer loop
      vertex 9.789400 54.930600 12.625000
      vertex 20.134000 72.847800 12.625000
      vertex 19.890000 80.413000 12.625000
    endloop
  endfacet
  facet normal 0.000000 0.000000 1.000000
    outer loop
      vertex 9.789400 54.930600 12.625000
      vertex 2.649000 50.551000 12.625000
      vertex 2.649000 28.050000 12.625000
    endloop
  endfacet
  facet normal 0.000000 0.000000 1.000000
    outer loop
      vertex 28.153388 77.477558 12.625000
      vertex 43.002770 80.562322 12.625000
      vertex 39.723000 91.863000 12.625000
    endloop
  endfacet
  facet normal -0.000000 0.000000 1.000000
    outer loop
      vertex 45.336678 82.896230 12.625000
      vertex 39.723000 91.863000 12.625000
      vertex 43.002770 80.562322 12.625000
    endloop
  endfacet
  facet normal -0.000000 0.000000 1.000000
    outer loop
      vertex 52.014000 88.570000 12.625000
      vertex 39.723000 91.863000 12.625000
      vertex 45.336678 82.896230 12.625000
    endloop
  endfacet
  facet normal 0.000000 0.000000 1.000000
    outer loop
      vertex 58.000000 78.201000 12.625000
      vertex 52.014000 88.570000 12.625000
      vertex 48.637322 82.896230 12.625000
    endloop
  endfacet
  facet normal 0.000000 0.000000 1.000000
    outer loop
      vertex 58.000000 78.201000 12.625000
      vertex 48.637322 82.896230 12.625000
      vertex 50.971230 80.562322 12.625000
    endloop
  endfacet
  facet normal 0.000000 -0.000000 1.000000
    outer loop
      vertex 45.336678 74.927770 12.625000
      vertex 37.076546 62.022195 12.625000
      vertex 48.637322 74.927770 12.625000
    endloop
  endfacet
  facet normal 0.000000 -0.000000 1.000000
    outer loop
      vertex 48.637322 74.927770 12.625000
      vertex 37.076546 62.022195 12.625000
      vertex 50.971230 77.261678 12.625000
    endloop
  endfacet
  facet normal 0.000000 0.000000 1.000000
    outer loop
      vertex 28.153388 77.477558 12.625000
      vertex 43.002770 77.261678 12.625000
      vertex 43.002770 80.562322 12.625000
    endloop
  endfacet
  facet normal 0.000000 0.000000 1.000000
    outer loop
      vertex 37.076546 62.022195 12.625000
      vertex 30.556600 58.258200 12.625000
      vertex 27.880600 53.682600 12.625000
    endloop
  endfacet
  facet normal 0.000000 0.000000 1.000000
    outer loop
      vertex 19.890000 80.413000 12.625000
      vertex 2.649000 50.551000 12.625000
      vertex 9.789400 54.930600 12.625000
    endloop
  endfacet
  facet normal 0.000000 0.000000 1.000000
    outer loop
      vertex 39.723000 91.863000 12.625000
      vertex 19.890000 80.413000 12.625000
      vertex 20.134000 72.847800 12.625000
    endloop
  endfacet
  facet normal 0.000000 0.000000 1.000000
    outer loop
      vertex 39.723000 91.863000 12.625000
      vertex 20.134000 72.847800 12.625000
      vertex 28.153388 77.477558 12.625000
    endloop
  endfacet
  facet normal 0.000000 0.000000 1.000000
    outer loop
      vertex 58.000000 78.201000 12.625000
      vertex 50.971230 77.261678 12.625000
      vertex 37.076546 62.022195 12.625000
    endloop
  endfacet
  facet normal 0.000000 0.000000 1.000000
    outer loop
      vertex 28.153388 77.477558 12.625000
      vertex 45.336678 74.927770 12.625000
      vertex 43.002770 77.261678 12.625000
    endloop
  endfacet
  facet normal 0.000000 0.000000 1.000000
    outer loop
      vertex 10.500000 20.199000 12.625000
      vertex 15.500000 19.000000 12.625000
      vertex 2.649000 28.050000 12.625000
    endloop
  endfacet
  facet normal 0.000000 0.000000 1.000000
    outer loop
      vertex 28.153388 77.477558 12.625000
      vertex 37.076546 62.022195 12.625000
      vertex 45.336678 74.927770 12.625000
    endloop
  endfacet
  facet normal 0.000000 0.000000 1.000000
    outer loop
      vertex 32.801000 48.471000 12.625000
      vertex 27.880600 45.582866 12.625000
      vertex 2.649000 28.050000 12.625000
    endloop
  endfacet
  facet normal -0.000000 0.000000 1.000000
    outer loop
      vertex 32.801000 48.471000 12.625000
      vertex 37.261000 56.097000 12.625000
      vertex 27.880600 45.582866 12.625000
    endloop
  endfacet
  facet normal 0.000000 0.000000 1.000000
    outer loop
      vertex 16.075678 24.264770 12.625000
      vertex 13.741770 26.598678 12.625000
      vertex 2.649000 28.050000 12.625000
    endloop
  endfacet
  facet normal -0.000000 0.000000 1.000000
    outer loop
      vertex 13.741770 29.899322 12.625000
      vertex 16.075678 32.233230 12.625000
      vertex 2.649000 28.050000 12.625000
    endloop
  endfacet
  facet normal 0.000000 0.000000 1.000000
    outer loop
      vertex 32.801000 28.180000 12.625000
      vertex 32.801000 48.471000 12.625000
      vertex 19.376322 32.233230 12.625000
    endloop
  endfacet
  facet normal 0.000000 0.000000 1.000000
    outer loop
      vertex 32.801000 28.180000 12.625000
      vertex 19.376322 32.233230 12.625000
      vertex 21.710230 29.899322 12.625000
    endloop
  endfacet
  facet normal 0.000000 0.000000 1.000000
    outer loop
      vertex 25.500000 20.879000 12.625000
      vertex 32.801000 28.180000 12.625000
      vertex 21.710230 26.598678 12.625000
    endloop
  endfacet
  facet normal 0.000000 0.000000 1.000000
    outer loop
      vertex 25.500000 20.879000 12.625000
      vertex 21.710230 26.598678 12.625000
      vertex 19.376322 24.264770 12.625000
    endloop
  endfacet
  facet normal 0.000000 0.000000 1.000000
    outer loop
      vertex 25.500000 20.879000 12.625000
      vertex 16.075678 24.264770 12.625000
      vertex 2.649000 28.050000 12.625000
    endloop
  endfacet
  facet normal 0.000000 0.000000 1.000000
    outer loop
      vertex 27.000000 2.000000 12.625000
      vertex 15.500000 6.000000 12.625000
      vertex 10.500000 6.000000 12.625000
    endloop
  endfacet
  facet normal 0.000000 0.000000 1.000000
    outer loop
      vertex 45.336678 82.896230 12.625000
      vertex 48.637322 82.896230 12.625000
      vertex 52.014000 88.570000 12.625000
    endloop
  endfacet
  facet normal -0.000000 0.000000 1.000000
    outer loop
      vertex 20.500000 19.000000 12.625000
      vertex 25.500000 20.879000 12.625000
      vertex 15.500000 19.000000 12.625000
    endloop
  endfacet
  facet normal 0.000000 -0.000000 1.000000
    outer loop
      vertex 50.971230 80.562322 12.625000
      vertex 50.971230 77.261678 12.625000
      vertex 58.000000 78.201000 12.625000
    endloop
  endfacet
  facet normal 0.000000 0.000000 1.000000
    outer loop
      vertex 27.000000 2.000000 12.625000
      vertex 20.500000 6.000000 12.625000
      vertex 15.500000 6.000000 12.625000
    endloop
  endfacet
  facet normal 0.000000 0.000000 1.000000
    outer loop
      vertex 20.500000 19.000000 12.625000
      vertex 27.000000 2.000000 12.625000
      vertex 25.500000 6.000000 12.625000
    endloop
  endfacet
  facet normal 0.000000 0.000000 1.000000
    outer loop
      vertex 25.500000 6.000000 12.625000
      vertex 25.500000 20.879000 12.625000
      vertex 20.500000 19.000000 12.625000
    endloop
  endfacet
  facet normal 0.000000 -0.000000 1.000000
    outer loop
      vertex 21.710230 29.899322 12.625000
      vertex 21.710230 26.598678 12.625000
      vertex 32.801000 28.180000 12.625000
    endloop
  endfacet
  facet normal 0.000000 0.000000 1.000000
    outer loop
      vertex 27.880600 53.682600 12.625000
      vertex 58.000000 78.201000 12.625000
      vertex 37.076546 62.022195 12.625000
    endloop
  endfacet
  facet normal 0.000000 0.000000 1.000000
    outer loop
      vertex 27.880600 53.682600 12.625000
      vertex 37.261000 56.097000 12.625000
      vertex 58.000000 78.201000 12.625000
    endloop
  endfacet
  facet normal 0.000000 0.000000 1.000000
    outer loop
      vertex 13.741770 26.598678 12.625000
      vertex 13.741770 29.899322 12.625000
      vertex 2.649000 28.050000 12.625000
    endloop
  endfacet
  facet normal 0.000000 -0.000000 1.000000
    outer loop
      vertex 19.376322 24.264770 12.625000
      vertex 16.075678 24.264770 12.625000
      vertex 25.500000 20.879000 12.625000
    endloop
  endfacet
  facet normal 0.000000 0.000000 1.000000
    outer loop
      vertex 27.880600 45.582866 12.625000
      vertex 9.789400 45.582866 12.625000
      vertex 2.649000 28.050000 12.625000
    endloop
  endfacet
  facet normal -0.707107 -0.707107 0.000000
    outer loop
      vertex 2.649000 28.050000 0.000000
      vertex 10.500000 20.199000 0.000000
      vertex 10.500000 20.199000 12.625000
    endloop
  endfacet
  facet normal -0.707107 -0.707107 0.000000
    outer loop
      vertex 2.649000 28.050000 12.625000
      vertex 2.649000 28.050000 0.000000
      vertex 10.500000 20.199000 12.625000
    endloop
  endfacet
  facet normal -1.000000 -0.000000 0.000000
    outer loop
      vertex 2.649000 43.049398 3.263102
      vertex 2.649000 50.551000 12.625000
      vertex 2.649000 50.551000 0.000000
    endloop
  endfacet
  facet normal -1.000000 0.000000 0.000000
    outer loop
      vertex 2.649000 28.050000 12.625000
      vertex 2.649000 35.687501 6.312500
      vertex 2.649000 28.050000 0.000000
    endloop
  endfacet
  facet normal -1.000000 0.000000 0.000000
    outer loop
      vertex 2.649000 43.049398 3.263102
      vertex 2.649000 50.551000 0.000000
      vertex 2.649000 40.000000 2.000001
    endloop
  endfacet
  facet normal -1.000000 0.000000 0.000000
    outer loop
      vertex 2.649000 28.050000 0.000000
      vertex 2.649000 36.950602 3.263102
      vertex 2.649000 40.000000 2.000001
    endloop
  endfacet
  facet normal -1.000000 -0.000000 0.000000
    outer loop
      vertex 2.649000 28.050000 0.000000
      vertex 2.649000 40.000000 2.000001
      vertex 2.649000 50.551000 0.000000
    endloop
  endfacet
  facet normal -1.000000 -0.000000 0.000000
    outer loop
      vertex 2.649000 44.312499 6.312500
      vertex 2.649000 50.551000 12.625000
      vertex 2.649000 43.049398 3.263102
    endloop
  endfacet
  facet normal -1.000000 -0.000000 0.000000
    outer loop
      vertex 2.649000 43.049398 9.361898
      vertex 2.649000 50.551000 12.625000
      vertex 2.649000 44.312499 6.312500
    endloop
  endfacet
  facet normal -1.000000 0.000000 0.000000
    outer loop
      vertex 2.649000 28.050000 12.625000
      vertex 2.649000 50.551000 12.625000
      vertex 2.649000 40.000000 10.624999
    endloop
  endfacet
  facet normal -1.000000 0.000000 0.000000
    outer loop
      vertex 2.649000 28.050000 12.625000
      vertex 2.649000 40.000000 10.624999
      vertex 2.649000 36.950602 9.361898
    endloop
  endfacet
  facet normal -1.000000 0.000000 0.000000
    outer loop
      vertex 2.649000 28.050000 12.625000
      vertex 2.649000 36.950602 9.361898
      vertex 2.649000 35.687501 6.312500
    endloop
  endfacet
  facet normal -1.000000 0.000000 0.000000
    outer loop
      vertex 2.649000 36.950602 3.263102
      vertex 2.649000 28.050000 0.000000
      vertex 2.649000 35.687501 6.312500
    endloop
  endfacet
  facet normal -1.000000 -0.000000 0.000000
    outer loop
      vertex 2.649000 40.000000 10.624999
      vertex 2.649000 50.551000 12.625000
      vertex 2.649000 43.049398 9.361898
    endloop
  endfacet
  facet normal -1.000000 0.000000 0.000000
    outer loop
      vertex 10.500000 6.000000 12.625000
      vertex 10.500000 20.199000 12.625000
      vertex 10.500000 6.000000 0.000000
    endloop
  endfacet
  facet normal -1.000000 -0.000000 0.000000
    outer loop
      vertex 10.500000 6.000000 0.000000
      vertex 10.500000 20.199000 12.625000
      vertex 10.500000 20.199000 0.000000
    endloop
  endfacet
  facet normal 0.000000 1.000000 -0.000000
    outer loop
      vertex 9.000000 6.000000 12.625000
      vertex 10.500000 6.000000 12.625000
      vertex 9.000000 6.000000 0.000000
    endloop
  endfacet
  facet normal 0.000000 1.000000 0.000000
    outer loop
      vertex 9.000000 6.000000 0.000000
      vertex 10.500000 6.000000 12.625000
      vertex 10.500000 6.000000 0.000000
    endloop
  endfacet
  facet normal -1.000000 0.000000 0.000000
    outer loop
      vertex 9.000000 2.000000 12.625000
      vertex 9.000000 6.000000 12.625000
      vertex 9.000000 2.000000 0.000000
    endloop
  endfacet
  facet normal -1.000000 -0.000000 0.000000
    outer loop
      vertex 9.000000 2.000000 0.000000
      vertex 9.000000 6.000000 12.625000
      vertex 9.000000 6.000000 0.000000
    endloop
  endfacet
  facet normal -0.000000 -1.000000 0.000000
    outer loop
      vertex 9.000000 2.000000 0.000000
      vertex 27.000000 2.000000 0.000000
      vertex 27.000000 2.000000 12.625000
    endloop
  endfacet
  facet normal 0.000000 -1.000000 0.000000
    outer loop
      vertex 9.000000 2.000000 12.625000
      vertex 9.000000 2.000000 0.000000
      vertex 27.000000 2.000000 12.625000
    endloop
  endfacet
  facet normal 1.000000 0.000000 0.000000
    outer loop
      vertex 27.000000 2.000000 0.000000
      vertex 27.000000 6.000000 0.000000
      vertex 27.000000 6.000000 12.625000
    endloop
  endfacet
  facet normal 1.000000 0.000000 -0.000000
    outer loop
      vertex 27.000000 2.000000 12.625000
      vertex 27.000000 2.000000 0.000000
      vertex 27.000000 6.000000 12.625000
    endloop
  endfacet
  facet normal 0.000000 1.000000 -0.000000
    outer loop
      vertex 25.500000 6.000000 12.625000
      vertex 27.000000 6.000000 12.625000
      vertex 25.500000 6.000000 0.000000
    endloop
  endfacet
  facet normal 0.000000 1.000000 0.000000
    outer loop
      vertex 25.500000 6.000000 0.000000
      vertex 27.000000 6.000000 12.625000
      vertex 27.000000 6.000000 0.000000
    endloop
  endfacet
  facet normal 1.000000 0.000000 0.000000
    outer loop
      vertex 25.500000 6.000000 0.000000
      vertex 25.500000 20.879000 0.000000
      vertex 25.500000 20.879000 12.625000
    endloop
  endfacet
  facet normal 1.000000 0.000000 -0.000000
    outer loop
      vertex 25.500000 6.000000 12.625000
      vertex 25.500000 6.000000 0.000000
      vertex 25.500000 20.879000 12.625000
    endloop
  endfacet
  facet normal 0.707107 -0.707107 0.000000
    outer loop
      vertex 25.500000 20.879000 0.000000
      vertex 32.801000 28.180000 0.000000
      vertex 32.801000 28.180000 12.625000
    endloop
  endfacet
  facet normal 0.707107 -0.707107 0.000000
    outer loop
      vertex 25.500000 20.879000 12.625000
      vertex 25.500000 20.879000 0.000000
      vertex 32.801000 28.180000 12.625000
    endloop
  endfacet
  facet normal 1.000000 0.000000 0.000000
    outer loop
      vertex 32.801000 44.312499 6.312500
      vertex 32.801000 48.471000 0.000000
      vertex 32.801000 48.471000 12.625000
    endloop
  endfacet
  facet normal 1.000000 -0.000000 0.000000
    outer loop
      vertex 32.801000 40.000000 2.000001
      vertex 32.801000 36.950602 3.263102
      vertex 32.801000 28.180000 0.000000
    endloop
  endfacet
  facet normal 1.000000 0.000000 -0.000000
    outer loop
      vertex 32.801000 28.180000 12.625000
      vertex 32.801000 28.180000 0.000000
      vertex 32.801000 35.687501 6.312500
    endloop
  endfacet
  facet normal 1.000000 0.000000 0.000000
    outer loop
      vertex 32.801000 28.180000 12.625000
      vertex 32.801000 35.687501 6.312500
      vertex 32.801000 36.950602 9.361898
    endloop
  endfacet
  facet normal 1.000000 0.000000 0.000000
    outer loop
      vertex 32.801000 28.180000 12.625000
      vertex 32.801000 40.000000 10.624999
      vertex 32.801000 48.471000 12.625000
    endloop
  endfacet
  facet normal 1.000000 0.000000 0.000000
    outer loop
      vertex 32.801000 28.180000 12.625000
      vertex 32.801000 36.950602 9.361898
      vertex 32.801000 40.000000 10.624999
    endloop
  endfacet
  facet normal 1.000000 0.000000 0.000000
    outer loop
      vertex 32.801000 40.000000 10.624999
      vertex 32.801000 43.049398 9.361898
      vertex 32.801000 48.471000 12.625000
    endloop
  endfacet
  facet normal 1.000000 0.000000 0.000000
    outer loop
      vertex 32.801000 43.049398 3.263102
      vertex 32.801000 48.471000 0.000000
      vertex 32.801000 44.312499 6.312500
    endloop
  endfacet
  facet normal 1.000000 0.000000 0.000000
    outer loop
      vertex 32.801000 40.000000 2.000001
      vertex 32.801000 48.471000 0.000000
      vertex 32.801000 43.049398 3.263102
    endloop
  endfacet
  facet normal 1.000000 0.000000 0.000000
    outer loop
      vertex 32.801000 28.180000 0.000000
      vertex 32.801000 48.471000 0.000000
      vertex 32.801000 40.000000 2.000001
    endloop
  endfacet
  facet normal 1.000000 0.000000 0.000000
    outer loop
      vertex 32.801000 43.049398 9.361898
      vertex 32.801000 44.312499 6.312500
      vertex 32.801000 48.471000 12.625000
    endloop
  endfacet
  facet normal 1.000000 -0.000000 0.000000
    outer loop
      vertex 32.801000 36.950602 3.263102
      vertex 32.801000 35.687501 6.312500
      vertex 32.801000 28.180000 0.000000
    endloop
  endfacet
  facet normal 0.863212 -0.504842 0.000000
    outer loop
      vertex 32.801000 48.471000 0.000000
      vertex 37.261000 56.097000 0.000000
      vertex 37.261000 56.097000 12.625000
    endloop
  endfacet
  facet normal 0.863212 -0.504842 0.000000
    outer loop
      vertex 32.801000 48.471000 12.625000
      vertex 32.801000 48.471000 0.000000
      vertex 37.261000 56.097000 12.625000
    endloop
  endfacet
  facet normal 0.499970 -0.866042 0.000000
    outer loop
      vertex 47.979324 62.284739 6.312500
      vertex 54.595000 66.104000 0.000000
      vertex 54.595000 66.104000 12.625000
    endloop
  endfacet
  facet normal 0.499970 -0.866042 0.000000
    outer loop
      vertex 37.261000 56.097000 12.625000
      vertex 37.261000 56.097000 0.000000
      vertex 40.509709 57.972495 6.312500
    endloop
  endfacet
  facet normal 0.499970 -0.866042 -0.000000
    outer loop
      vertex 37.261000 56.097000 12.625000
      vertex 40.509709 57.972495 6.312500
      vertex 41.603609 58.604008 9.361898
    endloop
  endfacet
  facet normal 0.499970 -0.866042 0.000000
    outer loop
      vertex 37.261000 56.097000 12.625000
      vertex 44.244517 60.128617 10.624999
      vertex 54.595000 66.104000 12.625000
    endloop
  endfacet
  facet normal 0.499970 -0.866042 0.000000
    outer loop
      vertex 37.261000 56.097000 12.625000
      vertex 41.603609 58.604008 9.361898
      vertex 44.244517 60.128617 10.624999
    endloop
  endfacet
  facet normal 0.499970 -0.866042 0.000000
    outer loop
      vertex 46.885424 61.653226 3.263102
      vertex 54.595000 66.104000 0.000000
      vertex 47.979324 62.284739 6.312500
    endloop
  endfacet
  facet normal 0.499970 -0.866042 -0.000000
    outer loop
      vertex 44.244516 60.128617 2.000001
      vertex 54.595000 66.104000 0.000000
      vertex 46.885424 61.653226 3.263102
    endloop
  endfacet
  facet normal 0.499970 -0.866042 -0.000000
    outer loop
      vertex 37.261000 56.097000 0.000000
      vertex 54.595000 66.104000 0.000000
      vertex 44.244516 60.128617 2.000001
    endloop
  endfacet
  facet normal 0.499970 -0.866042 -0.000000
    outer loop
      vertex 44.244516 60.128617 2.000001
      vertex 41.603609 58.604008 3.263102
      vertex 37.261000 56.097000 0.000000
    endloop
  endfacet
  facet normal 0.499970 -0.866042 0.000000
    outer loop
      vertex 40.509709 57.972495 6.312500
      vertex 37.261000 56.097000 0.000000
      vertex 41.603609 58.604008 3.263102
    endloop
  endfacet
  facet normal 0.499970 -0.866042 0.000000
    outer loop
      vertex 44.244517 60.128617 10.624999
      vertex 46.885424 61.653226 9.361898
      vertex 54.595000 66.104000 12.625000
    endloop
  endfacet
  facet normal 0.499970 -0.866042 -0.000000
    outer loop
      vertex 46.885424 61.653226 9.361898
      vertex 47.979324 62.284739 6.312500
      vertex 54.595000 66.104000 12.625000
    endloop
  endfacet
  facet normal -0.499981 0.866037 0.000000
    outer loop
      vertex 32.013503 87.412149 3.263102
      vertex 39.723000 91.863000 12.625000
      vertex 39.723000 91.863000 0.000000
    endloop
  endfacet
  facet normal -0.499981 0.866037 -0.000000
    outer loop
      vertex 26.731724 84.362868 9.361898
      vertex 19.890000 80.413000 12.625000
      vertex 29.372614 85.887508 10.624999
    endloop
  endfacet
  facet normal -0.499981 0.866037 0.000000
    outer loop
      vertex 19.890000 80.413000 12.625000
      vertex 25.637832 83.731342 6.312500
      vertex 19.890000 80.413000 0.000000
    endloop
  endfacet
  facet normal -0.499981 0.866037 0.000000
    outer loop
      vertex 32.013503 87.412149 3.263102
      vertex 39.723000 91.863000 0.000000
      vertex 29.372613 85.887508 2.000001
    endloop
  endfacet
  facet normal -0.499981 0.866037 -0.000000
    outer loop
      vertex 19.890000 80.413000 0.000000
      vertex 26.731724 84.362868 3.263102
      vertex 29.372613 85.887508 2.000001
    endloop
  endfacet
  facet normal -0.499981 0.866037 0.000000
    outer loop
      vertex 19.890000 80.413000 0.000000
      vertex 29.372613 85.887508 2.000001
      vertex 39.723000 91.863000 0.000000
    endloop
  endfacet
  facet normal -0.499981 0.866037 -0.000000
    outer loop
      vertex 33.107396 88.043675 6.312500
      vertex 39.723000 91.863000 12.625000
      vertex 32.013503 87.412149 3.263102
    endloop
  endfacet
  facet normal -0.499981 0.866037 -0.000000
    outer loop
      vertex 32.013503 87.412148 9.361898
      vertex 39.723000 91.863000 12.625000
      vertex 33.107396 88.043675 6.312500
    endloop
  endfacet
  facet normal -0.499981 0.866037 0.000000
    outer loop
      vertex 29.372614 85.887508 10.624999
      vertex 39.723000 91.863000 12.625000
      vertex 32.013503 87.412148 9.361898
    endloop
  endfacet
  facet normal -0.499981 0.866037 -0.000000
    outer loop
      vertex 19.890000 80.413000 12.625000
      vertex 39.723000 91.863000 12.625000
      vertex 29.372614 85.887508 10.624999
    endloop
  endfacet
  facet normal -0.499981 0.866037 -0.000000
    outer loop
      vertex 19.890000 80.413000 12.625000
      vertex 26.731724 84.362868 9.361898
      vertex 25.637832 83.731342 6.312500
    endloop
  endfacet
  facet normal -0.499981 0.866037 0.000000
    outer loop
      vertex 26.731724 84.362868 3.263102
      vertex 19.890000 80.413000 0.000000
      vertex 25.637832 83.731342 6.312500
    endloop
  endfacet
  facet normal -0.866023 0.500004 0.000000
    outer loop
      vertex 2.649000 50.551000 12.625000
      vertex 19.890000 80.413000 12.625000
      vertex 2.649000 50.551000 0.000000
    endloop
  endfacet
  facet normal -0.866023 0.500004 0.000000
    outer loop
      vertex 2.649000 50.551000 0.000000
      vertex 19.890000 80.413000 12.625000
      vertex 19.890000 80.413000 0.000000
    endloop
  endfacet
  facet normal 1.000000 0.000000 0.000000
    outer loop
      vertex 43.002770 77.261678 0.000000
      vertex 43.002770 80.562322 0.000000
      vertex 43.002770 80.562322 12.625000
    endloop
  endfacet
  facet normal 1.000000 0.000000 -0.000000
    outer loop
      vertex 43.002770 77.261678 12.625000
      vertex 43.002770 77.261678 0.000000
      vertex 43.002770 80.562322 12.625000
    endloop
  endfacet
  facet normal 0.707107 0.707107 -0.000000
    outer loop
      vertex 43.002770 77.261678 12.625000
      vertex 45.336678 74.927770 12.625000
      vertex 43.002770 77.261678 0.000000
    endloop
  endfacet
  facet normal 0.707107 0.707107 0.000000
    outer loop
      vertex 43.002770 77.261678 0.000000
      vertex 45.336678 74.927770 12.625000
      vertex 45.336678 74.927770 0.000000
    endloop
  endfacet
  facet normal 0.707107 -0.707107 0.000000
    outer loop
      vertex 43.002770 80.562322 0.000000
      vertex 45.336678 82.896230 0.000000
      vertex 45.336678 82.896230 12.625000
    endloop
  endfacet
  facet normal 0.707107 -0.707107 0.000000
    outer loop
      vertex 43.002770 80.562322 12.625000
      vertex 43.002770 80.562322 0.000000
      vertex 45.336678 82.896230 12.625000
    endloop
  endfacet
  facet normal -0.000000 -1.000000 0.000000
    outer loop
      vertex 45.336678 82.896230 0.000000
      vertex 48.637322 82.896230 0.000000
      vertex 48.637322 82.896230 12.625000
    endloop
  endfacet
  facet normal 0.000000 -1.000000 0.000000
    outer loop
      vertex 45.336678 82.896230 12.625000
      vertex 45.336678 82.896230 0.000000
      vertex 48.637322 82.896230 12.625000
    endloop
  endfacet
  facet normal -0.707107 -0.707107 0.000000
    outer loop
      vertex 48.637322 82.896230 0.000000
      vertex 50.971230 80.562322 0.000000
      vertex 50.971230 80.562322 12.625000
    endloop
  endfacet
  facet normal -0.707107 -0.707107 0.000000
    outer loop
      vertex 48.637322 82.896230 12.625000
      vertex 48.637322 82.896230 0.000000
      vertex 50.971230 80.562322 12.625000
    endloop
  endfacet
  facet normal -1.000000 0.000000 0.000000
    outer loop
      vertex 50.971230 77.261678 12.625000
      vertex 50.971230 80.562322 12.625000
      vertex 50.971230 77.261678 0.000000
    endloop
  endfacet
  facet normal -1.000000 -0.000000 0.000000
    outer loop
      vertex 50.971230 77.261678 0.000000
      vertex 50.971230 80.562322 12.625000
      vertex 50.971230 80.562322 0.000000
    endloop
  endfacet
  facet normal -0.707107 0.707107 0.000000
    outer loop
      vertex 48.637322 74.927770 12.625000
      vertex 50.971230 77.261678 12.625000
      vertex 48.637322 74.927770 0.000000
    endloop
  endfacet
  facet normal -0.707107 0.707107 0.000000
    outer loop
      vertex 48.637322 74.927770 0.000000
      vertex 50.971230 77.261678 12.625000
      vertex 50.971230 77.261678 0.000000
    endloop
  endfacet
  facet normal 0.000000 1.000000 -0.000000
    outer loop
      vertex 45.336678 74.927770 12.625000
      vertex 48.637322 74.927770 12.625000
      vertex 45.336678 74.927770 0.000000
    endloop
  endfacet
  facet normal 0.000000 1.000000 0.000000
    outer loop
      vertex 45.336678 74.927770 0.000000
      vertex 48.637322 74.927770 12.625000
      vertex 48.637322 74.927770 0.000000
    endloop
  endfacet
  facet normal 1.000000 0.000000 0.000000
    outer loop
      vertex 9.789400 46.098795 0.213705
      vertex 9.789400 54.930600 0.000000
      vertex 9.789400 54.930600 12.625000
    endloop
  endfacet
  facet normal 1.000000 0.000000 0.000000
    outer loop
      vertex 9.789400 45.582866 12.625000
      vertex 9.789400 46.098795 12.411295
      vertex 9.789400 54.930600 12.625000
    endloop
  endfacet
  facet normal 1.000000 0.000000 0.000000
    outer loop
      vertex 9.789400 46.098795 12.411295
      vertex 9.789400 48.624999 6.312500
      vertex 9.789400 54.930600 12.625000
    endloop
  endfacet
  facet normal 1.000000 0.000000 0.000000
    outer loop
      vertex 9.789400 45.582866 0.000000
      vertex 9.789400 54.930600 0.000000
      vertex 9.789400 46.098795 0.213705
    endloop
  endfacet
  facet normal 1.000000 0.000000 -0.000000
    outer loop
      vertex 9.789400 48.624999 6.312500
      vertex 9.789400 46.098795 0.213705
      vertex 9.789400 54.930600 12.625000
    endloop
  endfacet
  facet normal 0.000000 0.382683 -0.923880
    outer loop
      vertex 9.789400 46.098795 0.213705
      vertex 27.880600 46.098795 0.213705
      vertex 9.789400 45.582866 0.000000
    endloop
  endfacet
  facet normal 0.000000 0.382683 -0.923880
    outer loop
      vertex 9.789400 45.582866 0.000000
      vertex 27.880600 46.098795 0.213705
      vertex 27.880600 45.582866 0.000000
    endloop
  endfacet
  facet normal 0.866023 -0.500004 0.000000
    outer loop
      vertex 9.789400 54.930600 0.000000
      vertex 20.134000 72.847800 0.000000
      vertex 20.134000 72.847800 12.625000
    endloop
  endfacet
  facet normal 0.866023 -0.500004 0.000000
    outer loop
      vertex 9.789400 54.930600 12.625000
      vertex 9.789400 54.930600 0.000000
      vertex 20.134000 72.847800 12.625000
    endloop
  endfacet
  facet normal 0.499981 -0.866037 0.000000
    outer loop
      vertex 27.706574 77.219603 12.411295
      vertex 20.134000 72.847800 12.625000
      vertex 20.134000 72.847800 0.000000
    endloop
  endfacet
  facet normal 0.499981 -0.866037 0.000000
    outer loop
      vertex 20.134000 72.847800 0.000000
      vertex 28.153387 77.477558 0.000000
      vertex 27.706574 77.219603 0.213705
    endloop
  endfacet
  facet normal 0.499981 -0.866037 0.000000
    outer loop
      vertex 25.518790 75.956550 6.312500
      vertex 20.134000 72.847800 0.000000
      vertex 27.706574 77.219603 0.213705
    endloop
  endfacet
  facet normal 0.499981 -0.866037 0.000000
    outer loop
      vertex 25.518790 75.956550 6.312500
      vertex 27.706574 77.219603 12.411295
      vertex 20.134000 72.847800 0.000000
    endloop
  endfacet
  facet normal 0.499981 -0.866037 -0.000000
    outer loop
      vertex 28.153388 77.477558 12.625000
      vertex 20.134000 72.847800 12.625000
      vertex 27.706574 77.219603 12.411295
    endloop
  endfacet
  facet normal -0.331414 -0.191342 -0.923880
    outer loop
      vertex 28.153387 77.477558 0.000000
      vertex 37.076545 62.022195 0.000000
      vertex 27.706574 77.219603 0.213705
    endloop
  endfacet
  facet normal -0.331414 -0.191342 -0.923880
    outer loop
      vertex 27.706574 77.219603 0.213705
      vertex 37.076545 62.022195 0.000000
      vertex 36.629729 61.764246 0.213705
    endloop
  endfacet
  facet normal -0.499970 0.866042 0.000000
    outer loop
      vertex 30.556600 58.258200 12.625000
      vertex 36.629729 61.764246 12.411295
      vertex 30.556600 58.258200 0.000000
    endloop
  endfacet
  facet normal -0.499970 0.866042 0.000000
    outer loop
      vertex 30.556600 58.258200 12.625000
      vertex 37.076546 62.022195 12.625000
      vertex 36.629729 61.764246 12.411295
    endloop
  endfacet
  facet normal -0.499970 0.866042 -0.000000
    outer loop
      vertex 30.556600 58.258200 0.000000
      vertex 34.441929 60.501219 6.312500
      vertex 36.629729 61.764246 0.213705
    endloop
  endfacet
  facet normal -0.499970 0.866042 0.000000
    outer loop
      vertex 36.629729 61.764246 0.213705
      vertex 37.076545 62.022195 0.000000
      vertex 30.556600 58.258200 0.000000
    endloop
  endfacet
  facet normal -0.499970 0.866042 0.000000
    outer loop
      vertex 34.441929 60.501219 6.312500
      vertex 30.556600 58.258200 0.000000
      vertex 36.629729 61.764246 12.411295
    endloop
  endfacet
  facet normal -0.863212 0.504842 0.000000
    outer loop
      vertex 27.880600 53.682600 12.625000
      vertex 30.556600 58.258200 12.625000
      vertex 27.880600 53.682600 0.000000
    endloop
  endfacet
  facet normal -0.863212 0.504842 0.000000
    outer loop
      vertex 27.880600 53.682600 0.000000
      vertex 30.556600 58.258200 12.625000
      vertex 30.556600 58.258200 0.000000
    endloop
  endfacet
  facet normal -1.000000 0.000000 0.000000
    outer loop
      vertex 27.880600 53.682600 12.625000
      vertex 27.880600 48.624999 6.312500
      vertex 27.880600 46.098795 12.411295
    endloop
  endfacet
  facet normal -1.000000 0.000000 0.000000
    outer loop
      vertex 27.880600 53.682600 12.625000
      vertex 27.880600 46.098795 12.411295
      vertex 27.880600 45.582866 12.625000
    endloop
  endfacet
  facet normal -1.000000 0.000000 0.000000
    outer loop
      vertex 27.880600 46.098795 0.213705
      vertex 27.880600 48.624999 6.312500
      vertex 27.880600 53.682600 12.625000
    endloop
  endfacet
  facet normal -1.000000 -0.000000 0.000000
    outer loop
      vertex 27.880600 46.098795 0.213705
      vertex 27.880600 53.682600 12.625000
      vertex 27.880600 53.682600 0.000000
    endloop
  endfacet
  facet normal -1.000000 0.000000 0.000000
    outer loop
      vertex 27.880600 46.098795 0.213705
      vertex 27.880600 53.682600 0.000000
      vertex 27.880600 45.582866 0.000000
    endloop
  endfacet
  facet normal 0.707107 0.707107 -0.000000
    outer loop
      vertex 13.741770 26.598678 12.625000
      vertex 16.075678 24.264770 12.625000
      vertex 13.741770 26.598678 0.000000
    endloop
  endfacet
  facet normal 0.707107 0.707107 0.000000
    outer loop
      vertex 13.741770 26.598678 0.000000
      vertex 16.075678 24.264770 12.625000
      vertex 16.075678 24.264770 0.000000
    endloop
  endfacet
  facet normal 1.000000 0.000000 0.000000
    outer loop
      vertex 13.741770 26.598678 0.000000
      vertex 13.741770 29.899322 0.000000
      vertex 13.741770 29.899322 12.625000
    endloop
  endfacet
  facet normal 1.000000 0.000000 -0.000000
    outer loop
      vertex 13.741770 26.598678 12.625000
      vertex 13.741770 26.598678 0.000000
      vertex 13.741770 29.899322 12.625000
    endloop
  endfacet
  facet normal 0.707107 -0.707107 0.000000
    outer loop
      vertex 13.741770 29.899322 0.000000
      vertex 16.075678 32.233230 0.000000
      vertex 16.075678 32.233230 12.625000
    endloop
  endfacet
  facet normal 0.707107 -0.707107 0.000000
    outer loop
      vertex 13.741770 29.899322 12.625000
      vertex 13.741770 29.899322 0.000000
      vertex 16.075678 32.233230 12.625000
    endloop
  endfacet
  facet normal -0.000000 -1.000000 0.000000
    outer loop
      vertex 16.075678 32.233230 0.000000
      vertex 19.376322 32.233230 0.000000
      vertex 19.376322 32.233230 12.625000
    endloop
  endfacet
  facet normal 0.000000 -1.000000 0.000000
    outer loop
      vertex 16.075678 32.233230 12.625000
      vertex 16.075678 32.233230 0.000000
      vertex 19.376322 32.233230 12.625000
    endloop
  endfacet
  facet normal -0.707107 -0.707107 0.000000
    outer loop
      vertex 19.376322 32.233230 0.000000
      vertex 21.710230 29.899322 0.000000
      vertex 21.710230 29.899322 12.625000
    endloop
  endfacet
  facet normal -0.707107 -0.707107 0.000000
    outer loop
      vertex 19.376322 32.233230 12.625000
      vertex 19.376322 32.233230 0.000000
      vertex 21.710230 29.899322 12.625000
    endloop
  endfacet
  facet normal -1.000000 0.000000 0.000000
    outer loop
      vertex 21.710230 26.598678 12.625000
      vertex 21.710230 29.899322 12.625000
      vertex 21.710230 26.598678 0.000000
    endloop
  endfacet
  facet normal -1.000000 -0.000000 0.000000
    outer loop
      vertex 21.710230 26.598678 0.000000
      vertex 21.710230 29.899322 12.625000
      vertex 21.710230 29.899322 0.000000
    endloop
  endfacet
  facet normal -0.707107 0.707107 0.000000
    outer loop
      vertex 19.376322 24.264770 12.625000
      vertex 21.710230 26.598678 12.625000
      vertex 19.376322 24.264770 0.000000
    endloop
  endfacet
  facet normal -0.707107 0.707107 0.000000
    outer loop
      vertex 19.376322 24.264770 0.000000
      vertex 21.710230 26.598678 12.625000
      vertex 21.710230 26.598678 0.000000
    endloop
  endfacet
  facet normal 0.000000 1.000000 -0.000000
    outer loop
      vertex 16.075678 24.264770 12.625000
      vertex 19.376322 24.264770 12.625000
      vertex 16.075678 24.264770 0.000000
    endloop
  endfacet
  facet normal 0.000000 1.000000 0.000000
    outer loop
      vertex 16.075678 24.264770 0.000000
      vertex 19.376322 24.264770 12.625000
      vertex 19.376322 24.264770 0.000000
    endloop
  endfacet
  facet normal 0.000000 1.000000 -0.000000
    outer loop
      vertex 15.500000 6.000000 12.625000
      vertex 20.500000 6.000000 12.625000
      vertex 15.500000 6.000000 0.000000
    endloop
  endfacet
  facet normal 0.000000 1.000000 0.000000
    outer loop
      vertex 15.500000 6.000000 0.000000
      vertex 20.500000 6.000000 12.625000
      vertex 20.500000 6.000000 0.000000
    endloop
  endfacet
  facet normal 1.000000 0.000000 0.000000
    outer loop
      vertex 15.500000 6.000000 0.000000
      vertex 15.500000 19.000000 0.000000
      vertex 15.500000 19.000000 12.625000
    endloop
  endfacet
  facet normal 1.000000 0.000000 -0.000000
    outer loop
      vertex 15.500000 6.000000 12.625000
      vertex 15.500000 6.000000 0.000000
      vertex 15.500000 19.000000 12.625000
    endloop
  endfacet
  facet normal -0.000000 -1.000000 0.000000
    outer loop
      vertex 15.500000 19.000000 0.000000
      vertex 20.500000 19.000000 0.000000
      vertex 20.500000 19.000000 12.625000
    endloop
  endfacet
  facet normal 0.000000 -1.000000 0.000000
    outer loop
      vertex 15.500000 19.000000 12.625000
      vertex 15.500000 19.000000 0.000000
      vertex 20.500000 19.000000 12.625000
    endloop
  endfacet
  facet normal -1.000000 0.000000 0.000000
    outer loop
      vertex 20.500000 6.000000 12.625000
      vertex 20.500000 19.000000 12.625000
      vertex 20.500000 6.000000 0.000000
    endloop
  endfacet
  facet normal -1.000000 -0.000000 0.000000
    outer loop
      vertex 20.500000 6.000000 0.000000
      vertex 20.500000 19.000000 12.625000
      vertex 20.500000 19.000000 0.000000
    endloop
  endfacet
  facet normal -0.000000 0.382683 0.923880
    outer loop
      vertex 9.789400 45.582866 12.625000
      vertex 27.880600 45.582866 12.625000
      vertex 27.880600 46.098795 12.411295
    endloop
  endfacet
  facet normal -0.000000 0.382683 0.923880
    outer loop
      vertex 9.789400 46.098795 12.411295
      vertex 9.789400 45.582866 12.625000
      vertex 27.880600 46.098795 12.411295
    endloop
  endfacet
  facet normal -0.331414 -0.191342 0.923880
    outer loop
      vertex 27.706574 77.219603 12.411295
      vertex 36.629729 61.764246 12.411295
      vertex 37.076546 62.022195 12.625000
    endloop
  endfacet
  facet normal -0.331414 -0.191342 0.923880
    outer loop
      vertex 28.153388 77.477558 12.625000
      vertex 27.706574 77.219603 12.411295
      vertex 37.076546 62.022195 12.625000
    endloop
  endfacet
  facet normal -0.000000 0.923880 0.382683
    outer loop
      vertex 32.801000 35.687501 6.312500
      vertex 32.801000 36.950602 3.263102
      vertex 2.649000 35.687501 6.312500
    endloop
  endfacet
  facet normal -0.000000 0.923880 0.382683
    outer loop
      vertex 2.649000 35.687501 6.312500
      vertex 32.801000 36.950602 3.263102
      vertex 2.649000 36.950602 3.263102
    endloop
  endfacet
  facet normal 0.000000 0.923880 -0.382683
    outer loop
      vertex 2.649000 36.950602 9.361898
      vertex 32.801000 36.950602 9.361898
      vertex 2.649000 35.687501 6.312500
    endloop
  endfacet
  facet normal 0.000000 0.923880 -0.382683
    outer loop
      vertex 2.649000 35.687501 6.312500
      vertex 32.801000 36.950602 9.361898
      vertex 32.801000 35.687501 6.312500
    endloop
  endfacet
  facet normal 0.000000 0.382683 -0.923880
    outer loop
      vertex 2.649000 40.000000 10.624999
      vertex 32.801000 40.000000 10.624999
      vertex 2.649000 36.950602 9.361898
    endloop
  endfacet
  facet normal 0.000000 0.382683 -0.923880
    outer loop
      vertex 2.649000 36.950602 9.361898
      vertex 32.801000 40.000000 10.624999
      vertex 32.801000 36.950602 9.361898
    endloop
  endfacet
  facet normal 0.000000 -0.382683 -0.923880
    outer loop
      vertex 2.649000 43.049398 9.361898
      vertex 32.801000 43.049398 9.361898
      vertex 2.649000 40.000000 10.624999
    endloop
  endfacet
  facet normal 0.000000 -0.382683 -0.923880
    outer loop
      vertex 2.649000 40.000000 10.624999
      vertex 32.801000 43.049398 9.361898
      vertex 32.801000 40.000000 10.624999
    endloop
  endfacet
  facet normal 0.000000 -0.923880 -0.382683
    outer loop
      vertex 2.649000 43.049398 9.361898
      vertex 2.649000 44.312499 6.312500
      vertex 32.801000 44.312499 6.312500
    endloop
  endfacet
  facet normal 0.000000 -0.923880 -0.382683
    outer loop
      vertex 32.801000 43.049398 9.361898
      vertex 2.649000 43.049398 9.361898
      vertex 32.801000 44.312499 6.312500
    endloop
  endfacet
  facet normal -0.000000 -0.923880 0.382683
    outer loop
      vertex 2.649000 43.049398 3.263102
      vertex 32.801000 43.049398 3.263102
      vertex 32.801000 44.312499 6.312500
    endloop
  endfacet
  facet normal -0.000000 -0.923880 0.382683
    outer loop
      vertex 2.649000 44.312499 6.312500
      vertex 2.649000 43.049398 3.263102
      vertex 32.801000 44.312499 6.312500
    endloop
  endfacet
  facet normal -0.000000 -0.382683 0.923880
    outer loop
      vertex 2.649000 40.000000 2.000001
      vertex 32.801000 40.000000 2.000001
      vertex 32.801000 43.049398 3.263102
    endloop
  endfacet
  facet normal -0.000000 -0.382683 0.923880
    outer loop
      vertex 2.649000 43.049398 3.263102
      vertex 2.649000 40.000000 2.000001
      vertex 32.801000 43.049398 3.263102
    endloop
  endfacet
  facet normal -0.000000 0.382683 0.923880
    outer loop
      vertex 2.649000 36.950602 3.263102
      vertex 32.801000 36.950602 3.263102
      vertex 32.801000 40.000000 2.000001
    endloop
  endfacet
  facet normal -0.000000 0.382683 0.923880
    outer loop
      vertex 2.649000 40.000000 2.000001
      vertex 2.649000 36.950602 3.263102
      vertex 32.801000 40.000000 2.000001
    endloop
  endfacet
  facet normal 0.800103 0.461940 0.382683
    outer loop
      vertex 25.637832 83.731342 6.312500
      vertex 40.509709 57.972495 6.312500
      vertex 41.603609 58.604008 3.263102
    endloop
  endfacet
  facet normal 0.800103 0.461940 0.382683
    outer loop
      vertex 26.731724 84.362868 3.263102
      vertex 25.637832 83.731342 6.312500
      vertex 41.603609 58.604008 3.263102
    endloop
  endfacet
  facet normal 0.800103 0.461940 -0.382683
    outer loop
      vertex 25.637832 83.731342 6.312500
      vertex 26.731724 84.362868 9.361898
      vertex 41.603609 58.604008 9.361898
    endloop
  endfacet
  facet normal 0.800103 0.461940 -0.382683
    outer loop
      vertex 40.509709 57.972495 6.312500
      vertex 25.637832 83.731342 6.312500
      vertex 41.603609 58.604008 9.361898
    endloop
  endfacet
  facet normal 0.331414 0.191342 0.923880
    outer loop
      vertex 26.731724 84.362868 3.263102
      vertex 41.603609 58.604008 3.263102
      vertex 44.244516 60.128617 2.000001
    endloop
  endfacet
  facet normal 0.331414 0.191342 0.923880
    outer loop
      vertex 29.372613 85.887508 2.000001
      vertex 26.731724 84.362868 3.263102
      vertex 44.244516 60.128617 2.000001
    endloop
  endfacet
  facet normal -0.331414 -0.191342 0.923880
    outer loop
      vertex 29.372613 85.887508 2.000001
      vertex 44.244516 60.128617 2.000001
      vertex 46.885424 61.653226 3.263102
    endloop
  endfacet
  facet normal -0.331414 -0.191342 0.923880
    outer loop
      vertex 32.013503 87.412149 3.263102
      vertex 29.372613 85.887508 2.000001
      vertex 46.885424 61.653226 3.263102
    endloop
  endfacet
  facet normal -0.800103 -0.461940 0.382683
    outer loop
      vertex 46.885424 61.653226 3.263102
      vertex 47.979324 62.284739 6.312500
      vertex 32.013503 87.412149 3.263102
    endloop
  endfacet
  facet normal -0.800103 -0.461940 0.382683
    outer loop
      vertex 32.013503 87.412149 3.263102
      vertex 47.979324 62.284739 6.312500
      vertex 33.107396 88.043675 6.312500
    endloop
  endfacet
  facet normal -0.800103 -0.461940 -0.382683
    outer loop
      vertex 33.107396 88.043675 6.312500
      vertex 47.979324 62.284739 6.312500
      vertex 32.013503 87.412148 9.361898
    endloop
  endfacet
  facet normal -0.800103 -0.461940 -0.382683
    outer loop
      vertex 32.013503 87.412148 9.361898
      vertex 47.979324 62.284739 6.312500
      vertex 46.885424 61.653226 9.361898
    endloop
  endfacet
  facet normal -0.331414 -0.191342 -0.923880
    outer loop
      vertex 32.013503 87.412148 9.361898
      vertex 46.885424 61.653226 9.361898
      vertex 29.372614 85.887508 10.624999
    endloop
  endfacet
  facet normal -0.331414 -0.191342 -0.923880
    outer loop
      vertex 29.372614 85.887508 10.624999
      vertex 46.885424 61.653226 9.361898
      vertex 44.244517 60.128617 10.624999
    endloop
  endfacet
  facet normal 0.331414 0.191342 -0.923880
    outer loop
      vertex 29.372614 85.887508 10.624999
      vertex 44.244517 60.128617 10.624999
      vertex 26.731724 84.362868 9.361898
    endloop
  endfacet
  facet normal 0.331414 0.191342 -0.923880
    outer loop
      vertex 26.731724 84.362868 9.361898
      vertex 44.244517 60.128617 10.624999
      vertex 41.603609 58.604008 9.361898
    endloop
  endfacet
  facet normal 0.000000 0.923880 -0.382683
    outer loop
      vertex 9.789400 48.624999 6.312500
      vertex 27.880600 48.624999 6.312500
      vertex 9.789400 46.098795 0.213705
    endloop
  endfacet
  facet normal 0.000000 0.923880 -0.382683
    outer loop
      vertex 9.789400 46.098795 0.213705
      vertex 27.880600 48.624999 6.312500
      vertex 27.880600 46.098795 0.213705
    endloop
  endfacet
  facet normal -0.000000 0.923880 0.382683
    outer loop
      vertex 27.880600 46.098795 12.411295
      vertex 27.880600 48.624999 6.312500
      vertex 9.789400 46.098795 12.411295
    endloop
  endfacet
  facet normal -0.000000 0.923880 0.382683
    outer loop
      vertex 9.789400 46.098795 12.411295
      vertex 27.880600 48.624999 6.312500
      vertex 9.789400 48.624999 6.312500
    endloop
  endfacet
  facet normal -0.800103 -0.461940 0.382683
    outer loop
      vertex 34.441929 60.501219 6.312500
      vertex 36.629729 61.764246 12.411295
      vertex 25.518790 75.956550 6.312500
    endloop
  endfacet
  facet normal -0.800103 -0.461940 0.382683
    outer loop
      vertex 25.518790 75.956550 6.312500
      vertex 36.629729 61.764246 12.411295
      vertex 27.706574 77.219603 12.411295
    endloop
  endfacet
  facet normal -0.800103 -0.461940 -0.382683
    outer loop
      vertex 27.706574 77.219603 0.213705
      vertex 36.629729 61.764246 0.213705
      vertex 25.518790 75.956550 6.312500
    endloop
  endfacet
  facet normal -0.800103 -0.461940 -0.382683
    outer loop
      vertex 25.518790 75.956550 6.312500
      vertex 36.629729 61.764246 0.213705
      vertex 34.441929 60.501219 6.312500
    endloop
  endfacet
endsolid OpenSCAD_Model
